<?xml version="1.0" encoding="utf-8"?>
<!-- Generator: Adobe Illustrator 23.0.3, SVG Export Plug-In . SVG Version: 6.00 Build 0)  -->
<svg version="1.1" id="Capa_1" xmlns="http://www.w3.org/2000/svg" xmlns:xlink="http://www.w3.org/1999/xlink" x="0px" y="0px"
	 viewBox="0 0 1200 1200" enable-background="new 0 0 1200 1200" xml:space="preserve">
<g>
	<path fill="#ABC6AC" d="M586.168,907.346c0.524,5.062,1.539,11.762,2.173,14.528c0.555,2.425,0.584,4.418,0.605,5.872
		c0.032,2.201,0.032,2.201,1.211,3.331c3.487,3.345,8.353,4.156,11.631,3.477c3.21-0.666,6.102-2.547,9.673-6.287
		c1.572-1.645,3.853-5.818,5.476-9.763c-0.183,0.002-0.35,0.013-0.538,0.013C609.107,918.517,598.146,916.487,586.168,907.346z"/>
	<path fill="#ABC6AC" d="M621.767,906.201c0.101-0.033,0.203-0.04,0.304-0.069c0.204-0.056,0.408-0.105,0.619-0.14
		c0.186-0.031,0.37-0.048,0.556-0.061c0.189-0.013,0.376-0.019,0.569-0.013c0.211,0.007,0.418,0.029,0.625,0.057
		c0.105,0.015,0.208,0.009,0.313,0.03c1.517-0.181,5.934-4.834,8.516-9.822c0.3-0.577,0.545-1.566,0.804-2.613
		c0.198-0.803,0.401-1.604,0.642-2.383c1.593-5.118,4.719-8.98,7.477-12.389c2.249-2.779,4.171-5.221,5.165-7.963
		c-5.376-2.069-11.704-3.109-19.078-2.848c-10.266,4.017-22.598,10.131-28.766,15.381c-1.931,4.994-4.535,9.459-7.782,13.443
		C608.351,910.443,621.624,906.249,621.767,906.201z"/>
	<path fill="#ABC6AC" d="M665.108,951.481c4.217-9.759,6.889-20.867,7.4-31.764c0.794-16.902-3.526-33.204-14.928-42.861
		c-1.698,3.648-4.094,6.628-6.273,9.321c-2.399,2.963-4.471,5.524-5.395,8.495c-0.174,0.56-0.314,1.139-0.457,1.716
		c-0.393,1.585-0.837,3.38-1.774,5.189c-0.742,1.434-6.123,11.387-13.754,14.905c-1.735,7.026-6.365,16.088-9.984,19.88
		c-3.547,3.716-8.545,8.174-15.776,9.672c-1.514,0.314-3.069,0.467-4.632,0.467c-6.356,0-12.864-2.52-17.496-6.964
		c-4.714-4.523-4.774-8.626-4.817-11.622c-0.017-1.184-0.032-2.208-0.311-3.426c-0.025-0.11-1.394-7.129-2.184-14.073
		c-0.135,0.071-0.259,0.147-0.394,0.218c-0.465,1.262-0.91,2.529-1.298,3.811c-4.822,15.922-4.39,33.809,3.334,48.544
		c7.724,14.733,23.298,25.647,39.933,25.716c11.473,0.047,22.315-4.918,31.09-12.468c0.301-3.508,1.029-6.911,2.336-10.058
		C652.623,959.211,657.913,954.216,665.108,951.481z"/>
	<path fill="#ABC6AC" d="M571.405,1073.036c-0.997-0.83-2.07-1.787-3.08-2.9c-1.843,0.455-3.662,0.97-5.421,1.59
		c-9.412,3.322-15.067,16.382-6.331,23.98c10.929,9.506,23.411,14.875,36.798,16.646c-1.037,7.56-1.357,15.21-0.873,22.879
		c0.846,13.397,15.696,19.414,25.734,10.659c10.922-9.526,16.096-24.295,13.727-38.398c-7.966-4.522-15.698-10.319-20.544-14.734
		C599.1,1089.926,579.655,1079.898,571.405,1073.036z"/>
	<path fill="#ABC6AC" d="M909.968,862.063c-11.062-5.547-26.526-1.118-36.648,4.642c-3.757,2.138-7.057,4.712-10.016,7.588
		c0.888,5.994,1.212,12.14,0.919,18.511c-0.058,1.247-0.892,7.395-2.294,9.034c-4.167,4.877-15.388,5.698-18.759,5.698
		c-0.275,0-0.497-0.005-0.658-0.014c-0.126-0.007-0.251-0.023-0.376-0.03c-1.365,7.21-0.241,14.692,2.113,21.94
		c1.148-1.775,2.156-3.814,3.041-6.232c1.114-3.04,4.484-4.601,7.522-3.488c3.04,1.113,4.602,4.481,3.489,7.521
		c-2.309,6.303-5.356,10.912-9.005,14.448c1.243,2.543,2.544,5.018,3.847,7.382c7.18,13.021,20.424,27.141,36.471,17.837
		c12.957-7.511,13.905-25.304,11.922-38.529c-1.042-6.95-3.271-13.65-6.491-19.817c7.016-3.347,13.451,2.746,18.403-2.927
		C922.007,895.821,923.155,868.673,909.968,862.063z"/>
	<path fill="#ABC6AC" d="M794.44,115.992c2.082,2.618,4.469,5.654,3.76,8.922c-0.465,2.148-2.176,3.763-3.708,5.337
		c-5.726,5.88-10.156,13.453-10.542,21.651c-1.655,35.173,39.266,16.389,47.862-2.843c1.399-3.129,2.37-6.403,3.025-9.742
		c-2.579-3.568-4.845-7.361-6.717-11.344c-0.519-1.103-0.999-2.244-1.339-3.413c-0.103-0.252-0.228-0.512-0.327-0.763
		c-0.768-1.957-0.397-4.067,0.772-5.638c0.548-0.942,1.331-1.719,2.34-2.137c0.986-0.408,2.044-0.409,3.066-0.15
		c0.51,0.066,1.012,0.175,1.485,0.368c-0.427-1.738-0.914-3.46-1.495-5.152c-1.15,1.105-2.733,1.752-4.467,1.625
		c-3.229-0.23-5.661-3.034-5.431-6.264c0.259-3.633,0.877-7.268,1.877-10.982c-6.672-9.665-15.68-17.741-25.56-24.184
		c-2.533-1.652-5.275-3.256-8.297-3.382c-5.411-0.226-10.039,4.596-11.249,9.875c-1.21,5.279,0.247,10.797,2.182,15.855
		C784.755,101.678,789.077,109.249,794.44,115.992z"/>
	<path fill="#ABC6AC" d="M544.322,216.094c1.71,8.537,8.269,15.145,14.52,21.207c-6.438,4.756-12.212,10.411-17.103,16.747
		c-5.177,6.706-9.119,16.948-3.189,22.998c4.724,4.821,12.73,3.627,19.071,1.317c7.32-2.666,14.351-6.49,20.133-11.65
		c-1.153-9.921-1.475-25.169-1.071-29.512c0.006-0.068,0.026-0.128,0.035-0.195c0.006-0.049,0-0.097,0.007-0.147l3.213-21.063
		c-3.273-4.413-7.065-8.522-10.991-12.159c-3.34-3.094-7.26-6.072-11.809-6.258C548.438,197.025,542.612,207.556,544.322,216.094z"
		/>
	<path fill="#ABC6AC" d="M698.327,392.826c7.637,0.89,15.668-7.625,15.044-15.043c-0.962-11.434-5.26-20.154-14.268-27.376
		c-8.119-6.51-17.681-10.381-21.992-20.575c-3.753-8.875-1.995-18.927-1.96-28.265c0.041-10.766-2.085-20.634-8.471-29.465
		c-4.384-6.063-14.026-9.23-19.796-2.551c-17.962,20.793-28.643,45.607-29.637,72.602c3.302,9.362,7.449,18.443,12.362,27.079
		C646.777,384.441,680.038,390.697,698.327,392.826z"/>
	<path fill="#ABC6AC" d="M1004.79,459.475c-4.585-2.763-9.514-5.048-14.803-5.705c-6.041-0.75-12.651,0.941-16.635,5.544
		c-7.032,8.126-2.815,21.566,5.53,28.336c1.775,1.44,3.93,3.197,3.573,5.455c-0.185,1.164-1.027,2.099-1.819,2.971
		c-8.079,8.893-14.979,22.366-8.227,32.305c5.825,8.574,19.15,8.8,27.925,3.259c9.791-6.185,16.725-15.91,18.154-27.119
		c-3.575-5.636-6.217-10.979-8.094-16.337C1006.328,476.581,1005.104,466.211,1004.79,459.475z"/>
	<path fill="#F7A19F" d="M259.304,310.931c0.822-17.555,5.302-34.332,13.242-50.022c-8.105,0.352-16.411,3.388-22.903,8.284
		c-14.756,11.125-22.739,31.751-16.338,49.087c1.457,3.946,3.289,7.276,5.38,10.097
		C247.223,318.551,254.956,313.349,259.304,310.931z"/>
	<path fill="#F7A19F" d="M301.18,307.056c2.331-11.698,2.381-25.082-4.069-34.691c-0.992-1.477-2.138-2.866-3.453-4.145
		c-2.563-2.494-5.555-4.27-8.779-5.471c-8.212,14.864-13.602,32.13-13.969,51.983c-0.044,2.379-1.522,4.495-3.741,5.356
		c-0.157,0.064-9.034,3.845-19.75,16.271C266.975,347.912,296.096,332.566,301.18,307.056z"/>
	<path fill="#FCC48B" d="M349.159,268.511c1.24-0.927,2.265-1.76,3.115-2.527C351.214,266.8,350.166,267.631,349.159,268.511z"/>
	<path fill="#F7A19F" d="M406.121,248.387c-6.353,4.427-14.735,3.955-22.438,4.744c-5.794,0.593-11.433,2.118-16.785,4.351
		c2.989,11.66-8.963,19.548-18.807,26.008c-7.438,4.881-15.065,9.899-18.542,16.139c-0.076,0.291-0.179,0.573-0.251,0.866
		c-0.639,2.611-1.12,5.293-1.566,7.991c0.546,5.169,3.52,11.179,8.965,17.956c3.963,4.934,8.844,7.529,14.921,7.929
		c16.759,1.111,41.995-13.947,73.002-43.533c2.344-2.236,6.053-2.149,8.289,0.194c2.235,2.343,2.148,6.054-0.194,8.289
		c-32.582,31.09-59.283,46.83-79.419,46.831c-0.829,0-1.645-0.027-2.452-0.08c-8.015-0.53-14.879-3.634-20.481-9.196
		c-5.924,2.224-18.809,8.158-28.912,20.538c-1.159,1.421-2.845,2.157-4.546,2.157c-1.303,0-2.615-0.433-3.703-1.321
		c-1.855-1.514-2.535-3.925-1.94-6.095c-8.778,4.1-16.604,8.817-19.507,17.731c-4.024,12.357,5.379,24.84,17.525,30.346
		c1.588-4.195,3.599-7.908,5.521-10.718c1.826-2.673,5.472-3.36,8.148-1.53c2.669,1.825,3.356,5.465,1.538,8.137
		c-0.212,0.313-2.064,3.102-3.735,7.056c14.746,1.341,29.402-4.108,43.926-7.581c11.414-2.73,24.403-4.879,37.273-5.205
		c13.149-2.928,24.047-3.885,30.22-4.189c3.95-23.155,30.342-49.725,33.842-53.161c2.312-2.267,6.021-2.233,8.289,0.076
		c2.268,2.31,2.235,6.021-0.073,8.29c-12.694,12.481-31.097,36.142-30.839,50.533c0,0.018,0.005,0.034,0.005,0.053
		c0,0.014-0.004,0.025-0.004,0.039c0.026,1.116,0.152,2.182,0.416,3.176c1.406,5.289,12.534,14.75,34.248,24.575
		c2.545,0.551,5.184,0.808,7.969,0.61c16.886-1.205,26.101-20.216,29.518-36.795c7.236-35.109,4.112-71.185-1.87-106.759
		c-16.128-3.066-38.307-3.736-63.074,4.897c-3.055,1.065-6.4-0.55-7.466-3.607c-1.065-3.057,0.55-6.4,3.607-7.466
		c24.334-8.482,46.995-8.742,64.773-6.025c-0.136-0.737-0.267-1.476-0.404-2.212c-1.043-5.582-2.133-11.146-3.239-16.688
		c-1.641-8.224-3.915-17.094-7.501-24.878c-4.235-0.339-8.353-0.461-11.964-0.38c-3.2,0.092-5.92-2.49-5.994-5.726
		c-0.073-3.236,2.488-5.92,5.724-5.995c0.699-0.016,2.309-0.039,4.54,0.001c-3.81-4.239-8.49-7.413-14.292-8.885
		c-5.192-1.319-10.406-0.891-15.313,0.794c-4.333,16.579-24.884,34.95-30.117,39.411
		C411.276,243.352,409.164,246.265,406.121,248.387z"/>
	<path fill="#F7A19F" d="M223.789,677.67c0.245,3.859,0.701,7.674,1.248,11.471c1.24-0.365,2.313-0.656,3.208-0.885
		c14.816-28.376,6.718-51.8,0.928-62.788C224.891,642.581,222.668,660.037,223.789,677.67z"/>
	<path fill="#F7A19F" d="M290.143,750.412c-13.215-23.492-49.987-45.705-58.843-50.819c-1.045,0.273-2.464,0.671-4.142,1.201
		c7.841,35.083,27.427,67.383,49.208,96.522C282.429,791.481,301.556,770.699,290.143,750.412z"/>
	<path fill="#F7A19F" d="M497.849,954.901c16.725-25.103,21.623-56.062,25.113-86.024c5.538-47.535,8.536-95.529,6.639-143.302
		c-5.822-16.769-10.429-36.654-7.526-71.795c0.05-0.602,0.098-1.221,0.147-1.833c-4.663-26.434-11.964-52.816-22.609-77.17
		c1.502,27.646-0.276,71.18-22.6,95.061c-1.154,1.234-2.717,1.859-4.284,1.859c-1.435,0-2.872-0.522-4.002-1.58
		c-2.366-2.21-2.49-5.92-0.279-8.285c29.722-31.798,17.164-109.516,17.034-110.297c-0.208-1.246,0.004-2.461,0.517-3.518
		c-16.044-27.177-37.346-50.289-65.193-65.795c-8.639-4.81-17.885-8.758-27.424-11.512c-7.915,10.424-10.859,22.011-11.864,27.436
		c17.524,13.968,19.691,34.952,19.296,46.872c4.316-0.628,9.468-0.473,13.935,2.216c1.333,0.803,2.774,1.952,4.094,3.569
		c6.417-9.84,16.864-23.866,28.05-30.732c2.757-1.695,6.369-0.829,8.063,1.931c1.694,2.76,0.829,6.37-1.931,8.063
		c-13.21,8.108-26.232,29.824-29.547,35.616c1.347,20.3,6.22,41.591,6.27,41.81c0.729,3.155-1.237,6.303-4.391,7.033
		c-0.444,0.102-0.889,0.152-1.326,0.152c-2.667,0-5.079-1.833-5.706-4.544c-0.222-0.957-5.433-23.691-6.668-45.469
		c-0.218-3.84-1.208-6.323-2.944-7.376c-2.694-1.634-7.656-0.607-10.687,0.453c-6.353,9.887-19.128,34.929-10.267,45.911
		c2.034,2.519,1.64,6.211-0.881,8.244c-1.084,0.875-2.385,1.3-3.678,1.3c-1.711,0-3.408-0.745-4.566-2.181
		c-15.479-19.182,5.059-52.836,9.948-60.266c0.84-5.675,3.397-31.439-16.688-45.159c-0.066-0.045-0.116-0.103-0.179-0.15
		c-0.166-0.124-0.32-0.258-0.471-0.397c-0.139-0.127-0.274-0.254-0.397-0.393c-0.124-0.137-0.233-0.284-0.344-0.433
		c-0.116-0.158-0.231-0.314-0.33-0.482c-0.093-0.157-0.171-0.321-0.25-0.487c-0.082-0.173-0.162-0.345-0.227-0.524
		c-0.063-0.175-0.109-0.356-0.155-0.538c-0.048-0.188-0.093-0.373-0.121-0.566c-0.026-0.175-0.038-0.352-0.048-0.531
		c-0.013-0.214-0.018-0.426-0.007-0.641c0.004-0.076-0.009-0.148-0.002-0.223c0.099-1.108,1.694-16.973,11.569-32.359
		c-11.709-1.995-23.647-2.06-35.275,0.449c-15.83,3.417-29.624,11.035-41.718,21.277c15.822-4.147,33.558-5.237,47.327,3.57
		c2.727,1.745,3.524,5.37,1.779,8.098c-1.745,2.727-5.371,3.524-8.098,1.779c-16.757-10.719-43.318-1.7-59.62,5.776
		c-3.831,4.719-7.45,9.68-10.875,14.81c1.461,13.168,6.1,35.81,20.568,61.327c24.894,43.904,56.045,64.617,76.658,78.323
		c2.43,1.616,4.718,3.137,6.835,4.587c21.586,14.785,31.787,105.881,33.613,123.992c0.325,3.221-2.023,6.096-5.244,6.42
		c-0.2,0.021-0.4,0.031-0.595,0.031c-2.974,0-5.521-2.253-5.826-5.275c-0.915-9.07-2.212-19.531-3.819-30.379
		c-34.965,0.293-39.41,43.338-39.587,45.246c-0.283,3.039-2.839,5.326-5.833,5.326c-0.177,0-0.357-0.008-0.538-0.024
		c-3.221-0.294-5.596-3.136-5.307-6.357c0.055-0.605,1.412-14.956,8.79-28.946c9.019-17.1,22.971-26.307,40.638-26.958
		c-5.537-33.396-13.765-67.133-22.917-73.403c-2.077-1.422-4.319-2.913-6.702-4.497c-14.665-9.751-34.434-22.905-53.85-44.925
		c-20.688,2.241-32.719,24.166-36.783,31.578c-0.823,1.501-1.319,2.407-1.831,3.116c-1.146,1.587-2.939,2.431-4.758,2.431
		c-1.19,0-2.39-0.361-3.427-1.111c-2.613-1.886-3.212-5.524-1.349-8.147c0.247-0.377,0.6-1.045,1.083-1.925
		c4.366-7.966,16.472-30.024,38.555-36.219c-6.182-7.968-12.245-16.941-18.006-27.101c-11.207-19.766-16.921-37.818-19.824-51.751
		c-4.687,8.228-8.962,16.657-12.87,25.006c-7.071,15.106-13.655,30.712-18.733,46.665c0.235,0.21,0.467,0.425,0.672,0.677
		c1.181,1.455,27.669,34.958,5.9,79.738c12.832,7.617,46.754,29.343,60.394,53.591c14.018,24.919-4.168,50.757-16.839,62.059
		c25.318,32.733,53.065,63.931,72.123,100.607c1.48,2.848,2.936,5.81,4.392,8.819c4.164-1.5,7.81-3.836,10.626-7.279
		c1.056-1.29,2.548-2.004,4.089-2.123c-1.749-1.193-3.44-2.471-5.062-3.85c-22.857-19.423-24.283-49.916-24.332-51.205
		c-0.125-3.236,2.398-5.959,5.634-6.082c3.215-0.151,5.951,2.391,6.082,5.62c0.011,0.266,1.356,26.782,20.289,42.799
		c12.33,10.432,29.589,14.354,51.303,11.652c1.593-0.199,3.202,0.268,4.444,1.289c1.242,1.019,2.012,2.505,2.128,4.108
		c0.677,9.347,4.022,26.221,10.122,31.713c2.406,2.168,2.6,5.874,0.434,8.281c-1.158,1.285-2.755,1.94-4.359,1.94
		c-1.398,0-2.8-0.497-3.921-1.507c-8.678-7.814-12.077-24.481-13.325-33.593c-16.967,1.294-31.575-1.282-43.638-7.667
		c0.849,1.951,0.627,4.288-0.812,6.048c-4.076,4.984-9.068,8.367-14.585,10.545c5.435,11.376,11.226,23.026,18.468,33.247
		c5.636,4.426,12.516,9.134,20.976,14.062c2.798,1.63,3.744,5.219,2.115,8.018c-0.03,0.052-0.076,0.087-0.107,0.137
		c1.3,0.781,2.601,1.56,3.976,2.249C442.569,1000.565,479.123,983.007,497.849,954.901z M418.168,825.258
		c-2.119,0.263-20.296,3.337-18.166,30.8c0.25,3.228-2.164,6.048-5.392,6.299c-0.155,0.011-0.308,0.017-0.46,0.018
		c-3.032,0-5.599-2.336-5.839-5.41c-3.069-39.574,28.271-43.329,28.588-43.364c3.23-0.33,6.103,1.998,6.443,5.219
		C423.679,822.026,421.366,824.898,418.168,825.258z M461.074,829.085c0.592,4.63,7.447,9.055,19.303,12.46
		c3.112,0.894,4.911,4.142,4.017,7.254c-0.739,2.571-3.084,4.246-5.632,4.246c-0.536,0-1.08-0.074-1.62-0.23
		c-17.37-4.988-26.431-12.269-27.7-22.257c-1.523-11.986,9.921-23.079,18.283-29.471c-19.098-13.999-18.506-39.039-14.959-51.666
		c0.875-3.119,4.112-4.935,7.23-4.058c3.113,0.874,4.929,4.104,4.061,7.218c-0.368,1.337-8.381,31.711,17.028,42.689
		c2.026,0.875,3.388,2.815,3.526,5.016c0.137,2.203-0.973,4.296-2.875,5.416C474.564,809.944,460.071,821.246,461.074,829.085z
		 M431.077,692.167c-0.853-3.124,0.988-6.347,4.112-7.199c3.119-0.851,6.346,0.987,7.199,4.109
		c0.143,0.516,9.822,34.593,34.587,47.985c11.59,6.268,24.929,7.051,39.649,2.327c3.084-0.989,6.386,0.708,7.374,3.79
		c0.989,3.082-0.708,6.385-3.79,7.374c-7.543,2.421-14.828,3.63-21.819,3.63c-9.601,0-18.647-2.281-27.051-6.838
		C442.09,731.484,431.512,693.764,431.077,692.167z"/>
	<path fill="#F7A19F" d="M227.284,546.45c3.037-5.178,5.798-10.524,8.292-16.002c-0.041,0-0.082,0.002-0.123,0.002
		c-17.392,0-33.67-7.789-42.76-14.492c-2.606-1.921-3.161-5.591-1.24-8.197c1.92-2.604,5.585-3.161,8.19-1.245
		c1.104,0.808,20.196,14.489,40.836,12.021c7.384-19.846,11.41-41.078,11.971-62.386c0.155-5.896,0.03-11.795-0.344-17.672
		c-11.799-3.46-19.675-7.841-20.489-8.306c-2.811-1.608-3.787-5.188-2.18-7.999c1.605-2.809,5.18-3.785,7.991-2.185
		c0.152,0.087,5.303,2.936,13.45,5.687c-2.223-17.007-6.713-33.649-13.515-49.226c-1.94-4.444-4.221-8.955-7.364-12.578
		c-5.118,10.895-9.838,24.308-13.408,40.832c-0.098,0.455-0.252,0.898-0.455,1.317c-0.4,0.828-39.956,83.261-32.364,128.531
		c0.15,0.892,0.092,1.807-0.172,2.673c-0.402,1.328-31.808,107.209-7.142,187.376c1.842-3.539,4.028-6.765,6.457-9.697
		c0.071-0.506,0.142-1.012,0.203-1.513c0.951-7.823,1.394-15.694,1.618-23.587c-7.723-15.819-8.973-34.048-9.043-35.18
		c-0.2-3.232,2.258-6.013,5.489-6.213c1.6-0.099,3.077,0.451,4.192,1.414c0.373-9.921,1.159-19.798,2.936-29.576
		C194.018,588.85,211.915,572.647,227.284,546.45z"/>
	<path fill="#F7A19F" d="M171.994,535.123c-7.005-47.417,29.249-125.119,33.284-133.574c3.913-17.879,9.104-32.425,14.77-44.233
		c-7.929-2.231-17.111,0.552-23.65,5.882c-7.745,6.314-12.522,15.489-16.737,24.548c-44.542,95.744-48.716,205.05-44.349,310.558
		c0.436,10.53,1.081,21.523,6.389,30.627c5.308,9.105,16.82,15.513,26.579,11.535c0.345-0.141,0.663-0.314,0.992-0.473
		C137.569,659.23,167.836,549.341,171.994,535.123z"/>
	<path fill="#ABC6AC" d="M751.162,757.042c-0.378-0.041-0.742-0.122-1.094-0.23c-2.177,0.137-4.367,0.228-6.578,0.228
		c-8.851,0-17.929-1.017-26.894-2.26c-11.61,15.744-14.069,38.778-4.527,59.798c1.565,3.448,3.392,6.679,5.425,9.695
		c3.776-3.219,7.645-7.024,11.402-11.276c11.195-12.671,21.315-29.091,24.46-44.305c0.711-3.447,1.058-6.215,0.435-8.524
		C753.318,758.415,752.051,757.136,751.162,757.042z"/>
	<path fill="#ABC6AC" d="M734.791,739.953c-2.7,1.225-5.218,2.699-7.568,4.365c16.551,1.839,32.093,1.816,44.658-5.11
		C759.843,734.665,746.693,734.551,734.791,739.953z"/>
	<path fill="#ABC6AC" d="M764.241,754.663c0.344,0.787,0.641,1.603,0.871,2.455c1.296,4.809,0.634,9.545-0.275,13.945
		c-3.585,17.352-14.376,34.995-26.201,48.633c-4.549,5.245-9.237,9.848-13.74,13.666c15.822,16.123,38.75,22.113,58.306,13.235
		c25.917-11.764,36.091-45.175,22.722-74.624c-5.123-11.285-12.965-20.342-22.142-26.569c-0.611,0.487-1.249,0.966-1.933,1.435
		C776.372,750.588,770.448,753.073,764.241,754.663z"/>
	<path fill="#ABC6AC" d="M649.138,635.916c2.023-0.918,3.965-1.947,5.828-3.072c-1.856-4.192-3.733-8.34-5.649-12.418
		c-4.658-9.911-9.846-20.253-17.508-28.172c-7.81-8.072-17.78-12.511-26.666-11.881c-0.725,0.052-0.961,0.11-1.028,0.133
		c0.038,0.006-0.246,0.29-0.902,1.277c-8.301,12.489-10.053,28.988-4.811,43.002c0.428,1.145,0.887,2.28,1.41,3.387
		c0.936,1.986,0.684,4.328-0.654,6.069c-0.133,0.174-0.309,0.297-0.459,0.452C614.743,642.27,632.89,643.291,649.138,635.916z"/>
	<path fill="#ABC6AC" d="M653.177,581.49c5.14,1.625,11.488-1.087,17.584-4.258c4.393-2.284,8.84-4.76,12.996-7.579
		c-0.844-8.369-3.062-16.858-6.802-25.096c-7.458-16.429-19.62-28.998-33.645-36.471c-1.176,0.344-2.261,0.742-3.115,1.224
		c-2.367,1.337-4.273,4.368-5.828,9.266c-5.885,18.536-1.94,40.408,10.055,55.717C647.571,578.312,650.352,580.598,653.177,581.49z"
		/>
	<path fill="#ABC6AC" d="M656.534,593.72c-2.278,0-4.576-0.318-6.889-1.049c-1.198-0.378-2.307-0.877-3.375-1.422
		c5.646,7.608,9.832,16.045,13.66,24.191c1.562,3.325,3.096,6.698,4.619,10.096c11.251-10.645,18.008-25.718,19.349-42.135
		c-2.568,1.494-5.16,2.898-7.726,4.233C669.931,590.881,663.325,593.72,656.534,593.72z"/>
	<path fill="#ABC6AC" d="M584.069,601.908c0.97-9.456,4.108-18.686,9.379-26.615c1.278-1.924,2.944-4.065,5.604-5.359
		c1.87-0.911,3.708-1.147,5.259-1.257c9.355-0.669,19.051,2.321,27.676,8.358c-11.955-18.046-15.37-41.301-8.795-62.008
		c1.684-5.303,3.922-9.372,6.748-12.355c-13.226-3.734-27.24-3.139-40.067,2.685c-31.729,14.402-44.183,55.305-27.818,91.358
		c5.559,12.246,13.732,22.35,23.34,29.8c0.339-0.173,0.67-0.379,1.015-0.528C583.991,618.239,583.24,609.991,584.069,601.908z"/>
	<path fill=" #A855F7" d="M854.812,919.712c-3.038-1.113-6.408,0.448-7.522,3.488c-0.885,2.418-1.893,4.458-3.041,6.232
		c-4.439,6.86-11.104,9.543-22.102,12.741c-2.809,0.815-5.084,0.956-6.755,0.414c-1.324-0.428-2.717-1.434-4.144-2.986
		c-3.772-4.11-5.548-8.934-5.135-13.952c0.477-5.819,3.87-11.598,9.307-15.854c4.086-3.198,6.181-4.374,8.802-4.846
		c5.854,1.311,11.86,2.181,17.913,2.543c0.125,0.007,0.25,0.023,0.376,0.03c0.161,0.009,0.384,0.014,0.658,0.014
		c3.371,0,14.592-0.821,18.759-5.698c1.401-1.64,2.235-7.787,2.294-9.034c0.294-6.371-0.031-12.516-0.919-18.511
		c-1.281-8.652-3.771-16.979-7.57-25.131c-2.516-5.399-6.309-12.169-13.375-16.644c-6.534-4.138-17.417-6.321-25.867-1.335
		c-7.941,4.683-9.465,12.956-9.527,19.044c-3.207,0.946-6.243,2.711-8.706,5.141c-3.434,3.387-5.247,7.38-6.677,10.855
		c-1.731,4.208-6.333,15.387,0.737,24.156c2.868,3.559,7.021,5.778,10.704,7.479c1.831,0.846,3.712,1.622,5.614,2.365
		c-0.151,0.117-0.293,0.221-0.446,0.34c-8.004,6.266-13.021,15.06-13.766,24.127c-0.687,8.362,2.143,16.261,8.185,22.84
		c2.811,3.063,5.896,5.154,9.169,6.213c1.824,0.591,3.787,0.886,5.874,0.886c2.426,0,5.022-0.398,7.767-1.198
		c9.37-2.724,17.537-5.607,23.874-11.75c3.649-3.536,6.696-8.145,9.005-14.448C859.414,924.192,857.852,920.825,854.812,919.712z
		 M807.943,887.214c-2.31-1.066-5.135-2.508-6.495-4.193c-1.877-2.329-1.576-6.133,0.978-12.337
		c1.079-2.622,2.201-5.127,4.068-6.969c1.599-1.578,3.845-2.553,5.829-2.553c0.128,0,0.255,0.005,0.381,0.014
		c1.728,0.115,3.389-0.532,4.586-1.761c1.197-1.23,1.795-2.922,1.636-4.631c-0.723-7.797,0.265-11.582,3.521-13.502
		c3.379-1.992,9.496-1.481,13.638,1.143c4.466,2.828,7.066,7.495,9.019,11.689c4.086,8.769,6.618,18.163,7.298,27.82
		c0.243,3.456,0.444,6.435-1.669,9.349c-1.697,2.34-4.491,4.706-7.564,4.533C830.791,895.118,818.611,892.144,807.943,887.214z"/>
	<path fill=" #A855F7" d="M471.337,747.345c8.405,4.557,17.45,6.838,27.051,6.838c6.99,0,14.275-1.209,21.819-3.63
		c3.082-0.989,4.779-4.292,3.79-7.374c-0.988-3.082-4.29-4.779-7.374-3.79c-14.721,4.724-28.059,3.941-39.649-2.327
		c-24.765-13.392-34.444-47.469-34.587-47.985c-0.853-3.122-4.08-4.96-7.199-4.109c-3.124,0.852-4.965,4.075-4.112,7.199
		C431.512,693.764,442.09,731.484,471.337,747.345z"/>
	<path fill=" #A855F7" d="M416.899,813.602c-0.317,0.034-31.657,3.79-28.588,43.364c0.239,3.074,2.806,5.41,5.839,5.41
		c0.152-0.001,0.306-0.007,0.46-0.018c3.228-0.251,5.642-3.071,5.392-6.299c-2.13-27.464,16.047-30.537,18.166-30.8
		c3.198-0.36,5.511-3.232,5.174-6.437C423.002,815.6,420.129,813.272,416.899,813.602z"/>
	<path fill=" #A855F7" d="M490.298,544.787c-1.946,0.325-3.497,1.581-4.299,3.23c-0.513,1.057-0.725,2.272-0.517,3.518
		c0.131,0.781,12.688,78.499-17.034,110.297c-2.211,2.366-2.086,6.076,0.279,8.285c1.13,1.058,2.567,1.58,4.002,1.58
		c1.566,0,3.129-0.625,4.284-1.859c22.324-23.881,24.102-67.415,22.6-95.061c-0.764-14.059-2.374-24.023-2.567-25.177
		C496.512,546.407,493.489,544.251,490.298,544.787z"/>
	<path fill=" #A855F7" d="M419.184,452.824c3.103-0.924,4.87-4.189,3.946-7.292s-4.191-4.869-7.292-3.946
		c-17.17,5.113-28.038,15.581-34.905,26.28c-9.875,15.386-11.47,31.25-11.569,32.359c-0.007,0.076,0.006,0.148,0.002,0.223
		c-0.011,0.215-0.005,0.427,0.007,0.641c0.01,0.18,0.022,0.356,0.048,0.531c0.029,0.192,0.074,0.378,0.121,0.566
		c0.046,0.182,0.092,0.363,0.155,0.538c0.065,0.18,0.145,0.352,0.227,0.524c0.079,0.166,0.157,0.33,0.25,0.487
		c0.099,0.168,0.214,0.324,0.33,0.482c0.11,0.149,0.22,0.295,0.344,0.433c0.124,0.139,0.259,0.266,0.397,0.393
		c0.151,0.14,0.305,0.274,0.471,0.397c0.063,0.047,0.113,0.105,0.179,0.15c20.085,13.72,17.528,39.484,16.688,45.159
		c-4.889,7.429-25.427,41.084-9.948,60.266c1.159,1.436,2.856,2.181,4.566,2.181c1.293,0,2.594-0.425,3.678-1.3
		c2.52-2.034,2.914-5.725,0.881-8.244c-8.861-10.982,3.914-36.024,10.267-45.911c3.031-1.06,7.993-2.087,10.687-0.453
		c1.736,1.053,2.726,3.536,2.944,7.376c1.234,21.779,6.445,44.512,6.668,45.469c0.626,2.71,3.039,4.544,5.706,4.544
		c0.437,0,0.882-0.05,1.326-0.152c3.155-0.729,5.121-3.878,4.391-7.033c-0.05-0.219-4.923-21.51-6.27-41.81
		c3.315-5.793,16.337-27.508,29.547-35.616c2.76-1.694,3.624-5.304,1.931-8.063c-1.695-2.76-5.306-3.625-8.063-1.931
		c-11.186,6.866-21.633,20.891-28.05,30.732c-1.32-1.617-2.761-2.766-4.094-3.569c-4.467-2.689-9.619-2.843-13.935-2.216
		c0.396-11.92-1.771-32.904-19.296-46.872c1.005-5.425,3.948-17.012,11.864-27.436C399.057,463.235,407.282,456.369,419.184,452.824
		z"/>
	<path fill=" #A855F7" d="M837.517,965.13c-8.782-5.055-53.85,6.317-81.27,16.048c6.616-10.795,8.943-15.89,9.073-16.179
		c1.326-2.95,0.01-6.41-2.936-7.74c-2.946-1.332-6.417-0.023-7.754,2.922c-0.022,0.047-1.172,2.542-4.141,7.73
		c1.748-23.356,0.023-46.984-5.19-69.578l0.109-0.506c0.219-1.024,0.159-2.086-0.172-3.08c-3.295-9.884-7.953-19.303-13.844-27.992
		c-6.718-9.913-14.328-14.603-22.64-13.966c-3.015,0.235-5.67,1.247-7.679,2.928c-3.261,2.732-4.172,6.582-4.718,8.883
		c-2.62,11.086-4.782,22.601-1.747,32.995c-7.318,2.272-13.719,8.288-15.935,15.931c-1.979,6.828-0.795,14.469,3.062,21.189
		c-0.617,0.55-1.2,1.161-1.744,1.83c-2.834,3.483-4.167,8.177-3.639,12.489c-2.691,0.265-5.172,0.695-6.85,1.082
		c-1.545,0.355-2.993,0.834-4.395,1.366c-7.195,2.735-12.485,7.73-15.38,14.698c-1.307,3.147-2.035,6.55-2.336,10.058
		c-1.047,12.197,3.352,25.748,9.047,34.897c7.305,11.733,17.998,18.824,30.923,20.508c1.944,0.252,3.913,0.378,5.897,0.378
		c7.869-0.001,15.968-1.963,23.622-5.636c-2.228,9.924-3.192,21.346,1.596,29.572c3.034,5.215,8.09,8.659,14.619,9.96
		c1.682,0.334,3.405,0.504,5.201,0.504c3.581,0,7.445-0.673,11.826-2.038c20.804-6.484,37.179-22.653,43.587-42.72
		c1.728-0.316,3.458-0.748,5.17-1.387c8.005-2.986,13.94-9.582,16.017-17.443c13.688-3.884,25.306-16.26,27.211-26.194
		C843.064,971.636,841.349,967.334,837.517,965.13z M689.09,943.941c0.377-0.464,0.979-1.017,1.708-1.024
		c2.331-0.023,4.428-1.423,5.34-3.568c0.911-2.146,0.466-4.628-1.136-6.323c-3.616-3.824-6.845-10.098-5.066-16.237
		c1.357-4.684,6.418-8.454,10.959-8.454c0.461,0,0.918,0.039,1.364,0.12c2.299,0.417,4.625-0.573,5.922-2.517
		c1.297-1.943,1.316-4.471,0.048-6.434c-5.461-8.452-3.334-20.058-0.463-32.206c0.145-0.614,0.531-2.244,0.807-2.572
		c0.08-0.053,0.433-0.198,1.089-0.25c4.731-0.363,9.149,4.612,12.024,8.856c4.991,7.363,8.995,15.305,11.915,23.629l-0.044,0.202
		c-0.182,0.85-0.172,1.731,0.029,2.576c6.535,27.575,7.609,56.828,3.171,85.101c-16.625-9.133-29.843-17.958-41.185-27.463
		c-2.008-1.683-3.943-3.448-5.379-5.277c-0.214-0.37-0.458-0.72-0.748-1.036c-0.704-1.064-1.229-2.147-1.448-3.252
		C687.76,946.616,688.209,945.024,689.09,943.941z M723.311,1008.301c-0.023,0.017-0.044,0.037-0.067,0.054
		c-10.28,8.672-23.204,13.113-34.368,11.66c-9.323-1.214-17.096-6.428-22.482-15.078c-5.836-9.373-9.864-24.567-5.837-34.259
		c1.999-4.814,5.787-7.802,11.579-9.137c2.922-0.672,7.008-1.144,9.827-1.007c1.837,2.111,3.933,4.033,6.08,5.832
		c12.472,10.452,27.047,20.07,45.456,30.031c-1.927,3.414-4.601,6.758-8.027,9.982
		C724.766,1007.042,724.044,1007.68,723.311,1008.301z M746.634,1053.186c-4.634,1.444-8.21,1.833-11.249,1.228
		c-4.298-0.855-5.926-2.896-6.775-4.356c-4.711-8.097,0.48-25.087,3.314-33.714c0.531-0.469,1.064-0.938,1.584-1.427
		c3.532-3.324,6.452-6.811,8.783-10.421c8.371,7.822,21.499,14.036,32.27,16.286c2.032,0.425,4.26,0.819,6.595,1.098
		C775.154,1036.572,762.459,1048.254,746.634,1053.186z M808.953,992.139c-2.727,0.394-4.813,2.635-5.01,5.383
		c-0.424,5.924-4.908,10.178-9.163,11.766c-5.703,2.125-12.521,1.124-17.824,0.016c-9.584-2.002-20.556-7.704-26.71-13.417
		c21.898-9.529,68.182-20.508,80.013-20.508c0.047,0,0.091,0,0.136,0C828.802,980.147,819.967,990.548,808.953,992.139z"/>
	<path fill=" #A855F7" d="M576.911,924.489c0.279,1.218,0.294,2.242,0.311,3.426c0.044,2.997,0.103,7.099,4.817,11.622
		c4.632,4.444,11.14,6.964,17.496,6.964c1.563,0,3.118-0.153,4.632-0.467c7.231-1.498,12.229-5.956,15.776-9.672
		c3.619-3.792,8.249-12.854,9.984-19.88c7.63-3.518,13.012-13.471,13.754-14.905c0.937-1.809,1.381-3.605,1.774-5.189
		c0.143-0.577,0.283-1.156,0.457-1.716c0.924-2.971,2.997-5.532,5.395-8.495c2.18-2.693,4.575-5.673,6.273-9.321
		c0.496-1.067,0.941-2.184,1.293-3.376c1.776-6.011,0.432-12.103-3.595-16.295c-1.872-1.95-4.356-3.494-7.379-4.592
		c-6.77-2.464-23.076,3.29-36.961,10.239c0.811-1.841,1.63-3.748,2.466-5.788c1.227-2.997-0.206-6.421-3.203-7.649
		c-2.379-0.973-5.013-0.25-6.618,1.585c-0.209-3.398-0.562-6.921-1.08-10.589c-0.104-0.733-0.199-1.475-0.295-2.223
		c-0.758-5.898-1.703-13.238-7.115-19.224c-2.099-2.318-4.419-3.937-6.895-4.809c-5.247-1.853-11.141-0.428-15.771,3.804
		c-3.94,3.602-6.203,8.091-8.198,12.049c-1.664,3.303-3.236,6.422-5.524,8.571c-0.425,0.398-0.878,0.775-1.328,1.154
		c-0.069,0.057-0.143,0.121-0.213,0.181c1.588-25.688,0.185-57.878-3.294-76.834c-2.203-12.007-5.835-21.598-9.347-30.874
		c-5.766-15.228-11.674-30.933-11.577-58.981c3.33,4.284,7.363,8.67,12.007,12.165c1.056,0.796,2.294,1.179,3.521,1.179
		c1.779,0,3.536-0.807,4.689-2.337c1.947-2.588,1.428-6.263-1.159-8.21c-9.261-6.971-16.032-18.96-18.109-22.92
		c3.326-41.962,5.029-127.794-0.032-178.861c-0.003-0.064,0.009-0.125,0.003-0.189c-0.01-0.118-0.765-11.884,18.982-16.958
		c3.136-0.806,5.026-4.002,4.219-7.138c-0.807-3.135-4.011-5.024-7.137-4.218c-8.583,2.205-14.51,5.567-18.619,9.236
		c-1.072-6.027-2.317-11.001-3.752-14.642c8.874-14.557,5.529-50.783,4.11-62.829c-0.18-6.092-0.166-10.592-0.151-14.945
		c0.005-1.444,0.009-2.868,0.006-4.313c2.062,1.387,4.24,2.603,6.522,3.574c-1.797,4.766-1.303,10.234,1.305,14.324
		c2.241,3.513,5.778,6.105,9.921,7.509c-0.803,2.272-1.198,4.658-1.118,7.021c0.238,6.976,4.584,13.363,10.811,15.894
		c0.63,0.256,1.264,0.46,1.898,0.634c-1.735,13.197,4.333,28.929,15.173,36.859c6.734,4.925,15.239,7.444,23.898,7.444
		c6.624,0,13.336-1.474,19.414-4.47c5.027-2.48,8.922-5.613,11.574-9.309c3.524-4.91,4.823-10.66,5.628-15.638
		c1.147-7.082,1.262-14.31,0.795-21.192c1.608,1.923,3.244,3.821,4.933,5.667c1.156,1.264,2.739,1.905,4.327,1.905
		c1.414,0,2.832-0.507,3.956-1.537c2.388-2.185,2.553-5.893,0.369-8.283c-8.157-8.916-15.308-18.823-21.325-29.395
		c-4.913-8.636-9.06-17.717-12.362-27.079c-3.183-9.025-5.594-18.306-7.129-27.697c-0.522-3.195-3.542-5.359-6.732-4.839
		c-3.196,0.522-5.362,3.536-4.84,6.73c0.81,4.957,1.871,9.879,3.12,14.76c-8.523-6.165-17.901-11.362-26.616-16.184l-1.649-0.913
		c-11.784-6.528-25.848-13.064-40.75-12.084c-0.163,0.01-0.337,0.026-0.506,0.04c-6.995-75.287-22.381-142.568-32.849-159.404
		c3.548-4.365,13.697-12.645,38.444-9.668c3.221,0.381,6.135-1.906,6.521-5.121c0.387-3.214-1.905-6.134-5.119-6.521
		c-27.377-3.294-41.151,5.563-47.508,12.335c-6.431-5.413-14.447-8-23.65-7.554c-36.454,1.775-84.816,43.477-92.26,50.084
		c-5.768,2.051-30.988,11.647-56.688,31.063c-20.827,15.735-36.434,33.86-46.488,53.727c-7.94,15.69-12.421,32.467-13.242,50.022
		c-4.348,2.418-12.081,7.62-20.618,17.446c-6.116,7.039-12.642,16.446-18.638,28.94c-5.667,11.808-10.858,26.354-14.77,44.233
		c-4.035,8.455-40.289,86.157-33.284,133.574c-4.158,14.218-34.425,124.107-2.721,204.871c6.377,16.245,15.248,31.318,27.358,44.189
		c-1.818,13.23-5.133,63.875,44.619,91.062c3.356,8.976,17.027,40.145,44.98,40.143c0.347,0,0.696-0.005,1.047-0.015
		c4.557,12.784,19.276,35.183,31.122,50.258c20.528,26.124,61.262,68.721,110.7,72.501c-0.514,1.373-0.962,2.729-1.314,4.052
		c-1.032-0.398-2.071-0.725-3.127-0.973c-5.847-1.372-11.802-0.206-15.933,3.124c-4.972,4.009-12.503,33.949-12.555,35.395
		c-0.265,7.292,12.587,16.302,25.725,23.393c-2.946-0.494-5.885-1.146-8.805-2.003c-3.104-0.911-6.363,0.869-7.276,3.976
		c-0.911,3.106,0.869,6.365,3.976,7.276c8.795,2.58,17.646,3.665,26.332,3.665c8.928,0,17.667-1.16,25.972-3.016
		c0.241-0.022,0.482-0.03,0.724-0.082c0.318-0.068,0.614-0.177,0.907-0.293c3.43-0.811,6.779-1.736,10.032-2.749
		c0.062,0.002,0.121,0.024,0.184,0.024c0.976,0,1.966-0.245,2.877-0.759c0.324-0.183,0.633-0.388,0.954-0.575
		c26.09-8.891,45.026-22.695,46.389-23.706c2.6-1.926,3.147-5.595,1.222-8.196c-1.925-2.601-5.599-3.149-8.198-1.227
		c-0.155,0.115-4.668,3.397-12.163,7.706c7.326-10.506,13.087-23.117,17.211-37.8c4.3-15.305,7.207-30.233-0.565-35.789
		c-6.605-4.72-14.82,0.941-17.521,2.803c-1.352,0.931-2.954,2.209-4.65,3.694c0.261-2.211,0.469-4.413,0.637-6.609
		c10.463-3.624,19.427-16.838,26.553-32.036c5.917,12.184,16.765,29.432,32.965,36.037c0.725,0.295,1.474,0.436,2.211,0.436
		c2.313,0,4.503-1.377,5.431-3.651c1.223-2.998-0.216-6.419-3.215-7.642c-17.946-7.317-28.599-33.511-31.078-40.238
		c6.372-16.888,10.488-33.156,11.912-39.154l1.793-7.479c1.733,0.364,3.461,0.544,5.175,0.544c3.601,0,7.142-0.679,10.545-1.502
		c3.558-0.862,7.673-1.945,11.496-3.914c0.143-0.073,0.269-0.153,0.411-0.228c0.136-0.071,0.26-0.147,0.394-0.218
		C575.517,917.36,576.885,924.379,576.911,924.489z M611.461,928.266c-3.571,3.741-6.464,5.621-9.673,6.287
		c-3.278,0.679-8.145-0.133-11.631-3.477c-1.179-1.13-1.179-1.13-1.211-3.331c-0.021-1.454-0.049-3.447-0.605-5.872
		c-0.633-2.766-1.648-9.466-2.173-14.528c11.979,9.142,22.939,11.171,30.232,11.171c0.188,0,0.354-0.01,0.538-0.013
		C615.314,922.449,613.033,926.621,611.461,928.266z M599.513,883.37c6.169-5.25,18.501-11.364,28.766-15.381
		c7.268-2.843,13.501-4.635,15.771-4.318c1.231,0.464,2.187,1.027,2.773,1.639c1.629,1.695,0.957,4.337,0.806,4.849
		c-0.069,0.232-0.189,0.45-0.272,0.678c-0.993,2.741-2.915,5.184-5.165,7.963c-2.758,3.409-5.884,7.271-7.477,12.389
		c-0.242,0.779-0.444,1.58-0.642,2.383c-0.259,1.047-0.504,2.036-0.804,2.613c-2.582,4.988-6.998,9.641-8.516,9.822
		c-0.105-0.021-0.208-0.015-0.313-0.03c-0.208-0.029-0.414-0.05-0.625-0.057c-0.192-0.007-0.38,0-0.569,0.013
		c-0.186,0.013-0.37,0.03-0.556,0.061c-0.211,0.034-0.414,0.084-0.619,0.14c-0.101,0.029-0.203,0.035-0.304,0.069
		c-0.144,0.048-13.416,4.242-30.037-9.388C594.978,892.829,597.581,888.363,599.513,883.37z M617.73,371.961
		c1.371,2.524,2.804,5.013,4.294,7.467c3.79,15.15,4.821,29.236,2.954,40.767c-0.587,3.63-1.472,7.738-3.579,10.673
		c-1.518,2.117-3.953,4.011-7.235,5.63c-10.208,5.036-22.748,4.263-31.202-1.921c-7.931-5.8-12.381-18.571-10.146-27.777
		c1.664-0.453,3.227-0.987,4.574-1.514c9.444-3.692,18.12-8.932,25.784-15.581C603.318,389.58,611.913,381.127,617.73,371.961z
		 M528.303,317.38c0.794-2.018,1.46-2.773,1.881-3.055c0.804-0.538,2.639-0.66,3.242-0.698c11.843-0.788,23.481,4.651,34.293,10.64
		l1.655,0.916c14.019,7.758,29.869,16.541,39.627,28.305c0.72,1.783,1.459,3.556,2.236,5.315
		c-0.663,4.337-10.92,17.858-15.746,22.044c-6.649,5.768-14.174,10.314-22.368,13.517c-2.842,1.111-6.946,2.456-9.74,1.32
		c-1.921-0.781-3.429-3.116-3.508-5.43c-0.085-2.493,1.287-5.226,3.495-6.963c2.113-1.661,2.824-4.547,1.727-7
		c-0.955-2.138-3.07-3.471-5.35-3.471c-0.337,0-0.677,0.029-1.018,0.089c-3.354,0.587-7.697-0.283-9.489-3.094
		c-0.637-0.996-0.718-2.616-0.198-3.94c0.152-0.389,0.587-1.317,1.327-1.51c2.727-0.713,4.562-3.267,4.366-6.079
		c-0.197-2.813-2.367-5.089-5.168-5.416c-7.871-0.921-15.291-5.716-19.364-12.513C526.129,333.56,525.401,324.756,528.303,317.38z
		 M450.146,1103.213c-11.681-3.3-37.77-18.047-42.08-23.757c1.187-5.21,6.497-22.294,8.552-26.347
		c1.339-0.73,3.429-0.934,5.359-0.481c2.274,0.534,4.598,1.83,7.318,4.08c11.472,9.485,20.581,29.271,25.096,45.819
		C452.986,1102.78,451.57,1103.009,450.146,1103.213z M463.841,1093.185c-5.287-16.369-14.159-33.788-25.39-44.007
		c-0.738-12.672,28.992-47.806,37.545-53.775c5.062-3.53,10.815-5.307,12.639-4.94c0.053,0.191,0.119,0.522,0.142,1.045
		c0.827,18.469-2.109,37.805-8.727,57.465c-0.671,1.996-1.476,4.672-2.411,7.789
		C475.012,1065.504,469.922,1082.444,463.841,1093.185z M510.801,1022.032c1.855-1.278,3.133-1.914,3.939-2.231
		c0.369,2.24,0.247,8.003-3.796,22.399c-6.966,24.8-18.878,42.914-35.417,53.969c5.218-10.024,9.427-23.005,13.339-36.038
		c0.892-2.968,1.656-5.519,2.295-7.42c1.581-4.697,2.935-9.378,4.122-14.042C497.364,1034.262,505.942,1025.379,510.801,1022.032z
		 M531.973,879.384c-1.941,4.692-4.012,10.974-2.797,17.97c0.844,4.855,3.335,9.348,6.832,12.713l-2.498,10.426
		c-6.532,27.482-20.193,65.244-32.921,75.567c-0.018-1.695-0.023-3.393-0.098-5.076c-0.31-6.933-4.167-9.85-6.439-10.971
		c-9.378-4.634-23.216,4.693-24.764,5.772c-3.752,2.619-23.36,21.898-34.591,40.909c-63.874-1.056-116.614-76.532-132.394-106.414
		c11.234,4.491,27.93,9.832,43.809,9.832c0.406,0,0.81-0.014,1.214-0.022c1.862,10.474,11.154,30.756,51.371,54.185
		c0.927,0.542,1.943,0.799,2.945,0.799c1.962-0.001,3.859-1.002,4.964-2.776c0.031-0.05,0.077-0.086,0.107-0.137
		c1.629-2.798,0.684-6.387-2.115-8.018c-8.46-4.928-15.34-9.637-20.976-14.062c-18.354-14.411-23.265-25.744-24.536-31.371
		c2.079-0.483,4.107-1.103,6.069-1.877c5.517-2.178,10.509-5.56,14.585-10.545c1.439-1.76,1.661-4.097,0.812-6.048
		c12.063,6.385,26.671,8.961,43.638,7.667c1.248,9.112,4.647,25.779,13.325,33.593c1.121,1.01,2.523,1.507,3.921,1.507
		c1.604,0,3.202-0.655,4.359-1.94c2.166-2.407,1.972-6.113-0.434-8.281c-6.1-5.492-9.445-22.366-10.122-31.713
		c-0.116-1.603-0.885-3.089-2.128-4.108c-1.242-1.021-2.851-1.489-4.444-1.289c-21.714,2.702-38.974-1.219-51.303-11.652
		c-18.933-16.017-20.277-42.534-20.289-42.799c-0.132-3.229-2.867-5.771-6.082-5.62c-3.236,0.124-5.758,2.847-5.634,6.082
		c0.049,1.289,1.475,31.782,24.332,51.205c1.622,1.379,3.313,2.656,5.062,3.85c-1.541,0.119-3.033,0.832-4.089,2.123
		c-2.817,3.443-6.463,5.779-10.626,7.279c-20.126,7.254-52.66-5.473-65.613-12.264c-0.165-0.086-0.338-0.134-0.507-0.204
		c-0.14-0.057-0.275-0.121-0.418-0.168c-0.381-0.124-0.765-0.208-1.153-0.251c-0.046-0.006-0.09-0.022-0.137-0.025
		c-0.444-0.039-0.886-0.014-1.321,0.047c-0.043,0.007-0.085-0.002-0.128,0.005c-17.66,2.864-29.085-12.905-34.799-23.907
		c2.16-0.008,4.535-0.256,7.087-0.881c11.734-2.866,22.472-12.396,31.917-28.328c1.651-2.785,0.732-6.38-2.053-8.031
		c-2.786-1.653-6.382-0.733-8.032,2.052c-18.523,31.246-34.979,22.422-35.828,21.937c-0.057-0.034-0.119-0.053-0.176-0.085
		c-0.056-0.031-0.102-0.073-0.159-0.103c-51.531-26.697-40.593-80.194-40.105-82.446c0.431-1.943-0.156-3.972-1.555-5.387
		c-10.351-10.469-18.244-22.779-24.175-36.199c4.497-25.715,31.82-37.18,44.277-41.113c1.677-0.53,3.097-0.929,4.142-1.201
		c8.857,5.114,45.629,27.327,58.843,50.819c11.413,20.288-7.714,41.069-13.777,46.904c-1.035,0.996-1.701,1.57-1.757,1.616
		c-2.479,2.077-2.809,5.771-0.734,8.253c1.16,1.388,2.825,2.103,4.502,2.103c1.326,0,2.659-0.448,3.756-1.364
		c0.453-0.379,0.918-0.784,1.389-1.205c12.67-11.301,30.857-37.139,16.839-62.059c-13.64-24.248-47.562-45.974-60.394-53.591
		c21.768-44.78-4.719-78.283-5.9-79.738c-0.205-0.252-0.437-0.467-0.672-0.677c-2.109-1.872-5.314-2.014-7.576-0.179
		c-2.513,2.04-2.896,5.733-0.855,8.247c0.069,0.085,1.963,2.487,4.207,6.744c5.79,10.988,13.888,34.412-0.928,62.788
		c-0.895,0.229-1.968,0.52-3.208,0.885c-4.926,1.451-12.305,4.033-20.062,8.218c-12.684-9.592-16.991-34.245-17.577-43.462
		c-0.103-1.641-0.869-3.078-2.021-4.072c-1.115-0.963-2.592-1.513-4.192-1.414c-3.231,0.2-5.69,2.981-5.489,6.213
		c0.07,1.132,1.32,19.361,9.043,35.18c2.535,5.194,5.772,10.116,9.893,14.1c-4.183,3.102-8.195,6.749-11.714,10.999
		c-2.429,2.932-4.615,6.158-6.457,9.697c-24.667-80.167,6.739-186.048,7.142-187.376c0.263-0.866,0.322-1.781,0.172-2.673
		c-7.592-45.27,31.965-127.703,32.364-128.531c0.203-0.419,0.356-0.862,0.455-1.317c3.57-16.524,8.29-29.937,13.408-40.832
		c5.65-12.027,11.787-20.979,17.42-27.512c10.716-12.426,19.592-16.207,19.75-16.271c2.219-0.861,3.697-2.977,3.741-5.356
		c0.367-19.854,5.757-37.12,13.969-51.983c28.074-50.819,89.121-73.572,95.227-75.74c18.345-2.389,47.027-2.261,51.541,5.605
		c4.051,7.06-12.702,26.945-26.354,38.585c-2.463,2.1-2.758,5.801-0.658,8.264c1.159,1.361,2.806,2.061,4.465,2.061
		c1.344,0,2.694-0.459,3.797-1.399c0.016-0.014,0.037-0.032,0.054-0.046c5.232-4.461,25.784-22.832,30.117-39.411
		c1.288-4.926,1.158-9.694-1.25-13.89c-6.66-11.605-28.435-13.343-45.044-12.839c17.64-13.801,48.39-35.053,71.781-36.192
		c9.089-0.437,15.886,3.152,20.773,10.988c4.833,7.746,12.002,32.184,18.581,65.92c-11.96-4.819-27.448-5.753-35.236-5.893
		c-2.231-0.04-3.841-0.017-4.54-0.001c-3.236,0.076-5.797,2.76-5.724,5.995c0.074,3.236,2.794,5.818,5.994,5.726
		c3.611-0.081,7.729,0.041,11.964,0.38c12.336,0.988,25.624,3.855,30.365,9.082c2.254,12.889,4.377,26.813,6.244,41.453
		c-6.395-2.58-15.094-5.171-25.465-6.757c-17.778-2.717-40.439-2.457-64.773,6.025c-3.057,1.066-4.672,4.408-3.607,7.466
		c1.066,3.057,4.411,4.672,7.466,3.607c24.768-8.634,46.946-7.964,63.074-4.897c12.508,2.378,21.36,6.188,24.947,8.24
		c0.813,7.222,1.556,14.58,2.217,22.044c-1.724,2.006-2.766,4.242-3.443,5.966c-4.005,10.183-3.183,22.216,2.004,31.853
		c0.427,7,0.418,11.928,0.399,17.557c-0.014,4.301-0.03,9.176,0.164,15.595c0.006,0.172,0.018,0.344,0.039,0.513
		c2.808,23.662,2.24,51.993-2.94,56.349c-4.145,2.304-27.386-1.665-54.354-13.132c-1.602-0.681-3.149-1.361-4.65-2.042
		c-21.714-9.824-32.842-19.286-34.248-24.575c-0.264-0.994-0.39-2.06-0.416-3.176c0-0.014,0.004-0.025,0.004-0.039
		c0-0.018-0.005-0.034-0.005-0.053c-0.258-14.391,18.145-38.052,30.839-50.533c2.308-2.269,2.342-5.98,0.073-8.29
		c-2.268-2.308-5.977-2.343-8.289-0.076c-3.499,3.435-29.891,30.006-33.842,53.161c-6.173,0.303-17.071,1.261-30.22,4.189
		c-18.247,4.064-40.786,11.927-60.946,27.173c-5.884,4.451-11.984,7.555-18.087,9.637c-7.335-7.084-5.025-17.259-2.167-24.023
		c1.671-3.954,3.524-6.743,3.735-7.056c1.818-2.671,1.131-6.311-1.538-8.137c-2.676-1.83-6.322-1.143-8.148,1.53
		c-1.921,2.81-3.933,6.522-5.521,10.718c-3.434,9.073-4.862,20.422,0.975,29.908c-15.232,2.036-29.509-1.131-39.377-4.464
		c-8.148-2.752-13.298-5.6-13.45-5.687c-2.811-1.601-6.386-0.624-7.991,2.185c-1.606,2.811-0.631,6.392,2.18,7.999
		c0.814,0.465,8.69,4.846,20.489,8.306c7.957,2.332,17.681,4.25,28.294,4.25c15.066,0,31.861-3.852,47.676-15.813
		c31.523-23.84,70.62-28.175,84.342-28.958c0.022,0.087,0.032,0.176,0.055,0.262c4.834,18.185,44.529,35.201,67.223,42.388
		c13.905,4.404,24.851,6.609,32.751,6.608c1.893,0,3.598-0.135,5.141-0.388c1.885,5.714,3.401,15.433,4.573,27.797
		c0.007,0.2,0.017,0.333,0.022,0.388c0.005,0.061,0.025,0.116,0.031,0.175c4.296,46.003,3.893,127.84,0.009,176.758
		c-0.049,0.613-0.097,1.231-0.147,1.833c-2.903,35.141,1.704,55.026,7.526,71.795c1.282,3.695,2.622,7.242,3.956,10.764
		c3.481,9.191,6.768,17.873,8.78,28.838c6.625,36.09,3.597,96.391-1.844,104.31C536.841,872.492,533.363,876.023,531.973,879.384z
		 M568.555,900.438c-2.405,1.238-5.292,2.071-8.888,2.942c-4.966,1.202-8.968,1.724-12.355,0.357
		c-3.81-1.537-6.053-5.322-6.585-8.391c-0.546-3.142,0.095-6.682,2.079-11.48c0.688-1.664,4.944-5.446,9.283-8.485
		c3.923,6.685,10.632,15.855,20.721,22.633C571.48,898.854,570.063,899.66,568.555,900.438z M558.858,862.872
		c-0.378-3.053,1.927-9.524,4.037-12.286c0.418-0.547,1.197-1.201,2.021-1.894c0.617-0.518,1.233-1.04,1.816-1.587
		c3.798-3.568,6.014-7.963,7.968-11.84c1.69-3.355,3.287-6.524,5.639-8.674c1.018-0.931,2.664-1.856,3.96-1.4
		c0.6,0.213,1.348,0.788,2.101,1.62c2.945,3.258,3.545,7.918,4.179,12.852c0.102,0.796,0.204,1.587,0.314,2.367
		c3.06,21.656,0.2,37.411-8.738,47.986C567.328,881.564,560.059,865.696,558.858,862.872z"/>
	<path fill=" #A855F7" d="M293.202,358.251c1.088,0.889,2.4,1.321,3.703,1.321c1.7,0,3.387-0.736,4.546-2.157
		c10.103-12.38,22.989-18.315,28.912-20.538c5.602,5.561,12.466,8.666,20.481,9.196c0.806,0.053,1.623,0.08,2.452,0.08
		c20.135-0.001,46.837-15.741,79.419-46.831c2.342-2.235,2.429-5.946,0.194-8.289c-2.236-2.343-5.945-2.43-8.289-0.194
		c-31.006,29.587-56.243,44.644-73.002,43.533c-6.077-0.401-10.958-2.995-14.921-7.929c-5.445-6.777-8.419-12.788-8.965-17.956
		c-0.142-1.347-0.158-2.651,0.036-3.879c0.277-1.751,0.902-3.402,1.781-4.977c3.477-6.24,11.104-11.258,18.542-16.139
		c9.844-6.46,21.796-14.348,18.807-26.008c-0.347-1.352-0.845-2.742-1.621-4.199c-10.467-19.648,8.143-44.001,8.332-44.244
		c1.988-2.551,1.535-6.229-1.012-8.221c-2.55-1.996-6.235-1.545-8.229,1.005c-0.966,1.237-23.508,30.566-9.44,56.972
		c1.183,2.221,0.684,4.175-2.654,7.189c-0.85,0.767-1.874,1.6-3.115,2.527c-1.963,1.469-4.431,3.161-7.501,5.177
		c-10.377,6.808-23.291,15.284-25.471,29.091c-1.204,7.621,1.027,15.687,6.678,24.469c-7.87,3.378-20.268,10.218-30.499,22.754
		c-0.534,0.654-0.894,1.39-1.104,2.154C290.667,354.325,291.347,356.737,293.202,358.251z"/>
	<path fill=" #A855F7" d="M960.632,350.831c-3.088,0.973-4.803,4.264-3.831,7.351c0.076,0.243,0.19,0.594,0.319,0.992
		c-12.969-9.577-27.582-19.597-44.961-22.598c-8.06-1.389-11.582,2.194-12.968,4.456c-1.383,2.258-2.971,7.028,1.934,13.602
		c3.599,4.824,7.9,9.219,12.666,12.973c-0.378,0.812-0.6,1.668-0.654,2.556c-0.275,4.455,2.157,7.858,4.305,10.324
		c7.39,8.486,16.198,14.131,25.472,16.323c1.195,0.282,2.416,0.409,3.648,0.431c3.046,10.106,12.185,17.54,23.369,18.245
		c2.956,4.505,7.412,7.878,12.553,9.502c1.526,0.481,3.167,0.735,4.802,0.735c4.622,0,9.198-2.036,10.999-6.737
		c0.329-0.86,0.441-1.906,0.399-3.066c3.075,1.443,6.423,2.719,10.221,3.985c0.394,0.132,0.8,0.22,1.213,0.266
		c0.157,0.018,0.608,0.06,1.263,0.06c2.123,0,6.392-0.442,9.745-3.611c2.028-1.916,4.379-5.482,4.057-11.597
		c-0.136-2.579,1.65-5.389,3.911-8.947c3.571-5.619,8.016-12.613,7.096-22.853c-0.501-5.568-3.532-19.288-11.541-26.056
		c1.777-8.489-1.316-17.17-4.055-23.354c-1.658-3.74-3.741-8.004-7.5-11.272c-2.671-2.322-5.828-3.717-8.992-4.104l-1.547-12.828
		c-0.294-2.44-0.843-6.984-4.359-10.084c-3.87-3.416-10.084-3.607-14.779-0.451c-3.481,2.343-5.442,5.753-6.902,8.779
		c-8.58,17.772-8.692,36.913-8.8,55.423c-0.009,1.549-0.024,3.116-0.038,4.679C966.455,351.328,963.473,349.939,960.632,350.831z
		 M1017.415,360.163c0.517-0.61,1.052-1.248,1.589-1.908c2.762,3.932,5.03,10.681,5.51,16.013
		c0.562,6.267-2.292,10.759-5.315,15.514c-2.839,4.468-6.057,9.531-5.724,15.852c0.081,1.549-0.207,2.269-0.392,2.45
		c-0.235,0.231-0.839,0.371-1.3,0.414c-8.557-2.891-14.197-5.517-20.162-12.151c-0.494-0.916-0.821-1.487-0.839-1.514
		c-0.495-0.71-1.122-1.262-1.817-1.672c-1.415-1.825-2.871-3.883-4.411-6.26c0.173,0.005,0.363,0.038,0.535,0.038
		c3.759,0,6.997-0.934,9.624-2.805c5.952-4.239,10.503-9.602,14.904-14.787L1017.415,360.163z M979.442,349.34
		c0.105-18.002,0.204-35.005,7.635-50.395c0.732-1.519,1.722-3.364,2.888-4.147c0.167-0.112,0.36-0.185,0.524-0.226
		c0.218,0.704,0.37,1.965,0.427,2.438l2.243,18.606c0.226,1.874,1.341,3.526,2.995,4.435c1.655,0.91,3.647,0.966,5.35,0.155
		c0.906-0.429,2.652,0.097,3.899,1.181c1.942,1.688,3.274,4.47,4.472,7.173c3.736,8.437,4.533,14.354,2.506,18.624
		c-0.848,1.79-2.335,3.542-3.907,5.393l-7.798,9.185c-3.935,4.639-8.006,9.434-12.766,12.826c-1.208,0.859-4.282,1.069-9.301-0.625
		C979.347,365.67,979.395,357.39,979.442,349.34z M970.743,386.801c4.106,6.956,7.763,12.31,11.383,16.503
		c1.373,2.742,3.438,7.542,4.407,10.627c-0.169-0.03-0.345-0.073-0.521-0.128c-2.543-0.804-4.838-2.544-6.295-4.777l-0.15-0.234
		c-0.679-1.058-1.816-2.831-3.989-3.952c-1.774-0.915-3.484-0.993-4.698-1.048c-6.097-0.302-10.952-3.986-12.825-9.199
		C962.851,392.488,967.298,389.477,970.743,386.801z M945.61,385.397c-8.683-2.052-15.302-7.99-19.327-12.613
		c-0.015-0.017-0.031-0.035-0.046-0.053c0.985-0.452,1.854-1.183,2.48-2.161c1.714-2.674,0.987-6.227-1.64-8.013
		c-0.124-0.082-0.247-0.161-0.372-0.234c-5.994-3.637-11.399-8.478-15.68-14.038c15.911,3.034,30.143,13.624,42.724,22.985
		l9.144,6.803C956.001,383.303,949.259,386.259,945.61,385.397z"/>
	<path fill=" #A855F7" d="M481.735,805.702c1.902-1.12,3.013-3.213,2.875-5.416c-0.137-2.202-1.5-4.142-3.526-5.016
		c-25.408-10.979-17.395-41.352-17.028-42.689c0.868-3.115-0.948-6.345-4.061-7.218c-3.118-0.877-6.355,0.939-7.23,4.058
		c-3.547,12.628-4.139,37.667,14.959,51.666c-8.362,6.392-19.806,17.485-18.283,29.471c1.269,9.988,10.329,17.269,27.7,22.257
		c0.54,0.156,1.084,0.23,1.62,0.23c2.549,0,4.894-1.675,5.632-4.246c0.894-3.112-0.905-6.359-4.017-7.254
		c-11.856-3.405-18.711-7.83-19.303-12.46C460.071,821.246,474.564,809.944,481.735,805.702z"/>
	<path fill=" #A855F7" d="M1045.048,544.839c-2.84-0.353-4.979-0.455-6.617-0.408c-5.197-4.76-12.756-6.97-19.444-6.289
		c-9.998,1.021-18.191,6.95-24.211,12.001c-10.483,8.793-20.378,19.058-30.862,32.094c0.267-1.799,0.537-3.593,0.808-5.377
		c0.593-3.91,1.186-7.819,1.722-11.731c0.441-3.207-1.802-6.165-5.011-6.606c-3.204-0.442-6.165,1.805-6.605,5.012
		c-0.53,3.857-1.114,7.711-1.699,11.566c-1.339,8.833-2.693,17.874-3.4,27.027c-0.033,0.221-0.042,0.444-0.05,0.666
		c-0.301,4.094-0.482,8.205-0.449,12.335c0.006,0.418,0.145,10.348,2.266,18.377c3.694,13.997,8.291,25.66,14.052,35.66
		c2.03,3.523,4.373,7.208,7.736,10.297c5.138,4.718,12.071,7.024,19.187,7.024c6.76,0,13.663-2.116,19.365-6.191
		c0.709,0.04,1.446,0.07,2.248,0.07c11.592,0,32.132-4.573,39.167-26.377c4.992-15.472-3.104-24.268-10.492-29.88
		c3.05-2.908,5.252-7.027,6.153-11.859c0.729-3.9,0.624-7.628,0.523-11.232c-0.034-1.224-0.07-2.449-0.066-3.672
		c0.013-4.59,0.725-7.683,2.242-9.734c0.882-1.19,2.28-2.331,3.759-3.539c1.627-1.327,3.472-2.831,5.079-4.761
		c5.062-6.078,6.256-14.995,2.974-22.191C1060.187,550.029,1052.833,545.127,1045.048,544.839z M1007.654,668.548
		c-7.134,7.349-19.735,8.434-26.437,2.281c-2.196-2.018-3.946-4.805-5.509-7.516c-5.236-9.088-9.448-19.817-12.875-32.798
		c-0.937-3.55-1.406-7.731-1.642-10.86c8.453,3.032,17.972,4.498,26.664,5.815c1.758,0.267,3.471,0.527,5.114,0.791
		c3.887,0.626,7.927,1.112,11.879,1.112c1.723,0,3.424-0.109,5.093-0.322c1.447,2.021,2.879,7.487,3.39,9.443l0.474,1.786
		C1016.914,649.615,1014.5,661.495,1007.654,668.548z M1015.996,611.897c-1.531,1.782-3.723,2.801-6.286,3.317
		c-0.045,0.011-0.092,0.017-0.137,0.029c-4.316,0.835-9.668,0.26-14.737-0.556c-1.68-0.271-3.428-0.536-5.224-0.808
		c-9.664-1.464-20.441-3.124-28.448-6.902c0.033-0.631,0.059-1.262,0.101-1.894c14.682-20.271,27.387-34.498,41.047-45.955
		c4.735-3.973,11.045-8.622,17.866-9.318c5.094-0.522,11.379,2.121,12.603,6.879c0.523,2.035,0.23,4.672-0.87,7.835
		c-3.09,8.875-10.167,16.198-18.931,19.588c-1.99,0.771-3.405,2.563-3.693,4.676c-0.289,2.116,0.595,4.221,2.308,5.494
		c3.316,2.469,5.75,6.7,6.202,10.777C1018.01,606.975,1017.87,609.718,1015.996,611.897z M1042.093,650.39
		c-3.696,11.456-12.42,15.811-19.702,17.393c4.774-9.417,5.871-21.124,2.723-32.605l-0.438-1.65
		c-0.615-2.354-1.349-5.148-2.408-7.853c1.562,0.804,3.354,1.487,5.268,1.967c1.323,1.013,2.707,1.991,4.182,2.998
		C1040.226,636.451,1045.281,640.513,1042.093,650.39z M1051.443,571.809c-0.886,1.063-2.148,2.091-3.483,3.181
		c-1.882,1.537-4.016,3.277-5.772,5.648c-4.045,5.468-4.53,12.137-4.542,16.677c-0.003,1.342,0.033,2.687,0.071,4.034
		c0.088,3.126,0.171,6.079-0.329,8.749c-0.593,3.176-2.211,5.733-4.042,6.485c-1.182,0.321-3.907-0.382-5.732-1.287
		c1.635-3.437,2.297-7.388,1.838-11.529c-0.485-4.382-2.19-8.753-4.758-12.494c8.413-5.316,15.006-13.462,18.291-22.897
		c1.503-4.32,2.037-8.209,1.645-11.811c3.392,0.129,6.719,2.336,8.128,5.425C1054.188,565.124,1053.646,569.162,1051.443,571.809z"
		/>
	<path fill=" #A855F7" d="M701.975,280.237c-3.116,0.882-4.926,4.121-4.045,7.237c4.774,16.867,11.404,33.359,19.615,49.014
		c0.124,0.3,0.279,0.577,0.448,0.846c1.186,2.242,2.402,4.468,3.653,6.672c0.108,0.236,0.242,0.459,0.382,0.682
		c6.454,11.296,13.741,22.092,21.781,32.188c1.158,1.453,2.865,2.211,4.589,2.211c1.28,0,2.569-0.418,3.648-1.278
		c2.066-1.644,2.698-4.395,1.776-6.729c7.319,4.534,14.962,8.544,22.852,11.976c4.953,2.153,10.248,4.072,15.824,4.072
		c1.215,0,2.442-0.092,3.684-0.291c8.723-1.4,16.475-8.241,20.229-17.853c0.52-1.331,0.932-2.673,1.3-4.019
		c13.225-3.717,31.938-18.643,33.805-30.286c3.378-21.061-4.011-34.092-10.805-41.317c-3.035-3.227-6.476-5.787-9.777-7.663
		c0.631-0.761,1.206-1.485,1.649-2.111c6.377-9.034,8.052-21.124,4.371-31.549l-0.188-0.526c-0.118-0.326-0.275-0.763-0.377-1.098
		c0.203-0.243,0.475-0.544,0.695-0.788c5.348-5.913,12.459-15.088,12.458-26.442c-0.001-6.529-3.16-13.237-8.244-17.503
		c-1.522-1.277-3.153-2.288-4.853-3.021c3.157-9.3,2.723-19.882-1.486-28.747c-0.812-1.708-2.035-3.861-4.302-5.363
		c-2.248-1.49-8.347-4.12-16.438,3.625c-19.473,18.64-38.263,43.049-51.977,67.215c0.137-4.515-0.009-9.04-0.519-13.551
		c-0.468-4.14-1.395-8.879-4.715-12.617c-5.787-6.516-15.333-6.292-21.773-2.703c-6.229,3.469-9.938,9.403-12.473,14.184
		c-9.111,17.177-13.017,39.143-11.774,65.543c-0.617-1.982-1.211-3.97-1.775-5.963C708.331,281.164,705.085,279.353,701.975,280.237
		z M805.49,364.718c-2.216,5.671-6.599,9.81-11.168,10.543c-3.749,0.6-7.892-0.749-12.972-2.959
		c-11.651-5.066-22.732-11.476-32.936-19.05c-2.809-2.085-7.166-5.49-11.168-9.262c2.181,0.212,4.344,0.354,6.461,0.353
		c4.94,0,9.686-0.576,14.142-1.734c13.155-3.421,24.013-12.129,29.043-23.297c1.553-3.448,2.485-7.071,2.861-10.704
		c5.69,1.407,11.738,5.78,14.208,10.852c3.644,7.483,3.96,16.363,3.974,25.568C807.949,352.07,807.773,358.875,805.49,364.718z
		 M834.41,304.073c5.532,7.464,7.392,17.137,5.531,28.748c-0.83,5.174-11.598,14.552-20.385,18.938
		c0.088-2.236,0.11-4.486,0.106-6.752c-0.017-10.2-0.429-20.97-5.158-30.68c-1.631-3.35-4.026-6.396-6.878-9
		c5.098-2.868,10.273-6.853,14.682-10.816C825.032,295.595,830.191,298.381,834.41,304.073z M822.327,180.646
		c0.85-0.814,1.558-1.328,2.071-1.637c3.72,7.894,3.117,17.749-1.544,25.129c-1.239,1.961-1.205,4.469,0.088,6.396
		c1.293,1.926,3.599,2.906,5.885,2.508c2.043-0.364,3.814,0.682,4.932,1.621c2.426,2.036,4.057,5.462,4.057,8.522
		c0.001,5.561-2.995,11.463-9.457,18.608c-1.161,1.282-2.915,3.222-3.552,6.062c-0.698,3.126,0.281,5.84,0.927,7.635l0.161,0.449
		c2.437,6.902,1.328,14.906-2.893,20.885c-1.396,1.979-3.468,4.269-5.881,6.593c-0.386,0.289-0.745,0.607-1.047,0.978
		c-7.187,6.689-16.794,13.339-20.939,13.347c-0.161,0.001-0.312,0.035-0.469,0.049c-1.908-0.606-3.841-1.005-5.763-1.214
		c-1.425-5.602-4.278-10.738-8.445-14.692c-0.282-0.268-0.571-0.532-0.862-0.797c-0.551-0.503-1.384-1.262-1.528-1.53
		c-0.096-0.34-0.021-1.426,0.029-2.144l0.03-0.42c0.531-7.98-0.882-14.614-4.199-19.723c-1.402-2.158-3.175-3.977-5.16-5.425
		C782.113,226.535,801.833,200.262,822.327,180.646z M733.12,230.196c1.779-3.356,4.277-7.46,7.822-9.435
		c2.568-1.43,5.912-1.317,7.3,0.248c1.147,1.289,1.569,3.831,1.83,6.147c0.985,8.698,0.594,17.457-1.161,26.034
		c-0.416,2.034,0.274,4.135,1.814,5.526c1.541,1.392,3.703,1.864,5.683,1.243c2.431-0.759,5.873,0.902,7.69,3.701
		c1.908,2.936,2.692,7.161,2.332,12.556l-0.026,0.384c-0.133,1.9-0.314,4.503,0.734,7.192c1.092,2.801,3.1,4.629,4.565,5.964
		l0.688,0.635c5.955,5.651,7.558,15.789,3.813,24.106c-3.586,7.961-11.55,14.227-21.302,16.762
		c-7.889,2.052-17.09,1.782-26.764-0.766C719.255,287.748,720.968,253.105,733.12,230.196z"/>
	<path fill=" #A855F7" d="M825.325,668.24c3.01-5.257,6.422-11.214,7.414-18.204c1.246-8.773-2.098-17.129-8.52-21.286
		c-7.747-5.018-17.85-3.584-30.026,4.263c-36.227,23.343-63.932,46.673-83.771,70.612c1.71-7.272,2.853-15.18,3.851-26.227
		c0.292-3.224-2.086-6.076-5.311-6.366c-3.232-0.293-6.076,2.086-6.366,5.311c-1.396,15.443-2.931,23.963-6.237,34.04
		c-0.833-2.929-1.758-5.863-2.721-8.808c-6.361-19.448-12.952-37.509-19.906-54.576c-2.987-7.332-6.048-14.47-9.181-21.463
		c-1.523-3.397-3.057-6.771-4.619-10.096c-3.828-8.146-8.014-16.584-13.66-24.191c1.069,0.545,2.178,1.044,3.375,1.422
		c2.313,0.731,4.611,1.049,6.889,1.049c6.791,0,13.397-2.84,19.637-6.086c2.567-1.335,5.158-2.739,7.726-4.233
		c2.893-1.683,5.757-3.482,8.514-5.463c-1.301,13.29-0.318,27.575,3.068,42.726c0.112,0.503,0.245,1.032,0.372,1.552
		c1.526,6.294,4.135,13.705,10.202,18.719c6.724,5.555,15.357,6.314,21.266,6.401c0.352,0.005,0.702,0.008,1.051,0.008
		c16.589-0.001,30.434-5.865,38.098-16.174c5.032-6.772,7.605-15.767,7.245-25.333c-0.281-7.428-2.257-15.33-6.041-24.156
		c-0.025-0.058-0.057-0.118-0.082-0.176c5.757,1.685,11.72,2.9,16.873,3.626c1.34,0.189,2.967,0.368,4.745,0.368
		c2.324,0,4.904-0.305,7.432-1.287c5.354-2.084,9.011-6.79,9.315-11.993c0.074-1.278-0.052-2.492-0.317-3.633
		c0.457-0.099,0.916-0.212,1.378-0.345c5.487-1.568,9.602-5.378,11.01-10.191c0.996-3.403,0.527-6.603-0.563-9.408
		c6.253-1.997,11.827-6.619,14.73-12.872c4.114-8.864,2.824-20.173-3.286-28.815c-5.154-7.284-13.43-12.66-23.306-15.135
		c-7.594-1.903-15.925-2.195-26.22-0.919c-14.351,1.779-26.631,5.904-36.5,12.263c-1.098,0.706-2.179,1.388-3.244,2.059
		c-3.199,2.018-6.333,4.002-9.356,6.301c2.353-14.187,3.654-28.64,2.03-43.309c-2.978-26.89-16.435-49.345-35.996-60.069
		c-2.493-1.367-5.563-2.777-9.124-2.705c-5.119,0.076-10.066,3.243-12.91,8.266c-2.187,3.865-2.852,8.064-3.306,11.699
		c-0.292,2.343-0.907,7.279,0.063,12.417c-5.421,0.518-10.452,2.929-13.374,8.075c-2.766,4.869-2.304,10.161-0.976,14.613
		c-6.096,1.738-11.637,6.267-14.679,12.592c-1.753,3.64-2.433,7.206-2.021,10.593c0.01,0.087,0.031,0.167,0.043,0.253
		c0.543,3.914,2.501,7.169,4.167,9.578c0.504,0.728,1.045,1.415,1.576,2.114c-4.372,0.613-8.473,1.84-11.343,3.463
		c-1.645,0.93-3.128,2.134-4.487,3.568c-2.826,2.983-5.064,7.052-6.748,12.355c-6.574,20.707-3.159,43.963,8.795,62.008
		c-8.625-6.037-18.321-9.026-27.676-8.358c-1.552,0.11-3.389,0.346-5.259,1.257c-2.66,1.294-4.326,3.435-5.604,5.359
		c-5.271,7.929-8.409,17.16-9.379,26.615c-0.829,8.083-0.078,16.331,2.342,24.078c-0.346,0.149-0.676,0.355-1.015,0.528
		c-1.163,0.594-2.3,1.288-3.367,2.163c-4.731,3.883-7.737,10.043-7.842,16.077c-0.121,6.869,2.605,12.957,5.828,17.893
		c-4.033,2.095-6.937,4.806-8.793,8.188c-4.617,8.415-1.977,18.979,7.432,29.745c0.362,0.414,0.734,0.827,1.116,1.239
		c-3.155,1.525-5.804,3.394-7.144,4.809c-4.127,4.356-5.516,10.111-6.203,14.062c-3.866,22.284,3.252,46.073,22.4,74.868
		c6.413,9.646,14.629,19.827,26.932,22.202c1.817,0.352,3.624,0.504,5.398,0.503c6.479,0,12.492-2.021,16.79-3.719
		c13.562-5.358,25.667-13.8,35.553-24.387c0.406,8.458,1.701,16.873,3.083,23.71c1.515,7.495,3.946,11.45,7.901,16.129
		c6.685,7.908,14.378,10.508,21.3,10.508c6.83,0,12.908-2.532,16.521-4.997c0.119-0.081,0.236-0.168,0.349-0.258
		c0.737-0.587,1.495-1.253,2.245-1.888c4.503-3.818,9.192-8.421,13.74-13.666c11.825-13.639,22.616-31.281,26.201-48.633
		c0.909-4.4,1.571-9.136,0.275-13.945c-0.23-0.852-0.527-1.668-0.871-2.455c6.207-1.59,12.13-4.075,17.608-7.824
		c0.684-0.468,1.323-0.948,1.933-1.435c1.59-1.268,2.944-2.594,4.062-3.974c2.103-2.595,3.384-5.379,3.767-8.344
		c0.3-2.308-0.102-4.729-1.071-6.918c7.171-4.088,13.134-10.381,16.593-17.835c2.643-5.699,3.099-12.412,1.189-17.519
		c-0.126-0.337-0.262-0.668-0.406-0.989C815.44,684.672,820.633,676.434,825.325,668.24z M745.886,515.141
		c1.097-0.69,2.21-1.392,3.341-2.121c8.376-5.397,19.005-8.923,31.593-10.484c8.81-1.092,15.781-0.884,21.926,0.657
		c7.159,1.794,13.049,5.535,16.585,10.532c3.67,5.19,4.564,12.066,2.224,17.108c-2.238,4.819-7.901,7.897-12.603,6.978
		l-13.866-7.568c-2.845-1.552-6.404-0.503-7.955,2.338c-1.552,2.842-0.505,6.403,2.337,7.956l13.771,7.515
		c2.709,3.147,3.909,5.408,3.531,6.705c-0.252,0.859-1.503,1.787-2.978,2.209c-1.841,0.528-4.113,0.497-6.401,0.381l-10.456-5.907
		c-2.818-1.592-6.395-0.598-7.988,2.221s-0.598,6.395,2.221,7.988l10.783,6.092c0.997,1.161,2.351,2.874,2.298,3.795
		c-0.026,0.437-0.745,1.313-1.859,1.747c-1.446,0.563-3.445,0.639-6.293,0.237c-9.674-1.361-22.043-4.602-28.541-8.841
		c-8.736-11.787-20.409-23.123-31.064-31.425C731.736,524.065,738.039,520.089,745.886,515.141z M756.893,586.302
		c3.207,7.48,4.877,14.015,5.102,19.979c0.26,6.905-1.494,13.259-4.939,17.893c-7.881,10.603-23.308,11.528-29.565,11.438
		c-6.582-0.097-11.021-1.279-13.971-3.716c-3.824-3.16-5.535-9.029-6.599-13.789c-4.42-19.782-4.481-37.817-0.245-53.662
		c5.091-5.961,10.61-13.303,14.761-20.225C735.134,555.326,750.705,571.872,756.893,586.302z M652.57,478.188
		c1.71-3.554,5.738-6.737,9.621-6.737c0.577,0,1.152,0.07,1.714,0.22c2.247,0.599,4.637-0.188,6.09-2.007
		c1.452-1.819,1.691-4.325,0.609-6.384c-2.089-3.976-4.287-8.883-2.749-11.591c1.552-2.731,7.246-2.754,11.59-1.068
		c2.735,1.064,5.825-0.057,7.247-2.618c1.423-2.559,0.739-5.777-1.604-7.535c-2.534-1.903-3.37-6.482-2.481-13.611
		c0.327-2.635,0.743-5.375,1.873-7.374c0.741-1.308,1.979-2.303,2.88-2.315c0.895-0.033,2.676,0.911,3.314,1.262
		c16.215,8.888,27.421,27.981,29.979,51.075c2.14,19.328-1.391,38.967-5.395,58.115c-14.803-5.62-30.448-13.985-42.916-23.03
		c-8.653-6.277-14.361-11.747-18.505-17.733c-0.935-1.352-2.032-3.094-2.212-4.576C651.488,481.17,651.815,479.755,652.57,478.188z
		 M634.367,518.576c1.555-4.897,3.461-7.928,5.828-9.266c0.853-0.482,1.939-0.881,3.115-1.224c4.453-1.3,10.592-1.574,13.957-0.432
		c2.946,2.524,5.785,4.681,8.19,6.426c2.639,1.915,5.447,3.782,8.32,5.622c11.574,7.413,24.739,14.098,37.368,18.894
		c-4.801,7.911-11.885,16.91-17.54,22.906c-0.244,0.259-0.512,0.498-0.762,0.751c-2.717,2.75-5.813,5.178-9.086,7.398
		c-4.156,2.819-8.604,5.295-12.996,7.579c-6.096,3.172-12.444,5.883-17.584,4.258c-2.825-0.892-5.606-3.179-8.755-7.197
		C632.428,558.984,628.482,537.112,634.367,518.576z M581.502,676.475c1.274-2.322,4.353-4.107,9.414-5.455
		c1.943-0.518,3.485-1.996,4.087-3.916c0.6-1.919,0.174-4.012-1.128-5.544c-5.519-6.497-8.051-11.771-7.966-16.6
		c0.046-2.61,1.476-5.511,3.558-7.218c0.924-0.758,2.367-1.6,3.997-1.304c1.949,0.355,3.886-0.341,5.235-1.746
		c0.15-0.156,0.326-0.278,0.459-0.452c1.337-1.74,1.589-4.083,0.654-6.069c-0.522-1.107-0.981-2.242-1.41-3.387
		c-5.242-14.014-3.489-30.513,4.811-43.002c0.656-0.987,0.94-1.271,0.902-1.277c0.068-0.023,0.303-0.081,1.028-0.133
		c8.885-0.63,18.855,3.808,26.666,11.881c7.661,7.919,12.85,18.261,17.508,28.172c1.915,4.077,3.792,8.226,5.649,12.418
		c2.693,6.08,5.334,12.27,7.919,18.615c6.844,16.8,13.336,34.59,19.607,53.759c3.408,10.421,6.36,20.588,5.394,30.196
		c-1.973,0.155-5.267,0.117-9.942-0.681c-22.215-3.792-60.067-17.189-81.398-33.554c-0.27-0.257-0.569-0.49-0.894-0.696
		c-3.148-2.482-5.906-5.028-8.17-7.618C585.324,690.396,578.516,681.918,581.502,676.475z M675.892,767.738
		c-0.241,0.317-0.453,0.658-0.627,1.027c-9.883,15.627-24.423,28.079-41.628,34.875c-6.534,2.581-11.51,3.409-15.656,2.608
		c-8.054-1.555-14.322-9.559-19.392-17.182c-17.382-26.14-23.931-47.23-20.611-66.371c0.678-3.898,1.682-6.442,3.163-8.005
		c1.492-1.574,6.563-3.826,8.694-3.938c23.323,17.62,62.298,31.467,86.138,35.537c2.553,0.435,5.899,0.875,9.252,0.93
		C682.986,754.472,679.812,761.352,675.892,767.738z M753.355,768.692c-3.144,15.214-13.265,31.634-24.46,44.305
		c-3.757,4.253-7.625,8.058-11.402,11.276c-0.652,0.557-1.308,1.132-1.953,1.65c-1.507,0.966-12.736,7.588-22.105-3.495
		c-3.068-3.63-4.339-5.819-5.362-10.885c-3.148-15.574-3.822-29.023-1.957-38.1c3.918-6.444,7.165-13.324,9.583-20.551
		c3.823,0.884,7.697,0.994,11.273,1.095c1.022,0.029,2.003,0.065,2.977,0.11c1.443,0.065,2.846,0.157,4.165,0.346
		c0.825,0.118,1.656,0.222,2.483,0.337c8.965,1.244,18.043,2.26,26.894,2.26c2.212,0,4.401-0.09,6.578-0.228
		c0.351,0.108,0.715,0.189,1.094,0.23c0.889,0.094,2.156,1.373,2.628,3.126C754.413,762.477,754.066,765.245,753.355,768.692z
		 M796.648,682.457c-2.307,0.749-3.915,2.84-4.045,5.263c-0.129,2.422,1.245,4.674,3.459,5.664c0.394,0.176,0.895,0.51,1.278,1.535
		c0.812,2.171,0.466,5.659-0.842,8.478c-3.522,7.589-10.728,13.472-18.862,15.422c-0.184,0.038-0.369,0.082-0.552,0.132
		c-3.086,0.822-4.947,3.963-4.184,7.065c0.733,2.977,3.621,4.866,6.611,4.39c0.259,0.3,0.515,0.85,0.473,1.173
		c-0.106,0.818-0.577,1.718-1.373,2.656c-0.807,0.953-1.947,1.944-3.385,2.928c-1.088,0.744-2.206,1.416-3.344,2.044
		c-12.565,6.926-28.107,6.949-44.658,5.11c-3.772-0.419-7.594-0.929-11.448-1.481c-0.029-0.005-0.057-0.005-0.086-0.009
		c-2.842-0.401-5.661-0.484-8.389-0.561c-2.999-0.085-5.893-0.166-8.44-0.684c17.74-33.766,51.016-66.067,101.681-98.714
		c5.468-3.523,12.902-7.126,17.303-4.279c2.943,1.905,3.765,6.414,3.285,9.797c-0.676,4.763-3.372,9.472-5.981,14.026
		C809.947,671.5,804.616,679.872,796.648,682.457z"/>
	<path fill=" #A855F7" d="M1062.068,433.731c-2.458-7.894-6.563-12.433-12.2-13.492c-4.38-0.819-8.213,0.887-10.719,2.243
		c-11.958,6.479-18.64,17.944-22.14,26.421c-0.229,0.556-0.459,1.08-0.69,1.576c-0.629-2.308-2.642-4.088-5.164-4.302
		c-3.228-0.271-6.062,2.119-6.337,5.346c-0.023,0.281-0.247,3.234-0.027,7.952c0.314,6.736,1.539,17.106,5.604,28.71
		c1.878,5.359,4.519,10.701,8.094,16.337c2.096,3.305,4.51,6.708,7.288,10.277c2.028,2.605,8.069,10.368,16.824,10.368
		c0.274,0,0.552-0.007,0.831-0.023c7.286-0.408,13.499-6.103,17.047-15.629c3.597-9.656,3.247-18.022-1.012-24.191
		c-1.968-2.852-5.543-5.093-9.906-7.06c7.434-4.34,14.691-10.568,16.02-16.981c0.634-3.066,0.49-6.011,0.238-8.737
		C1065.232,446.169,1063.969,439.838,1062.068,433.731z M1054.099,458.907c-0.896,4.329-16.132,13.281-20.484,13.579
		c-3.46,0.237-5.368,2.843-5.676,5.164c-0.656,4.951,3.54,6.398,7.598,7.798c8.355,2.883,13.163,5.087,14.28,6.538
		c2.644,3.829,0.931,10.063-0.326,13.436c-1.766,4.74-4.4,7.886-6.714,8.015c-2.013,0.135-4.641-1.85-7.747-5.84
		c-6.713-8.624-11.024-16.025-13.57-23.289c-1.448-4.135-2.488-8.107-3.231-11.758c0.846-4.195,2.219-6.281,4.223-9.323
		c1.671-2.537,3.565-5.411,5.397-9.85c3.922-9.499,9.919-16.81,16.886-20.585c2.019-1.095,2.781-1.061,2.971-1.028
		c0.541,0.101,1.897,1.372,3.168,5.453c1.658,5.324,2.758,10.845,3.271,16.406C1054.312,455.444,1054.423,457.344,1054.099,458.907z
		"/>
	<path fill=" #A855F7" d="M860.865,241.427c-2.464,7.035,0.129,13.179,2.738,17.258c-1.361,2.26-2.28,4.901-2.614,7.651
		c-0.485,3.976,0.222,7.509,0.924,10.511c0.883,3.777,3.23,13.811,12.013,16.156c0.581,0.156,1.181,0.243,1.882,0.243
		c1.579,0,3.687-0.45,7.253-1.582c-0.05,0.203-0.115,0.401-0.16,0.605c-1.564,7.053-0.24,14.608,3.538,20.21
		c4.162,6.168,10.35,8.921,14.805,10.143c1.285,0.353,3.039,0.756,4.989,0.756c0.791,0,1.616-0.066,2.453-0.229
		c3.837-0.748,7.14-3.229,10.1-7.588c4.05-5.965,6.676-11.691,7.934-17.481c4.9,4.154,10.518,6.742,16.601,7.558
		c5.021,0.672,9.239-0.26,12.527-2.774c2.306-1.763,3.862-4.098,4.961-5.934c2.594-4.335,5.579-11.084,5.073-18.614
		c-0.491-7.308-4.279-14.036-10.134-17.998c-0.566-0.384-1.151-0.731-1.747-1.06c4.528-3.145,6.331-4.819,7.243-6.426
		c4.109-7.241,1.502-15.069-0.815-20.327c-1.25-2.837-2.82-6.087-5.646-8.732c-1.799-1.683-3.901-2.885-6.117-3.547
		c-0.485-5.174-2.272-11.619-8.555-14.888c-7.208-3.749-15.734-0.575-20.611,3.958c-4.897,4.555-7.249,10.618-8.751,15.39
		c-1.245,3.956-2.14,11.469-2.742,18.392c-4.657-4.376-9.622-7.626-14.484-10.486c-4.04-2.377-9.519-5.006-16.1-4.243
		C870.072,229.203,863.263,234.581,860.865,241.427z M871.93,245.304c1.018-2.906,4.345-5.018,6.845-5.308
		c2.464-0.291,5.097,0.522,8.8,2.7c8.35,4.914,14.995,9.971,20.287,18.682c1.34,2.205,3.968,3.277,6.464,2.635
		c2.5-0.64,4.288-2.839,4.404-5.416c0.409-9.114,1.641-25.426,3.204-30.39c1.135-3.608,2.683-7.656,5.551-10.324
		c2.166-2.014,5.537-3.016,7.215-2.144c2.253,1.173,2.45,6.183,2.401,9.85c-0.023,1.793,0.774,3.497,2.165,4.628
		c1.391,1.13,3.223,1.56,4.973,1.173c0.726-0.167,1.752,0.215,2.531,0.944c1.21,1.134,2.111,3.041,2.93,4.901
		c1.972,4.471,2.453,7.418,1.53,9.451c-1.918,1.802-9.535,6.711-12.476,8.607c-1.651,1.064-2.939,1.9-3.513,2.306
		c-0.085,0.061-0.149,0.136-0.229,0.2c-0.166,0.131-0.325,0.267-0.475,0.414c-0.133,0.131-0.256,0.266-0.374,0.405
		c-0.123,0.147-0.238,0.295-0.346,0.452c-0.108,0.158-0.207,0.318-0.299,0.484c-0.091,0.165-0.173,0.332-0.248,0.505
		c-0.074,0.172-0.139,0.344-0.196,0.521c-0.059,0.182-0.109,0.366-0.15,0.555c-0.04,0.184-0.07,0.368-0.092,0.555
		c-0.022,0.184-0.036,0.369-0.04,0.556c-0.005,0.208,0.005,0.415,0.023,0.624c0.009,0.103-0.003,0.203,0.011,0.307
		c0.01,0.074,0.039,0.14,0.052,0.213c0.036,0.206,0.089,0.406,0.147,0.609c0.052,0.182,0.106,0.361,0.175,0.535
		c0.066,0.166,0.145,0.325,0.227,0.487c0.1,0.197,0.204,0.388,0.325,0.571c0.038,0.057,0.061,0.121,0.101,0.179
		c0.056,0.078,0.128,0.137,0.187,0.213c0.139,0.177,0.283,0.346,0.44,0.505c0.12,0.121,0.244,0.235,0.373,0.344
		c0.159,0.135,0.321,0.26,0.493,0.378c0.143,0.096,0.287,0.187,0.437,0.269c0.182,0.103,0.368,0.194,0.56,0.275
		c0.152,0.065,0.304,0.123,0.46,0.174c0.202,0.066,0.406,0.121,0.615,0.166c0.166,0.035,0.331,0.062,0.5,0.082
		c0.198,0.024,0.396,0.04,0.599,0.044c0.201,0.005,0.4-0.006,0.601-0.023c0.106-0.009,0.208,0.003,0.314-0.013
		c2.663-0.366,6.514-0.344,9.743,1.841c2.842,1.924,4.761,5.4,5.008,9.073c0.236,3.515-0.985,7.708-3.437,11.808
		c-0.298,0.499-1.206,2.015-2.023,2.64c-0.27,0.206-1.089,0.837-3.843,0.467c-10.431-1.399-16.534-10.999-19.245-16.596
		c-1.315-2.716-4.477-3.993-7.31-2.944c-2.831,1.047-4.405,4.073-3.635,6.992c2.595,9.853,0.971,17.821-5.605,27.505
		c-1.636,2.41-2.544,2.647-2.64,2.667c-0.163,0.031-0.688,0.063-2.097-0.324c-2.547-0.698-6.036-2.202-8.189-5.395
		c-1.955-2.897-2.666-7.26-1.81-11.113c0.997-4.499,3.711-7.699,5.812-9.592c0.087-0.078,0.149-0.172,0.23-0.253
		c0.146-0.148,0.288-0.297,0.417-0.459c0.12-0.15,0.225-0.306,0.328-0.464c0.101-0.156,0.197-0.311,0.283-0.476
		c0.091-0.175,0.169-0.352,0.241-0.534c0.068-0.171,0.131-0.34,0.183-0.516c0.054-0.182,0.095-0.365,0.131-0.552
		c0.036-0.186,0.066-0.371,0.084-0.562c0.018-0.189,0.021-0.377,0.02-0.567c-0.001-0.186-0.005-0.37-0.024-0.556
		c-0.021-0.21-0.06-0.413-0.103-0.621c-0.023-0.111-0.025-0.222-0.055-0.333c-0.017-0.061-0.048-0.113-0.067-0.174
		c-0.061-0.2-0.142-0.393-0.225-0.586c-0.074-0.172-0.145-0.344-0.233-0.505c-0.086-0.156-0.188-0.303-0.289-0.453
		c-0.122-0.181-0.244-0.358-0.384-0.523c-0.039-0.046-0.065-0.098-0.105-0.143c-0.074-0.082-0.163-0.142-0.24-0.219
		c-0.155-0.153-0.311-0.302-0.482-0.437c-0.142-0.112-0.288-0.212-0.438-0.309c-0.165-0.108-0.331-0.211-0.506-0.301
		c-0.164-0.085-0.331-0.158-0.501-0.227c-0.182-0.073-0.363-0.14-0.551-0.195c-0.171-0.05-0.342-0.088-0.517-0.122
		c-0.197-0.039-0.392-0.07-0.594-0.088c-0.181-0.016-0.36-0.019-0.542-0.019c-0.192,0.001-0.382,0.006-0.575,0.025
		c-0.207,0.021-0.411,0.06-0.615,0.103c-0.111,0.023-0.222,0.025-0.333,0.056c-0.915,0.247-2.453,0.804-5.318,1.846
		c-3.164,1.15-10.147,3.692-12.968,4.335c-0.755-0.605-1.943-2.33-3.084-7.206c-0.514-2.202-0.955-4.35-0.702-6.425
		c0.208-1.722,1.041-3.46,2.022-4.226c1.239-0.969,2.038-2.394,2.216-3.957c0.179-1.563-0.279-3.132-1.27-4.355
		C872.009,250.791,870.982,248.011,871.93,245.304z"/>
	<path fill=" #A855F7" d="M264.951,506.216c-0.014,0.008-0.046,0.029-0.057,0.036c-0.051,0.031-0.091,0.077-0.141,0.11
		c-0.283,0.187-0.552,0.392-0.799,0.624c-0.027,0.025-0.06,0.042-0.086,0.068c-7.414,7.261-15.514,10.543-23.389,11.485
		c-20.64,2.469-39.732-11.212-40.836-12.021c-2.605-1.917-6.27-1.359-8.19,1.245c-1.921,2.606-1.366,6.276,1.24,8.197
		c9.09,6.703,25.368,14.492,42.76,14.492c0.041,0,0.082-0.002,0.123-0.002c8.976-0.018,18.244-2.124,26.97-7.521
		c0.407,4.371,1.148,9.797,2.452,16.057c2.903,13.933,8.617,31.985,19.824,51.751c5.761,10.16,11.824,19.132,18.006,27.101
		c-22.083,6.195-34.189,28.253-38.555,36.219c-0.483,0.879-0.836,1.548-1.083,1.925c-1.863,2.623-1.264,6.261,1.349,8.147
		c1.037,0.75,2.237,1.111,3.427,1.111c1.818,0,3.611-0.844,4.758-2.431c0.512-0.709,1.008-1.615,1.831-3.116
		c4.063-7.412,16.095-29.337,36.783-31.578c19.417,22.02,39.185,35.174,53.85,44.925c2.383,1.584,4.625,3.074,6.702,4.497
		c9.152,6.269,17.379,40.006,22.917,73.403c-17.667,0.65-31.62,9.858-40.638,26.958c-7.379,13.99-8.735,28.342-8.79,28.946
		c-0.289,3.221,2.086,6.063,5.307,6.357c0.181,0.016,0.361,0.024,0.538,0.024c2.994,0,5.55-2.287,5.833-5.326
		c0.177-1.908,4.622-44.953,39.587-45.246c1.608,10.848,2.904,21.309,3.819,30.379c0.305,3.022,2.852,5.275,5.826,5.275
		c0.196,0,0.395-0.01,0.595-0.031c3.221-0.324,5.569-3.199,5.244-6.42c-1.825-18.111-12.026-109.208-33.613-123.992
		c-2.117-1.45-4.405-2.971-6.835-4.587c-20.613-13.706-51.764-34.419-76.658-78.323c-14.469-25.517-19.108-48.159-20.568-61.327
		c-0.43-3.878-0.587-6.93-0.635-8.992c2.488-1.389,6.516-3.528,11.51-5.818c16.302-7.476,42.863-16.494,59.62-5.776
		c2.726,1.745,6.353,0.948,8.098-1.779c1.745-2.727,0.948-6.353-1.779-8.098c-13.769-8.808-31.506-7.718-47.327-3.57
		c-20.173,5.288-37.202,15.528-38.943,16.595C264.982,506.196,264.967,506.206,264.951,506.216z"/>
	<path fill=" #A855F7" d="M909.486,387.039c-2.086-4.308-6.729-7.189-12.118-7.514c-1.598-0.097-3.141,0.022-4.608,0.256
		c-0.986-4.39-2.228-10.099-2.544-11.593c-1.689-7.968-5.667-13.737-11.201-16.243c-3.576-1.618-9.473-2.632-17.268,1.742
		c-9.287,5.212-17.877,35.434-20.458,68.545c-0.302-0.555-0.594-1.089-0.903-1.656c-1.548-2.843-5.106-3.894-7.953-2.345
		c-2.843,1.549-3.893,5.109-2.345,7.952c0.68,1.249,1.34,2.461,1.995,3.658c-14.466-5.615-34.31-12.55-43.579-12.317
		c-7.116,0.183-12.848,3.834-15.332,9.764c-2.604,6.219-1.02,13.506,4.134,19.019c3.038,3.251,6.767,5.401,10.682,7.055
		c-0.09,0.985-0.048,1.999,0.144,3.017c0.732,3.874,3.231,6.619,5.048,8.351c4.94,4.699,11.061,7.993,17.702,9.524l0.461,0.105
		c0.345,0.077,0.814,0.183,1.143,0.277c0.102,0.218,0.228,0.506,0.358,0.804c2.765,6.315,5.963,10.647,10.065,13.631
		c1.383,1.008,2.849,1.762,4.373,2.284c3.502,8.575,14.576,18.988,22.106,24.535c6.011,4.428,14.402,9.396,21.791,9.395
		c0.834,0,1.656-0.063,2.46-0.198c12.504-2.094,10.711-20.26,9.401-33.524c-0.118-1.191-0.252-2.549-0.363-3.836
		c16.602,1.594,44.137,2.393,51.316-8.638c7.835-12.039-9.548-32.644-20.768-43.997c2.23-2.975,4.274-6.095,6.05-9.382
		c3.293-5.008,6.81-15.133-0.076-22.728c-2.407-2.655-5.797-4.412-9.521-4.982C910.875,394.721,911.393,390.978,909.486,387.039z
		 M833.836,480.243c-1.593,0.44-2.795,0.245-4.026-0.65c-2.35-1.711-4.328-4.525-6.289-9c-0.556-1.276-1.32-3.023-2.928-4.557
		c-2.212-2.11-4.896-2.715-6.673-3.115l-0.402-0.092c-4.599-1.06-8.836-3.34-12.254-6.593c-0.6-0.571-0.977-1.004-1.214-1.321
		c1.413-1.06,2.306-2.733,2.342-4.577c0.049-2.582-1.596-4.892-4.052-5.689c-4.943-1.604-9.616-3.297-12.469-6.349
		c-2.342-2.504-2.508-4.99-1.884-6.482c0.669-1.596,2.38-2.509,4.821-2.573c0.093-0.002,0.187-0.003,0.285-0.003
		c8.876,0,35.569,9.953,52.285,17.006c3.153,5.232,6.439,10.208,10.245,15.278C847.502,469.085,839.83,478.585,833.836,480.243z
		 M871.27,513.565c-2.561,0.086-7.979-1.998-14.927-7.116c-7.736-5.698-13.373-11.92-16.267-16.082
		c7.843-3.579,14.808-11.911,19.399-19.144c3.295,3.795,7.009,7.768,11.263,12.03c-0.053,2.264,0.215,5.224,0.633,9.461
		C871.857,497.631,873.12,510.419,871.27,513.565z M924.167,472.692c-2.586,3.976-23.492,5.292-44.499,2.912
		c-3.997-3.979-7.479-7.668-10.574-11.184c13.688-3.411,26.339-10.581,36.381-20.446
		C917.872,456.814,925.973,469.917,924.167,472.692z M910.512,410.856c2.508,2.768-1.095,8.502-1.112,8.528
		c-0.118,0.172-0.226,0.35-0.324,0.536c-2.215,4.138-4.902,7.987-7.938,11.531c-0.018,0.018-0.04,0.031-0.058,0.05
		c-0.058,0.061-0.097,0.132-0.152,0.195c-10.252,11.85-24.644,20.012-40.191,22.453c-3.105-4.162-5.857-8.291-8.509-12.623
		c0.081-41.052,10.697-74.091,15.257-77.614c1.942-1.09,4.679-2.196,6.692-1.287c1.99,0.902,3.698,3.891,4.568,7.992
		c4.194,19.841,4.194,19.841,6.733,21.33c1.411,0.827,3.099,1.028,4.661,0.559c2.272-0.685,4.647-1.387,6.519-1.278
		c1.254,0.077,2.133,0.631,2.274,0.922c0.423,0.871-0.939,3.455-2.032,5.529c-1.167,2.215-2.489,4.723-3.174,7.522
		c-0.622,2.542,0.516,5.188,2.789,6.484c2.275,1.298,5.131,0.93,7.002-0.898c0.853-0.834,2.265-1.308,3.686-1.262
		C908.558,409.566,909.794,410.063,910.512,410.856z"/>
	<path fill=" #A855F7" d="M828.154,112.714c1.735,0.127,3.318-0.52,4.467-1.625c1.011-0.972,1.69-2.296,1.797-3.806
		c0.57-8.002,3.254-15.901,8.703-25.617c1.43-2.551,3.239-5.345,5.808-6.723c1.935-1.037,4.71-1.035,5.943,0.009
		c2.615,2.218,0.034,6.245,0.435,8.847c0.677,4.391,2.785,4.918,6.347,7.357c4.702,3.219,4.492,11.425-0.369,14.399
		c-2.115,1.294-4.67,1.61-6.992,2.48c-2.322,0.87-4.643,2.676-4.766,5.153c-0.198,3.966,4.726,5.73,7.884,8.138
		c5.243,3.996,5.979,12.673,1.484,17.495c-1.189,1.277-2.798,2.326-4.542,2.258c-1.73-0.068-3.22-1.201-4.503-2.364
		c-4.19-3.799-7.577-8.481-9.872-13.652c-1.042-2.347-1.893-4.845-3.566-6.792c-0.978-1.139-2.343-2.034-3.781-2.397
		c-1.023-0.259-2.08-0.258-3.066,0.15c-1.009,0.418-1.792,1.194-2.34,2.137c-0.583,1.003-0.899,2.195-0.914,3.357
		c-0.013,1.036,0.179,2.05,0.469,3.044c0.34,1.169,0.82,2.311,1.339,3.413c1.873,3.982,4.138,7.776,6.717,11.344
		c0.308,0.426,0.601,0.861,0.918,1.28c4.039,5.329,9.179,10.281,15.671,11.888c11.685,2.89,21.024-8.844,22.211-19.456
		c0.538-4.811,0.481-11.039-4.779-16.53c-0.426-0.444-0.82-0.886-1.195-1.317c1.675-0.773,3.745-1.74,5.496-3.642
		c5.679-6.166,3.552-14.864,2.75-18.139c-0.657-2.684-1.531-5.789-3.593-8.675c-1.277-1.786-2.885-3.254-4.676-4.319
		c0.308-4.468-0.344-10.303-5.193-14.407c-4.948-4.185-12.782-4.756-19.059-1.39c-5.253,2.819-8.367,7.53-10.492,11.32
		c-3.904,6.961-6.63,13.357-8.295,19.537c-1,3.715-1.618,7.349-1.877,10.982C822.493,109.679,824.925,112.484,828.154,112.714z"/>
	<path fill=" #A855F7" d="M650.555,186.491c0.036,0.019,0.076,0.025,0.112,0.044c14.802,8.993,33.043,11.445,48.44,11.445
		c7.161-0.001,13.707-0.526,18.996-1.16c6.527-0.783,13.438-1.889,19.762-4.659c7.776-3.404,13.371-8.836,15.756-15.298
		c2.009-5.449,1.593-10.85,0.055-15.885c5.388-4.519,9.714-11.478,9.276-18.643c-1.064-17.43-15.987-33.007-34.711-36.233
		c-5.907-1.019-13.081-0.726-20.019-0.444c-3.095,0.126-6.24,0.253-9.192,0.256c0.43-2.144,0.443-4.31-0.029-6.41
		c-1.247-5.531-5.51-10.178-12.672-13.815c-1.365-0.693-2.772-1.334-4.178-1.973c-2.906-1.318-5.65-2.565-7.687-4.219
		c-3.128-2.542-5.241-6.56-7.477-10.815c-3.5-6.656-7.468-14.201-16.35-17.409c-6.317-2.281-13.969-1.452-19.968,2.163
		c-4.033,2.431-7.315,6.079-9.424,10.364c-0.851-0.069-1.705-0.115-2.563-0.127c-4.546-0.066-8.224,0.725-11.257,2.41
		c-6.433,3.575-9.569,10.672-9.319,21.094c0.415,17.337,4.63,34.483,12.131,50.35c-4.1-4.063-6.708-6.763-6.801-6.859
		c-2.244-2.331-5.956-2.405-8.29-0.158c-2.332,2.245-2.403,5.956-0.158,8.289C596.435,140.299,630.627,175.707,650.555,186.491z
		 M691.887,117.294c5.203,0.505,11.068,0.311,16.813,0.078c6.327-0.259,12.871-0.524,17.549,0.282
		c13.289,2.292,24.27,13.445,25.001,25.395c0.119,1.945-1.035,4.428-2.828,6.623c-0.302-0.504-0.605-0.998-0.907-1.484
		c-4.187-6.726-9.656-14.054-18.461-17.416c-5.125-1.956-25.715-3.982-38.313-4.162c0.275-2.922,0.063-5.647-0.582-8.148
		C690.708,118.147,691.284,117.764,691.887,117.294z M724.871,141.726c5.543,2.115,9.374,7.334,12.689,12.658
		c5.148,8.268,6.709,13.949,5.06,18.419c-1.253,3.393-4.699,6.534-9.457,8.616c-4.656,2.038-9.947,2.976-16.458,3.757
		c-14.865,1.784-40.643,2.725-59.235-8.192c12.885-10.374,23.073-23.324,29.684-37.806c0.137-0.299,0.269-0.597,0.398-0.893
		C697.396,138.072,721.23,140.335,724.871,141.726z M636.722,63.476c3.001-1.808,6.899-2.273,9.933-1.176
		c4.381,1.582,6.637,5.528,9.954,11.837c2.564,4.874,5.469,10.399,10.461,14.457c3.21,2.608,6.781,4.23,10.234,5.797
		c1.25,0.568,2.503,1.135,3.717,1.751c3.734,1.896,6.119,4.06,6.542,5.936c0.325,1.445-0.452,3.421-2.028,5.158
		c-0.715,0.788-0.999,0.992-1.823,1.347c-3.078-2.395-6.628-3.678-9.796-4.806c-0.966-0.345-1.932-0.687-2.872-1.063
		c-6.164-2.466-11.421-6.682-14.804-11.871c-0.953-1.46-1.802-3.056-2.701-4.745c-1.205-2.264-2.452-4.603-4.092-6.903
		c-3.958-5.544-9.685-9.875-16.227-12.54C634.195,65.386,635.372,64.29,636.722,63.476z M609.829,86.895
		c-0.207-8.622,2.426-10.084,3.291-10.564c1.122-0.624,2.823-0.939,5.058-0.939c0.112,0,0.227,0,0.342,0.002
		c8.471,0.118,16.864,4.285,21.381,10.612c1.195,1.676,2.211,3.584,3.286,5.603c0.98,1.841,1.994,3.744,3.229,5.64
		c4.69,7.19,11.888,12.997,20.271,16.35c1.077,0.432,2.185,0.828,3.293,1.223c2.701,0.962,5.253,1.871,6.828,3.24
		c3.354,2.914,2.501,8.35,1.166,12.452c-0.094,0.228-0.173,0.463-0.237,0.702c-0.427,1.218-0.88,2.287-1.248,3.092
		c-6.229,13.644-16.079,25.779-28.608,35.291C624.393,147.466,610.56,117.477,609.829,86.895z"/>
	<path fill=" #A855F7" d="M678.663,1037.889c-7.595-0.682-15.01,2.189-21.261,5.092c-8.054,3.741-14.829,7.242-21.333,11.59
		c1.845-7.238,2.842-14.628,3.101-22.598c0.194-5.952-0.19-13.524-4.912-19.3c-5.304-6.49-15.324-8.549-23.819-4.896
		c-8.378,3.601-12.946,11.061-15.893,18.102c-4.763,0.597-8.819,2.976-10.657,4.214c-4.153,2.797-7.322,6.391-9.968,9.541
		c-5.84,6.951-11.532,15.187-9.475,23.552c0.695,2.826,2.2,5.102,3.879,6.95c1.01,1.113,2.083,2.07,3.08,2.9
		c8.25,6.862,27.695,16.89,40.01,19.723c4.845,4.415,12.577,10.213,20.544,14.734c5.067,2.876,10.229,5.24,14.805,6.391
		c2.289,0.576,4.869,1.098,7.655,1.097c1.54,0,3.142-0.159,4.792-0.558c9.053-2.182,15.126-10.383,19.407-17.284
		c2.16-3.481,4.552-7.577,5.619-12.134c0.827-3.527,0.72-6.934-0.234-9.866c6.276-5.624,11.711-12.348,11.569-20.564
		C695.42,1045.778,688.308,1038.759,678.663,1037.889z M672.811,1069.26c-1.317,1.067-2.107,2.65-2.169,4.343
		c-0.061,1.694,0.613,3.33,1.848,4.489c0.437,0.41,0.845,2.039,0.33,4.239c-0.663,2.832-2.422,5.813-4.167,8.627
		c-2.858,4.608-7.231,10.871-12.191,12.068c-2.152,0.519-4.56,0.06-6.839-0.513c-8.956-2.251-23.702-12.021-31.334-19.379
		c-0.832-0.803-1.884-1.342-3.022-1.548c-0.448-0.081-0.935-0.197-1.42-0.31c-7.785-1.818-20.029-7.58-28.461-12.76
		c-2.604-1.6-4.861-3.144-6.484-4.494c-1.274-1.06-2.774-2.431-3.071-3.634c-0.417-1.695,0.472-5.361,7.067-13.213
		c2.229-2.655,4.649-5.41,7.539-7.357c2.469-1.663,4.847-2.345,6.327-2.345c0.251,0,0.476,0.02,0.671,0.057
		c2.841,0.551,5.658-1.053,6.633-3.776c2.308-6.433,5.239-12.728,10.999-15.206c4.098-1.76,8.358-0.598,10.111,1.547
		c2.255,2.757,2.399,7.593,2.272,11.497c-0.458,14.107-3.361,25.685-9.705,38.721c-1.248,2.565-0.469,5.656,1.846,7.324
		c2.312,1.664,5.492,1.427,7.531-0.573c11.616-11.39,20.975-16.832,35.218-23.448c4.555-2.115,10.401-4.493,15.269-4.048
		c2.985,0.269,6.187,2.188,6.239,5.211C683.933,1059.622,677.993,1065.062,672.811,1069.26z"/>
	<path fill=" #A855F7" d="M853.485,631.762c4.763,6.471,11.851,9.23,16.956,10.405c1.437,0.332,3.189,0.66,5.108,0.66
		c0.969,0,1.981-0.084,3.015-0.293c4.156-0.84,7.809-3.474,11.163-8.052c4.392-5.991,7.063-13.666,8.047-21.878
		c5.229,4.345,11.156,7.154,17.477,8.169c1.284,0.205,2.513,0.308,3.689,0.308c3.631,0,6.748-0.979,9.297-2.927
		c2.382-1.819,3.945-4.256,5.04-6.174c2.567-4.493,5.466-11.505,4.701-19.39c-0.728-7.518-4.776-14.517-10.83-18.721
		c-0.095-0.066-0.198-0.119-0.294-0.183c0.185-0.12,0.378-0.23,0.562-0.352c2.86-1.897,6.06-4.311,8.099-7.836
		c4.896-8.46,0.248-17.887-1.501-21.436c-1.459-2.959-3.276-6.346-6.397-9.089c-2.1-1.847-4.561-3.138-7.12-3.798
		c-0.634-5.421-2.685-12.309-9.617-15.796c-7.747-3.894-16.815-0.791-21.963,3.741c-5.342,4.699-7.787,11.061-9.321,16.079
		c-1.108,3.623-1.766,7.34-2.117,11.071c-0.784-0.069-1.594,0.014-2.387,0.283c-2.622,0.887-4.187,3.45-3.942,6.09
		c-3.507-3.097-7.075-5.876-10.273-7.641c-4.492-2.48-10.549-5.237-17.678-4.555c-8.108,0.779-15.54,6.311-18.074,13.455
		c-2.651,7.476,0.483,14.016,3.546,18.333c-1.49,2.377-2.469,5.171-2.784,8.1c-0.452,4.221,0.443,7.974,1.319,11.161
		c1.075,3.915,3.933,14.316,13.396,16.764c1.391,0.36,2.789,0.504,4.164,0.504c1.803,0,3.562-0.251,5.219-0.586
		c-0.173,0.555-0.352,1.11-0.492,1.673C847.578,617.574,849.07,625.765,853.485,631.762z M923.095,606.163
		c-0.781,1.368-1.446,2.267-1.979,2.674c-0.717,0.55-2.067,0.669-4.006,0.357c-7.735-1.241-14.807-6.72-20.011-15.409
		c-0.506-2.67-1.19-5.305-2.048-7.879c0.372-0.065,0.738-0.13,1.07-0.192l0.459-0.084c5.45-0.985,10.806-2.524,15.933-4.553
		c2.466,0.053,5.346,0.614,7.948,2.421c3.213,2.231,5.453,6.148,5.848,10.222C926.672,597.479,925.532,601.898,923.095,606.163z
		 M890.808,538.626c1.15-3.757,2.742-7.967,5.853-10.705c1.853-1.629,4.401-2.571,6.555-2.571c0.891,0,1.715,0.161,2.393,0.503
		c2.326,1.169,3.361,4.437,3.465,10.925c0.027,1.731,0.819,3.362,2.162,4.454c1.344,1.092,3.101,1.537,4.801,1.211
		c1.14-0.22,2.681,0.318,3.836,1.333c1.51,1.328,2.619,3.431,3.624,5.47c2.471,5.014,3.065,8.312,1.87,10.379
		c-0.831,1.435-2.805,2.858-4.43,3.935c-3.435,2.276-7.137,4.235-11.002,5.884c-0.441,0.032-0.878,0.047-1.324,0.097
		c-1.424,0.161-2.652,0.839-3.567,1.803c-3.432,1.176-6.966,2.1-10.549,2.747l-0.496,0.09c-0.61,0.112-1.775,0.323-2.831,0.443
		c-0.129-0.369-0.272-0.731-0.442-1.08C889.19,562.72,887.469,549.547,890.808,538.626z M884.535,591.497
		c3.679,12.722,2.24,27.179-4.266,36.054c-1.903,2.596-3.242,3.331-4.032,3.491c-0.99,0.202-2.627-0.176-3.166-0.3
		c-3.174-0.731-7.51-2.353-10.145-5.931c-2.336-3.174-3.124-7.825-2.054-12.136c1.186-4.778,4.229-8.315,6.754-10.557
		c5.068-2.417,9.977-5.363,14.585-8.779C882.97,592.777,883.753,592.155,884.535,591.497z M849.095,596.368
		c-1.84,0.445-4.138,0.909-5.557,0.54c-1.945-0.504-3.589-3.29-5.026-8.519c-0.644-2.34-1.201-4.621-0.966-6.804
		c0.196-1.83,1.095-3.617,2.237-4.446c1.339-0.972,2.204-2.463,2.384-4.107c0.18-1.644-0.344-3.289-1.442-4.525
		c-4.23-4.774-5.549-7.869-4.549-10.685c1.115-3.147,5.097-5.411,8.145-5.705c0.358-0.034,0.715-0.05,1.071-0.05
		c3.514,0,6.913,1.596,9.82,3.199c0,0,0,0,0,0.001c7.699,4.248,20.018,17.687,24.823,23.319c-0.058,0.286-0.195,0.708-0.461,1.152
		c-0.914,1.524-2.627,2.911-4.342,4.182C867.199,589.871,858.161,594.176,849.095,596.368z"/>
	<path fill=" #A855F7" d="M1020.731,704.267c-20.958-3.204-31-1.612-47.637,1.025c-5.097,0.808-10.665,1.687-17.331,2.568
		c4.685-9.859,6.936-20.256,6.175-30.396c-0.545-7.266-2.598-12.747-6.277-16.753c-5.06-5.508-13.171-7.922-21.717-6.459
		c-6.562,1.126-50.057,22.139-81.756,43.646c4.786-6.563,9.453-11.719,12.849-15.449c3.36-3.687,5.045-5.537,5.843-7.589
		c1.174-3.017-0.322-6.414-3.339-7.589c-2.905-1.129-6.168,0.215-7.453,3.017c-0.487,0.718-2.201,2.598-3.719,4.266
		c-6.835,7.505-20.015,21.997-28.678,43.267c-0.14,0.292-0.253,0.592-0.343,0.9c-3.668,9.22-6.493,19.663-7.572,31.373
		c-1.305,14.17,0.957,24.34,3.577,36.118c0.561,2.525,1.146,5.155,1.726,7.955l0.459,2.245c1.903,9.369,4.06,19.988,10.565,28.31
		c6.089,7.791,15.037,10.894,23.844,10.894c4.877,0,9.712-0.951,13.995-2.585c5.804-2.216,11.818-8.008,16.068-14.676
		c3.021,8.122,9.297,14.582,22.831,16.677c2.56,0.396,5.251,0.618,7.979,0.618c11.054,0,22.666-3.641,28.272-14.018
		c3.601-6.668,2.675-15.437,0.203-23.029c1.098,0.108,2.213,0.181,3.352,0.181c2.95,0,6.009-0.417,9.025-1.544
		c5.164-1.927,9.891-6.452,11.64-12.002c3.877,0.321,7.965,0.355,12.078-0.495c7.948-1.647,14.228-6.492,16.798-12.963
		c1.491-3.753,1.498-8.152,0.065-12.045c15.574-6.314,31.455-23.604,33.53-26.44c4.394-6.005,5.857-15.564,0.153-22.217
		C1031.852,706.314,1025.946,705.064,1020.731,704.267z M869.762,822.075c-7.99,3.05-18.643,2.819-24.42-4.573
		c-4.803-6.144-6.587-14.929-8.313-23.423l-0.467-2.288c-0.592-2.859-1.19-5.547-1.763-8.125
		c-2.504-11.26-4.483-20.155-3.347-32.496c0.508-5.51,1.469-10.669,2.705-15.558c4.519,8.884,9.401,18.514,10.108,20.035
		c7.225,15.547,16.809,29.78,28.485,42.302c3.384,3.63,6.84,6.428,10.274,8.45C880.639,812.801,874.624,820.22,869.762,822.075z
		 M897.99,797.702c-4.634,2.501-11.646-2.366-16.665-7.747c-10.833-11.619-19.724-24.824-26.429-39.25
		c-1.116-2.401-10.48-20.792-14.693-29.054c28.077-24.856,90.281-54.467,95.724-55.843c4.458-0.763,8.816,0.348,11.098,2.835
		c1.801,1.96,2.884,5.224,3.22,9.698c1.868,24.868-17.671,45.932-34.973,56.416c-1.767,1.072-5.056,3.066-6.132,7.031
		c-0.911,3.373,0.317,6.33,1.135,8.299c1.894,4.592,2.329,9.043,1.226,12.536c-1.071,3.389-4.02,6.087-6.861,6.275
		c-1.791,0.119-3.428,1.049-4.444,2.528c-1.017,1.477-1.301,3.339-0.771,5.054C900.697,780.59,904.351,794.271,897.99,797.702z
		 M938.775,816.059c-4.088,7.569-15.15,8.778-24.141,7.387c-9.439-1.461-13.299-4.724-14.891-13.918
		c1.305-0.35,2.581-0.842,3.812-1.506c7.842-4.229,11.03-12.929,9.363-24.94c7.695,5.458,15.033,9.451,22.165,12.061
		C938.861,801.9,941.214,811.544,938.775,816.059z M1026.321,726.373c-3.871,5.291-24.189,24.453-34.813,23.936
		c-2.955-0.13-5.535,1.937-6.045,4.844c-0.51,2.906,1.219,5.737,4.036,6.611c0.826,0.256,1.337,1.108,1.569,1.593
		c0.614,1.284,0.701,2.892,0.223,4.097c-1.077,2.71-4.326,4.991-8.277,5.809c-4.431,0.916-9.459,0.282-14.322-0.332
		c-1.888-0.243-3.777,0.456-5.062,1.862c-1.285,1.406-1.806,3.349-1.398,5.21c0.479,2.185-1.742,5.166-4.66,6.254
		c-3.183,1.189-7.224,1.057-13.1-0.425c-7.957-2.007-16.333-6.231-25.437-12.781c1.572-2.011,2.837-4.329,3.647-6.897
		c2.474-7.833,0.513-15.492-1.569-20.541c-0.001-0.003-0.092-0.221-0.093-0.224c-0.041-0.097-0.087-0.207-0.133-0.321
		c0.18-0.113,0.348-0.215,0.463-0.285c10.872-6.587,19.926-14.931,26.742-24.175c11.239-1.27,19.852-2.628,26.839-3.736
		c16.039-2.543,24.875-3.941,44.028-1.014c3.135,0.48,6.603,1.136,8.077,2.855C1028.466,720.38,1028.138,723.888,1026.321,726.373z"
		/>
	<path fill=" #A855F7" d="M576.718,237.007c-0.009,0.066-0.029,0.127-0.035,0.195c-0.404,4.343-0.082,19.592,1.071,29.512
		c0.325,2.789,0.711,5.181,1.17,6.763c2.615,9.009,9.449,15.669,17.411,16.969c0.911,0.149,1.828,0.222,2.74,0.222
		c9.55,0,18.83-7.88,20.685-18.158c1.32-7.317-0.777-15.309-5.668-22.193c3.103-0.348,5.824-1.279,8.205-2.8
		c3.507-2.239,6.293-5.812,8.517-10.925c4.064-9.341,8.472-34.209-1.453-39.977c-7.528-4.377-25.112,7.028-37.089,16.068l1.11-7.274
		c0.489-3.2-1.711-6.191-4.911-6.679c-3.205-0.493-6.192,1.711-6.679,4.911l-1.854,12.156l-3.213,21.063
		C576.718,236.91,576.724,236.958,576.718,237.007z M588.35,238.4l0.684-4.485l0.653-4.28c10.256-9.326,27.04-19.966,33.548-22.045
		c1.026,4.731,0.109,16.784-3.173,24.327c-1.264,2.904-2.596,4.775-4.074,5.718c-2.03,1.296-5.252,1.47-9.845,0.536
		c-2.936-0.598-5.752,0.68-7.17,3.256c-2.419,4.395,0.617,10.131,3.101,12.718c4.719,4.91,7.074,11.149,6.147,16.284
		c-0.908,5.031-5.747,9.137-9.996,8.446c-3.985-0.65-6.961-4.949-8.04-8.667c-0.822-2.832-1.469-10.959-1.777-18.474
		C588.176,246.123,588.135,240.866,588.35,238.4z"/>
</g>
</svg>
