<svg class="h-12 inline-block" xmlns="http://www.w3.org/2000/svg" viewBox="0 0 350 240"><defs><linearGradient id="b" x1="0" x2="1" y1="0" y2="0" gradientTransform="matrix(870.829 -648.982 -648.982 -870.829 1062.31 2048.82)" gradientUnits="userSpaceOnUse" spreadMethod="pad"><stop offset="0" stop-color="#8c9bd6"></stop><stop offset="1" stop-color="#505e9b"></stop></linearGradient><linearGradient id="d" x1="0" x2="1" y1="0" y2="0" gradientTransform="matrix(878.069 -654.378 -654.378 -878.069 1631.85 2795.24)" gradientUnits="userSpaceOnUse" spreadMethod="pad"><stop offset="0" stop-color="#808fd0"></stop><stop offset="1" stop-color="#505e9b"></stop></linearGradient><linearGradient id="f" x1="0" x2="1" y1="0" y2="0" gradientTransform="matrix(867.01 -646.136 -646.136 -867.01 668.276 1535.96)" gradientUnits="userSpaceOnUse" spreadMethod="pad"><stop offset="0" stop-color="#8c9bd6"></stop><stop offset="1" stop-color="#505e9b"></stop></linearGradient><linearGradient id="h" x1="0" x2="1" y1="0" y2="0" gradientTransform="matrix(867.001 -646.13 -646.13 -867.001 994.502 1953.79)" gradientUnits="userSpaceOnUse" spreadMethod="pad"><stop offset="0" stop-color="#8c9bd6"></stop><stop offset="1" stop-color="#505e9b"></stop></linearGradient><linearGradient id="j" x1="0" x2="1" y1="0" y2="0" gradientTransform="matrix(841.599 -627.199 -627.199 -841.599 1039.39 2029.86)" gradientUnits="userSpaceOnUse" spreadMethod="pad"><stop offset="0" stop-color="#808fd0"></stop><stop offset="1" stop-color="#505e9b"></stop></linearGradient><linearGradient id="l" x1="0" x2="1" y1="0" y2="0" gradientTransform="matrix(875.231 -652.263 -652.263 -875.231 894.629 1822.24)" gradientUnits="userSpaceOnUse" spreadMethod="pad"><stop offset="0" stop-color="#8c9bd6"></stop><stop offset="1" stop-color="#505e9b"></stop></linearGradient><linearGradient id="n" x1="0" x2="1" y1="0" y2="0" gradientTransform="matrix(579.497 -844.587 -844.587 -579.497 -304.165 2038.99)" gradientUnits="userSpaceOnUse" spreadMethod="pad"><stop offset="0" stop-color="#fafafd"></stop><stop offset="1" stop-color="#8892d2"></stop></linearGradient><linearGradient id="p" x1="0" x2="1" y1="0" y2="0" gradientTransform="matrix(675.246 -984.137 -984.137 -675.246 649.966 2737.72)" gradientUnits="userSpaceOnUse" spreadMethod="pad"><stop offset="0" stop-color="#fafafd"></stop><stop offset="1" stop-color="#8892d2"></stop></linearGradient><linearGradient id="r" x1="0" x2="1" y1="0" y2="0" gradientTransform="matrix(866.559 -645.8 -645.8 -866.559 654.526 1514.45)" gradientUnits="userSpaceOnUse" spreadMethod="pad"><stop offset="0" stop-color="#8c9bd6"></stop><stop offset="1" stop-color="#505e9b"></stop></linearGradient><linearGradient id="t" x1="0" x2="1" y1="0" y2="0" gradientTransform="matrix(869.571 -648.045 -648.045 -869.571 1046.59 2028.58)" gradientUnits="userSpaceOnUse" spreadMethod="pad"><stop offset="0" stop-color="#8c9bd6"></stop><stop offset="1" stop-color="#505e9b"></stop></linearGradient><linearGradient id="v" x1="0" x2="1" y1="0" y2="0" gradientTransform="matrix(868.236 -647.05 -647.05 -868.236 1098.5 2096.02)" gradientUnits="userSpaceOnUse" spreadMethod="pad"><stop offset="0" stop-color="#8c9bd6"></stop><stop offset="1" stop-color="#505e9b"></stop></linearGradient><linearGradient id="x" x1="0" x2="1" y1="0" y2="0" gradientTransform="matrix(690.106 -1005.8 -1005.8 -690.106 633.604 2727.32)" gradientUnits="userSpaceOnUse" spreadMethod="pad"><stop offset="0" stop-color="#fafafd"></stop><stop offset="1" stop-color="#8892d2"></stop></linearGradient><clipPath id="a" clipPathUnits="userSpaceOnUse"><path d="M366.672 2445.95s127.719 141.37 216.176 199.96c28.183 18.65 237.797 128.95 372.402-250.67 73.64-207.85 74.87-362.68-92.516-428.71-100.234-39.55-64.41-113.59-64.41-113.59"></path></clipPath><clipPath id="c" clipPathUnits="userSpaceOnUse"><path d="M2084.18 2364.09h268.24c22.51 0 40.74-14.93 40.74-33.29 0-18.37-18.23-33.27-40.74-33.27h-210.54z"></path></clipPath><clipPath id="e" clipPathUnits="userSpaceOnUse"><path d="M1150.12 1702.08v-535.82c0-132.12-131.1-179.471-292.784-179.471-161.711 0-292.746 47.351-292.746 179.471v542.14"></path></clipPath><clipPath id="g" clipPathUnits="userSpaceOnUse"><path d="M2045.81 1695.54v-535.81c0-132.14-131.09-179.468-292.78-179.468-161.7 0-292.79 47.328-292.79 179.468v542.13"></path></clipPath><clipPath id="i" clipPathUnits="userSpaceOnUse"><path d="M903.801 2433.88c114.029-185.4 101.879-342.02-50.055-424.12-90.965-49.18-40.887-114.04-40.887-114.04"></path></clipPath><clipPath id="k" clipPathUnits="userSpaceOnUse"><path d="M1569.91 2565.32s-189.32 2.23-881.043-20.69c-691.68341-22.91-666.1561-270.94-667.2303-627.14v-856.76c0-72.468 62.793-101.699 140.2733-101.699 77.469 0 140.356 29.231 140.356 101.699 0 0 17.863 244.81 33.285 393.73 34.5 541.01 687.579-88.96 1162.329-59.56 431.41 26.74 771.15 175.65 771.15 529.54 0 353.97-222.65 640.88-699.12 640.88z"></path></clipPath><clipPath id="m" clipPathUnits="userSpaceOnUse"><path d="M40.5078 1894c.7383-80.46-10.5781-783.24 33.8086-825.44-13.9453 31.12 16.5625 711.97 16.1719 754.76l-.4102 25.04v35.37c-17.1093 6.32-33.7148 14.09-49.7461 22.98z"></path></clipPath><clipPath id="o" clipPathUnits="userSpaceOnUse"><path d="M1569.65 2541.75s-185.21 2.18-862.005-20.24c-676.7661-22.42-666.3794-271.78-666.3794-607.02l.1406-12.4c15.6641-8.89 31.8985-16.66 48.5586-22.99.1563 317.27 13.6482 550.06 666.4062 571.68 676.769 22.42 862.039 20.24 862.039 20.24 258.82 0 437-87.38 547.94-223.71-102.14 176.42-295.52 294.44-596.7 294.44z"></path></clipPath><clipPath id="q" clipPathUnits="userSpaceOnUse"><path d="M1333.93 1456.26v-381.58c0-132.121-131.13-179.571-292.82-179.571-161.696 0-292.755 47.45-292.755 179.571v580.79"></path></clipPath><clipPath id="s" clipPathUnits="userSpaceOnUse"><path d="M2229.92 1718.48V1089.6c0-132.112-131.12-179.53-292.81-179.53-161.71 0-292.75 47.418-292.75 179.53v361.33"></path></clipPath><clipPath id="u" clipPathUnits="userSpaceOnUse"><path d="M571.879 2500.55s171.527 117.93 279.867 158.35c34.531 12.89 283.674 78.71 324.064-351.49 22.08-235.55-17.68-398.24-210.83-427.71-115.589-17.66-97.691-103.81-97.691-103.81"></path></clipPath><clipPath id="w" clipPathUnits="userSpaceOnUse"><path d="M747.344 2531.75c194.211 121.45 302.026 59.35 302.026 59.35-84.444 77.21-179.436 51.62-200.444 43.74-107.969-40.42-316.485-189.8-316.485-189.8s-28.195-50.01 27.989-39.16c0 0 122.211 85.38 186.914 125.87z"></path></clipPath></defs><g clip-path="url(#a)" transform="matrix(.13282 0 0 -.13174 8.1e-7 355.17885836)"><path fill="url(#b)" d="M366.672 2445.95s127.719 141.37 216.176 199.96c28.183 18.65 237.797 128.95 372.402-250.67 73.64-207.85 74.87-362.68-92.516-428.71-100.234-39.55-64.41-113.59-64.41-113.59"></path></g><path fill="#363254" d="M75.79148534 4.3271819C63.87312815 12.15673424 47.23418066 30.36244923 46.5322029 31.1318381c-1.0402832 1.14484971-.91835014 2.88519597.27972877 3.88118142 1.19489012.99466143 3.01086975.88004406 4.05261336-.26612968.16921897-.1857592 16.86727211-18.4560255 28.18008226-25.88507905.33883641-.22659657 8.59163101-5.52270971 18.6427399-2.33582303 10.56991807 3.35289413 19.72659223 15.10577942 26.47261806 33.98338936 10.739413 30.05741824 7.55441009 45.92599605-10.65306367 53.0441302-5.25268464 2.06048444-8.71091123 5.037898-10.27519076 8.86769921-2.06449394 5.0510691.10997884 9.61336427.2038892 9.80835213.6641267 1.368818 2.35139524 1.9498095 3.78443735 1.32270426 1.43676784-.62051475 2.07445579-2.2449196 1.43410803-3.62428041-.01085842-.02638176-1.23898526-2.7323695-.0419394-5.56749942.98423085-2.33977535 3.36205488-4.26719495 7.06932774-5.71374525 27.4676117-10.75163336 21.86374193-37.66827866 13.91431458-59.9198585-7.45624601-20.85903803-17.58160057-33.4458734-30.09767178-37.4192724-12.51155351-3.96944669-22.60051743 2.2962998-23.70668133 3.01957495"></path><g clip-path="url(#c)" transform="matrix(.13282 0 0 -.13174 8.1e-7 355.17885836)"><path fill="url(#d)" d="M2084.18 2364.09h268.24c22.51 0 40.74-14.93 40.74-33.29 0-18.37-18.23-33.27-40.74-33.27h-210.54l-57.7 66.56"></path></g><path fill="#363254" d="M312.45941517 46.47211875c1.49561249 0 2.5356297.86424465 2.5356297 1.63757597 0 .77202706-1.04001721 1.63626182-2.5356297 1.63626182h-26.62204981c-.57246772-.6508093-1.42918688-1.64021414-2.85838371-3.27383779h29.48043352zm-41.77468221-5.49636747l12.46691745 14.2678869h29.30776476c4.5704971 0 8.28427504-3.2000578 8.28427504-7.13394346 0-3.93518992-3.71377794-7.13394344-8.28427504-7.13394344h-41.77468221"></path><path fill="#8b9dd7" d="M323.48519152 33.5295743c4.8985807-2.3147374 10.62331759-1.74824103 12.8003107 1.26342928 2.1663738 3.01957496-.04512718 7.33155961-4.94240287 9.65552568-4.88927632 2.3121091-17.70685091 5.1090398-19.87986925 2.08551252-2.1756682-3.01167031 7.13136017-10.69103437 12.02196142-13.00446749"></path><path fill="#363254" d="M324.75499875 35.9931957c3.8001173-1.79435475 7.9721304-1.28845738 9.16224283.3622897.33073344.46242183.40776843.99335717.23509967 1.62835718-.306825 1.14617374-1.54341941 2.79824486-4.08700864 4.00370344-4.72325212 2.23174849-13.1111304 3.54128163-15.70253651 2.9089099.95633766-2.13030222 6.20291568-6.91919396 10.39220265-8.90326022zm-2.5422643-4.92591879c-4.09631301 1.93268607-12.42708001 8.094358-13.74469416 12.96494426l.63223882 4.06166426c3.93559847 5.48319636 19.81346356.57045858 23.51527732-1.1830588 3.68721965-1.74561272 6.27464101-4.4964297 7.10080718-7.54762324.59107645-2.17509193.21252612-4.35018386-1.0665755-6.12741517-3.00050944-4.15784404-10.21554916-5.1090398-16.43705366-2.1685113"></path><path fill="#8b9dd7" d="M332.1878643 51.32293352c5.25188768 1.73902222 8.17668705 5.7664396 6.55622268 8.99944002-1.63506844 3.23695273-7.20706028 4.438459-12.45496323 2.6941703-5.23993347-1.7350699-15.7795715-8.27747901-14.15247255-11.5065271 1.63374352-3.24354323 14.81127963-1.92610545 20.0512131-.18708322"></path><path fill="#363254" d="M333.13224774 48.72889532h-.00498093zm-1.88610708 5.18940042h.00298856c2.82118615.93933878 4.36594046 2.50050646 4.8666928 3.65194667.38120018.88005394.12352695 1.39648425.03586267 1.56512-.86336372 1.7153083-4.8680277 2.6296091-8.92050856 1.28450506-4.63159314-1.53218727-10.85841727-5.8494384-12.03125583-7.83614284 2.17300837-.72195112 10.9792844-.34780444 16.0465491 1.3345711zm-21.69691082-3.60056647l.00298855 3.98789415c2.02291318 4.66110324 11.35783473 9.83997072 15.79816032 11.3115491 6.67842471 2.21989152 13.7021969.41894627 15.98013345-4.09329272.4848134-.97358566.72655762-2.01831315.72655762-3.07753578 0-.99862363-.21252612-2.0077802-.64021826-2.99586101-1.2870711-2.95766181-4.30750424-5.4041499-8.2895847-6.72158769-3.97278606-1.3213901-20.57587389-4.37522182-23.57770824 1.58883395"></path><path fill="#8b9dd7" d="M332.95559424 41.35912663c7.7928171-.0500957 14.14050837 2.73500768 14.16973644 6.22754728.03855236 3.49121557-6.2427631 6.36060224-14.0395749 6.4106683-7.78086288.0526647-25.41466354-2.6520089-25.4505262-6.14059617-.03586267-3.49648204 17.5381669-6.4396487 25.32036466-6.49761941"></path><path fill="#363254" d="M344.25233294 47.61302602c0 .13305497-.12486184.39259415-.4741841.73249395-1.4079482 1.37409434-5.36612023 2.86807253-10.70965694 2.9023194-6.68240945.04476007-17.25259053-1.75350748-21.31968543-3.42271192 4.03786683-1.73111758 14.55625624-3.67170829 21.22936133-3.716498h-.00298856c7.379739-.04871238 11.27017044 2.58086708 11.276815 3.50439657zm-11.31401255-9.00471637h-.00398474c-5.66098105.04080774-22.47260029 2.01832303-26.7854142 6.21042384l-1.38536469 3.0656788c.0796948 8.08118689 28.06054105 8.86374689 28.34345761 8.86374689 6.27064631-.04347556 11.93163733-1.78381193 14.77143222-4.54648587 1.40793825-1.36882787 2.13980553-2.97083293 2.12120676-4.64266566-.04383215-5.24473294-7.2203494-9.011297-17.06133296-8.950698"></path><g clip-path="url(#e)" transform="matrix(.13282 0 0 -.13174 8.1e-7 355.17885836)"><path fill="url(#f)" d="M1150.12 1702.08v-535.82c0-132.12-131.1-179.471-292.784-179.471-161.711 0-292.746 47.351-292.746 179.471v542.14"></path></g><path fill="#363254" d="M72.11861773 130.10723084v71.42374741c0 17.0226562 14.8254912 26.39388138 41.75675287 26.39388138 26.93073767 0 41.761941-9.37122518 41.761941-26.39388138V130.9398569c0-1.51901615-1.28707111-2.75081697-2.87299775-2.75081697-1.58725155 0-2.87299774 1.23180082-2.87299774 2.75081697v70.59112136c0 17.27165256-19.58247813 20.89461883-36.01594551 20.89461883-16.42722032 0-36.00996044-3.62296627-36.00996044-20.89461883v-71.42374741c0-1.51637798-1.28786806-2.7481788-2.87392718-2.7481788-1.58566165 0-2.87286525 1.23180082-2.87286525 2.7481788"></path><path fill="#8b9dd7" d="M92.03395117 201.44666532c0 7.04171598-4.11543976 12.76600406-9.19438972 12.76600406-5.07948093 0-9.19611611-5.72428808-9.19611611-12.76600406 0-7.05489698 4.11663518-22.98275964 9.19611611-22.98275964 5.07894996 0 9.19438972 15.92786266 9.19438972 22.98275964"></path><path fill="#363254" d="M74.60230634 201.44666532c0-7.67145941 4.36143073-22.06714468 8.23725511-22.06714468 3.87422949 0 8.23712162 14.39568527 8.23712162 22.06714468 0 6.53714264-3.6930573 11.85169337-8.23712162 11.85169337-4.54101002 0-8.2372551-5.31455073-8.2372551-11.85169337zm-1.91758951 0c0 7.54498506 4.55389368 13.68557135 10.15484462 13.68557135 5.59882508 0 10.15072739-6.14058629 10.15072739-13.68557135 0-6.89153758-4.04398042-23.90233681-10.15072739-23.90233681-6.10528656 0-10.15484462 17.01079923-10.15484462 23.9023368"></path><path fill="#a6bde6" d="M76.12049239 202.7193134c0-6.7835107 4.97680812-18.99618952 8.60969583-18.99618952.34813281 0 .68909409.17258808 1.01743669.43475556-.90798982-2.15006384-1.94827202-3.57290021-3.05031869-3.57290021-3.63554454 0-6.57681383 15.35346164-6.57681383 22.13433417"></path><path fill="#8b9dd7" d="M96.37054402 208.228852c0 5.44102507-3.27187025 9.85314184-7.31106897 9.85314184-4.0429175 0-7.31943594-4.41211677-7.31943594-9.85314184 0-5.45684425 3.27651845-17.74593135 7.31943594-17.74593135 4.03919872 0 7.31106897 12.2890871 7.31106897 17.74593135"></path><path fill="#363254" d="M82.69730622 208.228852c0-5.70320244 3.43644002-16.82767821 6.36216883-16.82767821 2.92626076 0 6.35220697 11.12447577 6.35220697 16.8276782 0 4.92590891-2.85108167 8.93620285-6.35220697 8.93620285-3.51002423 0-6.36216883-4.01029394-6.36216883-8.93620284zm-1.91493368 0c0 5.9363895 3.71337946 10.77008083 8.2771025 10.77008083 4.55694899 0 8.26886705-4.83369133 8.26886705-10.77008083 0-4.64530384-2.93409676-18.66287034-8.26886704-18.66287034-5.34313825 0-8.27710251 14.0175665-8.27710251 18.66287034"></path><path fill="#a6bde6" d="M84.81586014 204.98794694c-.36792502-3.8772291 3.06120997-10.31293536 5.73271235-10.78326183.2501092-.03290309.50738993.02638176.76321025.13306485-.78300146-1.11455516-1.66907421-2.00251374-2.42816723-1.6547093-2.64453963 1.25288647-4.43568039 8.4408483-4.06775537 12.30490628"></path><g clip-path="url(#g)" transform="matrix(.13282 0 0 -.13174 8.1e-7 355.17885836)"><path fill="url(#h)" d="M2045.81 1695.54v-535.81c0-132.14-131.09-179.468-292.78-179.468-161.7 0-292.79 47.328-292.79 179.468v542.13"></path></g><path fill="#363254" d="M191.08157639 130.9688373v71.42243327c0 17.01870387 14.83252824 26.39347627 41.76406287 26.39347627 12.12157993 0 21.8416864-1.8984293 28.89335177-5.63982693 8.4170964-4.46876344 12.8680513-11.64354427 12.8680513-20.75364934v-70.58980721c0-1.51769213-1.28707112-2.74818868-2.87299775-2.74818868-1.58592663 0-2.87033793 1.23049655-2.87033793 2.74818868v70.58980721c0 7.19190427-3.24491347 12.40634265-9.9153687 15.94893842-6.1019623 3.23431456-15.1260741 4.94567052-26.10269869 4.94567052-16.43041906 0-36.01408265-3.62823273-36.01408265-20.89460894V130.9688373c0-1.5203303-1.28973092-2.75081697-2.87565756-2.75081697-1.58592663 0-2.87432266 1.23048667-2.87432266 2.75081697"></path><path fill="#7483ca" d="M211.00261797 202.3056336c0 7.04172588-4.1135769 12.77522287-9.1914709 12.77522287-5.08717845 0-9.19943042-5.733497-9.19943042-12.77522286 0-7.05094466 4.11225197-22.98012147 9.19943042-22.98012147 5.077894 0 9.1914709 15.9291768 9.1914709 22.98012147"></path><path fill="#363254" d="M193.5667294 202.3056336c0-3.60056646 1.09048394-9.29586425 2.6485174-13.84630245 1.73336201-5.06820242 3.87847721-8.21820404 5.59590027-8.21820404 3.87184263 0 8.23513324 14.39436124 8.23513324 22.0645065 0 6.53978081-3.69385424 11.85696972-8.23513324 11.85696972-4.5465787 0-8.24441768-5.3171889-8.24441768-11.85696972zm.82749109-14.41676102c-1.61514474 4.71249333-2.74282624 10.64360648-2.74282624 14.41676103 0 7.54762324 4.55721795 13.6908477 10.15975282 13.6908477 5.59723517 0 10.1491335-6.14322446 10.1491335-13.6908477 0-6.89153758-4.04451139-23.89574631-10.1491335-23.89574631-3.45077512 0-5.93725305 5.15119133-7.41692658 9.47898528"></path><path fill="#839ad6" d="M195.09420985 203.58750049c0-6.786139 4.97295587-19.00672246 8.60570412-19.00672246.34933221 0 .68936006.17785454 1.01876858.43607958-.9111806-2.14611152-1.948538-3.57158606-3.04965124-3.57158606-3.63806788 0-6.57482146 15.35608993-6.57482146 22.14222894"></path><path fill="#7483ca" d="M215.34200014 209.08650614c0 5.44892972-3.27014685 9.85050366-7.31332334 9.85050366-4.03920172 0-7.31465823-4.40157394-7.31465823-9.85050366 0-5.4555301 3.2754565-17.74330305 7.31465823-17.74330305 4.0431765 0 7.31332334 12.28777295 7.31332334 17.74330305"></path><path fill="#363254" d="M201.67301605 209.08650614c0-5.70320243 3.4295265-16.82504003 6.35566075-16.82504003 2.92213955 0 6.35432586 11.1218376 6.35432586 16.82504003 0 4.92722305-2.85173916 8.93883114-6.35432586 8.93883114-3.50657145 0-6.35566075-4.01160809-6.35566075-8.93883114zm-1.91533515 0c0 5.94297013 3.7097932 10.77008083 8.2709959 10.77008083 4.56119273 0 8.27098593-4.8271107 8.27098593-10.77008083 0-4.6439798-2.9354187-18.65891801-8.27098593-18.65891801-5.33955198 0-8.2709959 14.0149382-8.2709959 18.65891801"></path><path fill="#839ad6" d="M203.78891314 205.84822938c-.37324066-3.87327678 3.05762072-10.30765901 5.73005652-10.78061377.25236357-.0342864.51004676.02242943.76241032.13042667-.78233402-1.11455516-1.66828125-2.00382789-2.42803176-1.6547093-2.64586754 1.25288647-4.43767574 8.43952427-4.06443508 12.3048964"></path><g clip-path="url(#i)" transform="matrix(.13282 0 0 -.13174 8.1e-7 355.17885836)"><path fill="url(#j)" d="M903.801 2433.88c114.029-185.4 101.879-342.02-50.055-424.12-90.965-49.18-40.887-114.04-40.887-114.04"></path></g><path fill="#080604" d="M118.58228528 32.16339448c-1.36716439.7759695-1.82009986 2.46361152-1.00708333 3.76919234 8.43131195 13.58941133 11.44842779 25.8969459 8.73016747 35.58409016-1.93272854 6.88626123-6.75279988 12.43400891-14.30880387 16.4904067-4.77650817 2.55846729-7.625458 5.78620123-8.47275325 9.58833618-1.15278537 5.16700063 2.0064562 9.30245476 2.1417979 9.47503296.94226157 1.21073494 2.72038219 1.45577898 3.9951006.56650625 1.2717996-.89059676 1.54980496-2.6072192.62786557-3.8324394-.0139466-.02371394-1.76511044-2.40169838-1.13365861-5.11299212.50579304-2.16850143 2.40691263-4.14861537 5.6475724-5.8876376 8.96473917-4.80866324 14.7042196-11.48677536 17.05455889-19.86306246 3.12735367-11.15214203-.09762614-24.92071217-9.33983274-39.81570432-.8083743-1.30690484-2.57493917-1.7350699-3.93493103-.9617287"></path><g clip-path="url(#k)" transform="matrix(.13282 0 0 -.13174 8.1e-7 355.17885836)"><path fill="url(#l)" d="M1569.91 2565.32s-189.32 2.23-881.043-20.69c-691.68341-22.91-666.1561-270.94-667.2303-627.14v-856.76c0-72.468 62.793-101.699 140.2733-101.699 77.469 0 140.356 29.231 140.356 101.699 0 0 17.863 244.81 33.285 393.73 34.5 541.01 687.579-88.96 1162.329-59.56 431.41 26.74 771.15 175.65 771.15 529.54 0 353.97-222.65 640.88-699.12 640.88"></path></g><path fill="#363254" d="M5.74673995 215.43393726V102.560852c0 .01057247.00726219-4.97333678.00726219-4.97333678.01556738-43.407052.02801272-72.0837854 85.84109265-74.90310602 90.68685013-2.97742343 116.63945361-2.72710303 116.89315207-2.72578889h.03456762c28.89335177 0 52.4378472 8.26035557 68.08725716 23.88520349 14.32779116 14.29950548 21.90013258 34.2864041 21.90013258 57.80141324 0 50.32360778-54.23895976 64.22261447-99.7380492 67.02085933-23.94696416 1.46762607-52.19345312-10.27604043-77.11508475-20.64034611-27.93568818-11.61456386-52.06103123-21.6442461-66.9145491-12.937278-7.84555513 4.59787596-12.1098907 13.85684529-13.03860116 28.3052249-2.0189354 19.32686065-4.39941925 51.51984758-4.4216003 51.84789041-.00677407 9.45659537-9.88720357 10.84240835-15.7766497 10.84240835-5.88373401 0-15.75890356-1.38581298-15.75890356-10.65005866zM91.40157289 17.1933082C.03632013 20.19312153.02075467 52.65486645.00726467 97.5835629L8e-7 102.55294735v112.88098991c0 10.11029975 8.04056813 16.15300676 21.5056423 16.15300676 13.47705608 0 21.51653458-6.042707 21.51653458-16.15300676.0166064-.13306484 2.385664-32.24832934 4.40765372-51.60021807.81408244-12.63030105 4.18650162-20.46249156 10.31357077-24.05779156 12.30859674-7.21035174 36.2559554 2.74818868 61.62294052 13.29430123 25.5188147 10.61066387 54.44005965 22.63890752 79.77370346 21.08169216 67.78574183-4.16970102 105.11612366-29.91908692 105.11612366-72.50668398 0-24.95760712-8.12622032-46.25931523-23.4966885-61.60750052-16.7584927-16.73018427-41.73882951-25.57548369-72.23669673-25.57548369h.03456762c-.25103863-.00296424-26.26739796-.26216748-117.15573947 2.73105536"></path><g clip-path="url(#m)" transform="matrix(.13282 0 0 -.13174 8.1e-7 355.17885836)"><path fill="url(#n)" d="M40.5078 1894c.7383-80.46-10.5781-783.24 33.8086-825.44-13.9453 31.12 16.5625 711.97 16.1719 754.76l-.4102 25.04v35.37c-17.1093 6.32-33.7148 14.09-49.7461 22.98l.1758-12.71"></path></g><g clip-path="url(#o)" transform="matrix(.13282 0 0 -.13174 8.1e-7 355.17885836)"><path fill="url(#p)" d="M1569.65 2541.75s-185.21 2.18-862.005-20.24c-676.7661-22.42-666.3794-271.78-666.3794-607.02l.1406-12.4c15.6641-8.89 31.8985-16.66 48.5586-22.99.1563 317.27 13.6482 550.06 666.4062 571.68 676.769 22.42 862.039 20.24 862.039 20.24 258.82 0 437-87.38 547.94-223.71-102.14 176.42-295.52 294.44-596.7 294.44"></path></g><g clip-path="url(#q)" transform="matrix(.13282 0 0 -.13174 8.1e-7 355.17885836)"><path fill="url(#r)" d="M1333.93 1456.26v-381.58c0-132.121-131.13-179.571-292.82-179.571-161.696 0-292.755 47.45-292.755 179.571v580.79"></path></g><path fill="#363254" d="M96.52674584 137.08044318v76.51566378c0 17.02792266 14.83372566 26.40389064 41.75834676 26.40389064 26.93285956 0 41.76804762-9.37596798 41.76804762-26.40389064v-50.27092332c0-1.51769212-1.28972097-2.74949295-2.87432267-2.74949295-1.5846017 0-2.87299774 1.23180083-2.87299774 2.74949295v50.27092332c0 17.28060457-19.5863234 20.9067327-36.0207272 20.9067327-16.42629486 0-36.01169181-3.62612813-36.01169181-20.9067327v-76.51566378c0-1.51769212-1.28720062-2.7481788-2.87339224-2.7481788-1.58659009 0-2.87326272 1.23048668-2.87326272 2.7481788"></path><path fill="#8b9dd7" d="M123.86259413 218.4719498c0 6.54781392-5.4908426 11.85829376-12.2711372 11.85829376-6.77977658 0-12.27286956-5.31047984-12.27286956-11.85829375 0-6.55558023 5.49309298-21.35307844 12.27286956-21.35307844 6.7802946 0 12.2711372 14.79749821 12.2711372 21.35307844"></path><path fill="#363254" d="M100.27691641 218.4719498c0-6.38300202 5.47077944-20.44009176 11.31454052-20.44009176 5.8442791 0 11.31492904 14.05708974 11.31492904 20.44009177 0 6.03625483-5.0721759 10.94279735-11.31492904 10.94279735-6.23506258 0-11.31454052-4.90654252-11.31454052-10.94279735zm-1.91719004 0c0 7.04291157 5.93567111 12.7753612 13.23173056 12.7753612 7.2969859 0 13.23158911-5.73244963 13.23158911-12.7753612 0-6.64121718-5.58381655-22.27529377-13.2315891-22.27529377-7.64113797 0-13.23173057 15.63407659-13.23173057 22.27529378"></path><path fill="#a6bde6" d="M101.4142908 219.25583384c0-5.86393354 6.87102712-16.39818912 11.89817546-16.39818912.47882632 0 .943716.15018828 1.40806775.37942303-1.26647997-1.85232546-2.6959358-3.0854503-4.21399235-3.0854503-5.02927021 0-9.09225087 13.2481875-9.09225087 19.10421639"></path><path fill="#8b9dd7" d="M133.86070597 219.39943162c0 8.63609306-5.68754931 15.66332378-12.70441794 15.66332378-7.02721898 0-12.71476829-7.02723072-12.71476829-15.66332378 0-8.64768325 5.6875493-28.17611238 12.7147683-28.17611238 7.01686862 0 12.70441793 19.52842913 12.70441793 28.17611238"></path><path fill="#363254" d="M109.39825588 219.39943162c0-8.51725658 5.6875493-27.26181156 11.75803215-27.26181156 6.06902842 0 11.74808027 18.74455498 11.74808027 27.26181156 0 8.12861476-5.26915158 14.74466553-11.74808027 14.74466553-6.4809111 0-11.75803215-6.61605077-11.75803215-14.74466553zm-1.91506618 0c0 9.1404095 6.13476667 16.57986754 13.67309833 16.57986754 7.53528334 0 13.66341542-7.43945803 13.66341542-16.57986754 0-8.68061598-5.7701729-29.0904132-13.66341542-29.0904132-7.89629084 0-13.67309833 20.40979722-13.67309833 29.0904132"></path><path fill="#a6bde6" d="M111.8679979 220.96586577c0-8.32754506 6.87779124-23.29366915 11.89923143-23.29366915.47829834 0 .94996209.21605375 1.4070118.53487779-1.25758404-2.6427901-2.69594577-4.38444062-4.2129364-4.38444062-5.02980815 0-9.09330682 18.82754389-9.09330682 27.14323198"></path><path fill="#8b9dd7" d="M140.52983627 224.05025883c0 6.11372037-4.09366316 11.0690148-9.14551688 11.0690148-5.04986136 0-9.144182-4.95529443-9.144182-11.0690148 0-6.14349125 4.09432064-19.9608133 9.144182-19.9608133 5.05185372 0 9.14551688 13.81732205 9.14551688 19.9608133"></path><path fill="#363254" d="M123.19793945 224.05025883c0-6.62172236 4.34230099-19.04518845 8.18637994-19.04518845 3.85378179 0 8.18784432 12.4234661 8.18784432 19.04518845 0 5.60162773-3.6699458 10.15049488-8.18784432 10.15049488-4.51284788 0-8.18637994-4.54886715-8.18637994-10.15049488zm-1.91599263 0c0 6.6093417 4.5356904 11.98555856 10.10237257 11.98555856 5.57651451 0 10.10185455-5.37621686 10.10185455-11.98555856 0-6.0196452-4.02458769-20.87642826-10.10185455-20.87642826-6.0745971 0-10.10237257 14.85678306-10.10237257 20.87642826"></path><path fill="#a6bde6" d="M126.08647768 220.3993694c-.4634253-4.36600303 3.82283032-11.60402103 7.1619032-12.12704185.3147945-.0500957.6349086.02371394.95767256.14359779-.9802461-1.25815294-2.0880039-2.25546242-3.03703953-1.85890607-3.3091973 1.40965537-5.54596153 9.49084224-5.08253623 13.84235013"></path><g clip-path="url(#s)" transform="matrix(.13282 0 0 -.13174 8.1e-7 355.17885836)"><path fill="url(#t)" d="M2229.92 1718.48V1089.6c0-132.112-131.12-179.53-292.81-179.53-161.71 0-292.75 47.418-292.75 179.53v361.33"></path></g><path fill="#363254" d="M293.3114132 128.77925023v82.85122805c0 17.2783715-19.5863234 20.90239502-36.01540758 20.90239502-16.42509944 0-36.01009791-3.62402351-36.01009791-20.90239502v-47.60309525c0-1.51769212-1.28707111-2.75081698-2.87433263-2.75081698-1.58592663 0-2.87299774 1.23312486-2.87299774 2.75081698v47.60309525c0 17.02516592 14.8298784 26.40415742 41.75742828 26.40415742 26.93019974 0 41.76272799-9.3789915 41.76272799-26.40415742v-82.85122805c0-1.51900627-1.2844113-2.74686465-2.87033793-2.74686465-1.58858645 0-2.87698248 1.22785838-2.87698248 2.74686465"></path><path fill="#8b9dd7" d="M242.87523055 216.50501686c0 6.54372326-5.49363192 11.85314585-12.27300007 11.85314585-6.7793781 0-12.27167513-5.30942259-12.27167513-11.85314585 0-6.5555901 5.49229703-21.3557265 12.27167513-21.3557265 6.77936815 0 12.27300007 14.8001364 12.27300007 21.3557265"></path><path fill="#363254" d="M219.28955283 216.50501686c0-6.3856402 5.46838859-20.43614932 11.31267765-20.43614932 5.84693892 0 11.3166624 14.05050911 11.3166624 20.43614932 0 6.03124527-5.077894 10.94121643-11.3166624 10.94121643-6.23745342 0-11.31267765-4.90997116-11.31267765-10.94121643zm-1.91666008 0c0 7.04290169 5.93327828 12.77377038 13.22933773 12.77377038 7.29605946 0 13.23066266-5.7308687 13.23066266-12.77377038 0-6.64254122-5.58528095-22.27134145-13.23066266-22.27134145-7.64273185 0-13.22933773 15.62880023-13.22933773 22.27134145"></path><path fill="#a6bde6" d="M220.4252038 217.28493869c0-5.86129537 6.86969225-16.3942368 11.89843448-16.3942368.47949376 0 .94304856.14887413 1.40793825.3754707-1.2644876-1.85232545-2.69368443-3.08412627-4.2131954-3.08412627-5.02874224 0-9.09317732 13.24950165-9.09317732 19.10289237"></path><path fill="#8b9dd7" d="M252.87426883 217.42853647c0 8.64110263-5.68622438 15.66675243-12.70866167 15.66675243-7.02775693 0-12.71398131-7.0256498-12.71398131-15.66675243 0-8.64768325 5.68622438-28.17083602 12.7139813-28.17083602 7.0224373 0 12.70866168 19.52315277 12.70866168 28.17083602"></path><path fill="#363254" d="M228.40928844 217.42853647c0-8.51725658 5.68357453-27.2565352 11.75631872-27.2565352 6.0714093 0 11.7496642 18.73927862 11.7496642 27.2565352 0 8.1311146-5.2718114 14.75020867-11.7496642 14.75020867-6.48450733 0-11.75631872-6.61909407-11.75631872-14.75020867zm-1.91532519 0c0 9.14290935 6.1325153 16.58026278 13.6716439 16.58026278 7.53514387 0 13.66499935-7.43735343 13.66499935-16.58026278 0-8.67666366-5.768579-29.09172734-13.66499934-29.09172734-7.90041505 0-13.6716439 20.41506368-13.6716439 29.09172734"></path><path fill="#a6bde6" d="M230.87982742 218.99893283c0-8.32623092 6.87766172-23.29236488 11.89710954-23.29236488.48082865 0 .951028.21474948 1.40927314.53224949-1.25652808-2.6427901-2.69368443-4.3804883-4.2145303-4.3804883-5.02874223 0-9.09185238 18.82096327-9.09185238 27.14060369"></path><path fill="#8b9dd7" d="M259.5394144 222.08042093c0 6.11661544-4.09232827 11.07203832-9.1423291 11.07203832-5.04999085 0-9.14497894-4.95542288-9.14497894-11.07203832 0-6.1405863 4.09498809-19.96186066 9.14497895-19.96186066 5.05000082 0 9.14232909 13.82127437 9.14232909 19.96186066"></path><path fill="#363254" d="M242.20844403 222.08042093c0-6.62014143 4.33805724-19.04096935 8.18864128-19.04096935 3.8492591 0 8.18731635 12.42082792 8.18731635 19.04096935 0 5.60044203-3.67659036 10.15497088-8.18731635 10.15497088-4.51337585 0-8.18864128-4.55452885-8.18864128-10.15497088zm-1.91532519 0c0 6.61223678 4.5306497 11.98595379 10.10396647 11.98595379 5.5706669 0 10.09999168-5.37371701 10.09999168-11.9859538 0-6.01675011-4.02458768-20.87617135-10.09999168-20.87617135-6.07805386 0-10.10396647 14.85942124-10.10396647 20.87617136"></path><path fill="#a6bde6" d="M245.09871562 218.43242658c-.46222987-4.36731718 3.82269086-11.602697 7.16190321-12.12704185.31346956-.04871239.63489863.01976161.9576626.14359778-.98289597-1.26079111-2.08800391-2.25150022-3.03769702-1.8628584-3.30999425 1.40966526-5.54409866 9.49348043-5.08186879 13.84630247"></path><path fill="#363254" d="M27.23782549 56.52946725c-1.01478086 1.36750384-.65681869 3.24748568.80584698 4.2039479 1.45695354.95514808 3.46539613.61393413 4.47911405-.74961739 5.77840438-7.7874008 18.77503228-9.93351233 24.95403654-7.72152546 1.23115225.4426602 2.78719233.25031051 3.4673875-.43870788.6796642-.6797996.23509968-1.59410041-.9988409-2.03544647-8.46026807-3.03274607-25.05710881-3.582119-32.70754417 6.7413493M52.28204965 90.76053883c-5.33636419 1.1158693-10.04114604-1.84573495-10.50404037-6.61223678-.46130043-4.77440647 3.49448474-9.54486062 8.83230933-10.67127274 5.3420753-1.1198315 10.04539675 1.83387798 10.51187735 6.61091275.45811264 4.77309232-3.49647611 9.54223233-8.84014631 10.67259677zM63.3168584 79.45161802c-.53488563-5.56223295-6.09120648-8.98494488-12.42322477-7.66355477-6.3241813 1.32798061-11.02232258 6.89812809-10.4910242 12.45245639.5323613 5.5517 6.0906755 8.98363072 12.41538777 7.66750708 6.33148732-1.33193293 11.0312225-6.90075638 10.4988612-12.4564087"></path><path fill="#fcfcfc" d="M60.78442247 80.47264144c.4052481 4.19604325-3.05496688 8.39868689-7.72773931 9.37886305-4.6918982.9907091-8.80587655-1.62045253-9.2240093-5.81650566-.40206029-4.19605314 3.05855415-8.39473456 7.73345145-9.37622488 4.68724999-.9880808 8.81251811 1.61386203 9.21829716 5.8138675"></path><path fill="#363254" d="M60.0995791 80.51479297c-1.2655535-3.1974295-4.62601747-5.0510691-7.47603721-4.16047235-1.52748344.46900244-2.57400873 1.64021415-3.06174094 3.1038879l3.98367735 1.95508585-3.65998395 2.62039031c1.3562731 3.01562263 4.5643875 4.74674021 7.33285156 3.8864479 2.86144199-.9011297 4.14559129-4.20922426 2.8812332-7.40533961"></path><path fill="#fff" d="M57.16654428 79.14466083c.70915128-.10144625 1.54408686.74961739 1.84759158 1.93136204.30602805 1.16725938-.02338047 2.20539637-.74820174 2.31606142-.71698726.10671272-1.55032895-.75094142-1.85741993-1.92873374-.29792608-1.16593536.038383-2.20144405.7580301-2.31868972"></path><path fill="#363254" d="M45.57759163 74.32545477c-4.99500443 3.8232206-6.57389102 9.37623476-3.19921448 12.5235982-.29261342-.12383616.34441405.68506607.07464415.53487779-5.31351867-2.92208102-6.20118532-11.59874468-1.30951815-16.70383216 4.19898582-4.3870788 16.79966402-7.63984082 16.7062886-5.94824648-.5198761 1.94059071-4.20881517 4.40420224-8.78927412 7.0812491-1.4744874.83130203-2.5376161 1.79040243-3.48292899 2.51235355M127.64916331 128.214068c-.25728471 1.3016285.63038592 2.3700798 1.96951766 2.3700798h7.6954699c1.34152258 0 2.64453265-1.0684513 2.90354077-2.3700798l2.04949139-10.47629476c.25767323-1.30426667 1.55803345-2.37006991 2.90089092-2.37006991h8.32810719c4.74981041 0 8.65750574-.49536444 11.72177102-1.48739757 3.07090982-.98675678 5.85491835-2.64937072 8.36928947-4.97992728 2.10128305-1.91819092 3.8094117-4.03532203 5.1110869-6.35533577 1.30168514-2.3121091 2.23145455-4.8679382 2.77603904-7.66355476 1.33090325-6.78218668.02121874-11.82797943-3.00449417-15.858035-3.8001173-5.04580262-13.49764025-5.31323657-13.49764025-5.31323657-1.3255936-.19761616-3.5039216-.36625192-4.84411926-.36625192h-19.29543736c-1.33887273 0-2.6418828 1.06976545-2.90089092 2.37534627zm30.15186226-45.83640676c4.7777036 0 7.95620141.87609173 9.54876263 2.62434263 1.58858645 1.74824102 1.9697966 4.75200669 1.13963572 9.00339234-.87265812 4.43055436-2.54624903 7.59636527-5.02475749 9.4895281-2.47850845 1.8918388-8.89659016 2.57691476-8.89659016 2.57691476-1.33488799.14491193-3.52118548.26216748-4.85873328.26216748h-2.77071943c-1.33887273 0-2.23012963-1.06844142-1.97244643-2.37139395l3.76425463-19.21092912c.25502338-1.30426667 1.5606833-2.37402224 2.89823111-2.37402224h6.1723627"></path><path fill="none" stroke="#fff" stroke-width="5.33333302" d="M128.138 232.84401c-.25827 1.31733.6328 2.39867 1.97706 2.39867H137.84c1.34666 0 2.65466-1.08134 2.91466-2.39867l2.05734-10.60267c.25866-1.32 1.564-2.39866 2.912-2.39866h8.36c4.768 0 8.69066-.50134 11.76666-1.50534 3.08267-.99866 5.87734-2.68133 8.40134-5.04 2.10933-1.94133 3.824-4.084 5.13066-6.432 1.30667-2.34 2.24-4.92666 2.78667-7.756 1.336-6.864.0213-11.97066-3.016-16.04933-3.81467-5.10667-13.54933-5.37733-13.54933-5.37733-1.33067-.2-3.51734-.37067-4.86267-.37067H141.372c-1.344 0-2.652 1.08267-2.912 2.404zm30.26733-46.38933c4.796 0 7.98667.88666 9.58533 2.656 1.59467 1.76933 1.97734 4.80933 1.144 9.112-.876 4.484-2.556 7.688-5.044 9.604-2.488 1.91466-8.93066 2.608-8.93066 2.608-1.34.14666-3.53467.26533-4.87734.26533h-2.78133c-1.344 0-2.23867-1.08133-1.98-2.4L149.3 188.85734c.256-1.32 1.56666-2.40266 2.90933-2.40266z" transform="matrix(.99619 0 0 .98808 8.1e-7 -101.85463)"></path><path fill="#363254" d="M193.59727243 60.50022808c.25502338-1.3016285 1.55803345-2.36875577 2.89690618-2.36875577h7.59889972c1.34153254 0 2.22746981 1.06712728 1.96978662 2.36875577l-2.05080636 10.47629476c-.25635826 1.30558082.63622356 2.36744162 1.97244644 2.36744162h6.23345873c1.33887273 0 3.52649515.11461738 4.8573984.25031052 0 0 9.0905175.10539858 12.0405602 3.3805604 2.40279839 2.66649415 3.44680034 6.33952647 2.38552454 11.75552346l-4.74981042 24.26595054c-.25368849 1.30426667-1.5606833 2.37139395-2.90089092 2.37139395h-7.79415199c-1.34019766 0-2.22879474-1.06712728-1.97244644-2.37139395l4.03521698-20.58502346c.25502338-1.30294264.54192468-3.45433051.64021826-4.78231112 0 0 .17931331-2.43594526-.80226768-3.48067275-.9775863-1.04868968-3.0655902-1.57039635-6.25604224-1.57039635h-7.52849932c-1.34153255 0-2.64055788 1.06449898-2.90089092 2.36876565l-5.48963722 28.04963803c-.25635827 1.30426667-1.55936834 2.37139395-2.899566 2.37139395h-7.60022464c-1.34020762 0-2.22614489-1.06712728-1.97112151-2.37139395l10.28593959-52.4960813"></path><path fill="none" stroke="#fff" stroke-width="5.33333302" d="M194.33866 164.31334c.256-1.31733 1.564-2.39733 2.908-2.39733h7.628c1.34667 0 2.236 1.08 1.97733 2.39733l-2.05866 10.60267c-.25734 1.32133.63866 2.396 1.98 2.396h6.25733c1.344 0 3.54.116 4.876.25333 0 0 9.12533.10667 12.08667 3.42134 2.412 2.69866 3.46 6.416 2.39466 11.89733l-4.768 24.55867c-.25466 1.32-1.56666 2.4-2.912 2.4h-7.824c-1.34533 0-2.23733-1.08-1.98-2.4l4.05067-20.83334c.256-1.31866.544-3.496.64267-4.84 0 0 .18-2.46533-.80534-3.52266-.98133-1.06134-3.07733-1.58934-6.28-1.58934h-7.55733c-1.34667 0-2.65067 1.07734-2.912 2.39734l-5.51066 28.388c-.25734 1.32-1.56534 2.4-2.91067 2.4H185.992c-1.34534 0-2.23467-1.08-1.97867-2.4z" transform="matrix(.99619 0 0 .98808 8.1e-7 -101.85463)"></path><path fill="#363254" d="M232.14166516 128.214068c-.2576832 1.3016285.63091389 2.3700798 1.97244644 2.3700798h7.69453348c1.33621292 0 2.64586754-1.0684513 2.899566-2.3700798l2.05080635-10.47629476c.25635827-1.30426667 1.5620182-2.37006991 2.89824107-2.37006991h8.33209193c4.74847552 0 8.653521-.49536444 11.72575575-1.48739757 3.06161543-.98675678 5.85093362-2.64937072 8.36132-4.97992728 2.1079276-1.91819092 3.80807682-4.03532203 5.1137467-6.35533577 1.30301008-2.3121091 2.22879475-4.8679382 2.77736398-7.66355476 1.32957833-6.78218668.12618676-11.90571175-3.00715399-15.858035-3.88777162-4.90614728-13.49896518-5.31323657-13.49896518-5.31323657-1.32559358-.19761616-3.50524652-.36625192-4.84411925-.36625192h-19.29543736c-1.33754781 0-2.64454262 1.06976545-2.89824107 2.37534627zm30.15518951-45.83640676c4.77238397 0 7.9535416.87609173 9.54876264 2.62434263 1.5846017 1.74824102 1.96447696 4.75200669 1.13299116 9.00339234-.87132323 4.43055436-2.53827956 7.59636527-5.02077275 9.4895281-2.4824932 1.8918388-8.9005749 2.57691476-8.9005749 2.57691476-1.32957832.14491193-3.51454092.26216748-4.8573984.26216748h-2.77337923c-1.34153255 0-2.22348508-1.06844142-1.96979659-2.37139395l3.76159482-19.21092912c.2576832-1.30426667 1.5620182-2.37402224 2.90089093-2.37402224h6.17768232"></path><path fill="none" stroke="#fff" stroke-width="5.33333302" d="M233.03066 232.84401c-.25867 1.31733.63333 2.39867 1.98 2.39867h7.724c1.34133 0 2.656-1.08134 2.91067-2.39867l2.05866-10.60267c.25734-1.32 1.568-2.39866 2.90934-2.39866h8.364c4.76666 0 8.68666-.50134 11.77066-1.50534 3.07334-.99866 5.87334-2.68133 8.39334-5.04 2.116-1.94133 3.82266-4.084 5.13333-6.432 1.308-2.34 2.23733-4.92666 2.788-7.756 1.33467-6.864.12667-12.04933-3.01867-16.04933-3.90266-4.96533-13.55066-5.37733-13.55066-5.37733-1.33067-.2-3.51867-.37067-4.86267-.37067h-19.36933c-1.34267 0-2.65467 1.08267-2.90934 2.404zm30.27067-46.38933c4.79066 0 7.984.88666 9.58533 2.656 1.59067 1.76933 1.972 4.80933 1.13733 9.112-.87466 4.484-2.548 7.688-5.04 9.604-2.492 1.91466-8.93466 2.608-8.93466 2.608-1.33467.14666-3.528.26533-4.876.26533h-2.784c-1.34667 0-2.232-1.08133-1.97734-2.4l3.776-19.44267c.25867-1.32 1.568-2.40266 2.912-2.40266z" transform="matrix(.99619 0 0 .98808 8.1e-7 -101.85463)"></path><path fill="#363254" d="M127.64916331 128.214068c-.25728471 1.3016285.63038592 2.3700798 1.96951766 2.3700798h7.6954699c1.34152258 0 2.64453265-1.0684513 2.90354077-2.3700798l2.04949139-10.47629476c.25767323-1.30426667 1.55803345-2.37006991 2.90089092-2.37006991h8.32810719c4.74981041 0 8.65750574-.49536444 11.72177102-1.48739757 3.07090982-.98675678 5.85491835-2.64937072 8.36928947-4.97992728 2.10128305-1.91819092 3.8094117-4.03532203 5.1110869-6.35533577 1.30168514-2.3121091 2.23145455-4.8679382 2.77603904-7.66355476 1.33090325-6.78218668.02121874-11.82797943-3.00449417-15.858035-3.8001173-5.04580262-13.49764025-5.31323657-13.49764025-5.31323657-1.3255936-.19761616-3.5039216-.36625192-4.84411926-.36625192h-19.29543736c-1.33887273 0-2.6418828 1.06976545-2.90089092 2.37534627zm30.15186226-45.83640676c4.7777036 0 7.95620141.87609173 9.54876263 2.62434263 1.58858645 1.74824102 1.9697966 4.75200669 1.13963572 9.00339234-.87265812 4.43055436-2.54624903 7.59636527-5.02475749 9.4895281-2.47850845 1.8918388-8.89659016 2.57691476-8.89659016 2.57691476-1.33488799.14491193-3.52118548.26216748-4.85873328.26216748h-2.77071943c-1.33887273 0-2.23012963-1.06844142-1.97244643-2.37139395l3.76425463-19.21092912c.25502338-1.30426667 1.5606833-2.37402224 2.89823111-2.37402224h6.1723627M193.59727243 60.50022808c.25502338-1.3016285 1.55803345-2.36875577 2.89690618-2.36875577h7.59889972c1.34153254 0 2.22746981 1.06712728 1.96978662 2.36875577l-2.05080636 10.47629476c-.25635826 1.30558082.63622356 2.36744162 1.97244644 2.36744162h6.23345873c1.33887273 0 3.52649515.11461738 4.8573984.25031052 0 0 9.0905175.10539858 12.0405602 3.3805604 2.40279839 2.66649415 3.44680034 6.33952647 2.38552454 11.75552346l-4.74981042 24.26595054c-.25368849 1.30426667-1.5606833 2.37139395-2.90089092 2.37139395h-7.79415199c-1.34019766 0-2.22879474-1.06712728-1.97244644-2.37139395l4.03521698-20.58502346c.25502338-1.30294264.54192468-3.45433051.64021826-4.78231112 0 0 .17931331-2.43594526-.80226768-3.48067275-.9775863-1.04868968-3.0655902-1.57039635-6.25604224-1.57039635h-7.52849932c-1.34153255 0-2.64055788 1.06449898-2.90089092 2.36876565l-5.48963722 28.04963803c-.25635827 1.30426667-1.55936834 2.37139395-2.899566 2.37139395h-7.60022464c-1.34020762 0-2.22614489-1.06712728-1.97112151-2.37139395l10.28593959-52.4960813M232.14166516 128.214068c-.2576832 1.3016285.63091389 2.3700798 1.97244644 2.3700798h7.69453348c1.33621292 0 2.64586754-1.0684513 2.899566-2.3700798l2.05080635-10.47629476c.25635827-1.30426667 1.5620182-2.37006991 2.89824107-2.37006991h8.33209193c4.74847552 0 8.653521-.49536444 11.72575575-1.48739757 3.06161543-.98675678 5.85093362-2.64937072 8.36132-4.97992728 2.1079276-1.91819092 3.80807682-4.03532203 5.1137467-6.35533577 1.30301008-2.3121091 2.22879475-4.8679382 2.77736398-7.66355476 1.32957833-6.78218668.12618676-11.90571175-3.00715399-15.858035-3.88777162-4.90614728-13.49896518-5.31323657-13.49896518-5.31323657-1.32559358-.19761616-3.50524652-.36625192-4.84411925-.36625192h-19.29543736c-1.33754781 0-2.64454262 1.06976545-2.89824107 2.37534627zm30.15518951-45.83640676c4.77238397 0 7.9535416.87609173 9.54876264 2.62434263 1.5846017 1.74824102 1.96447696 4.75200669 1.13299116 9.00339234-.87132323 4.43055436-2.53827956 7.59636527-5.02077275 9.4895281-2.4824932 1.8918388-8.9005749 2.57691476-8.9005749 2.57691476-1.32957832.14491193-3.51454092.26216748-4.8573984.26216748h-2.77337923c-1.34153255 0-2.22348508-1.06844142-1.96979659-2.37139395l3.76159482-19.21092912c.2576832-1.30426667 1.5620182-2.37402224 2.90089093-2.37402224h6.17768232"></path><g clip-path="url(#u)" transform="matrix(.13282 0 0 -.13174 8.1e-7 355.17885836)"><path fill="url(#v)" d="M571.879 2500.55s171.527 117.93 279.867 158.35c34.531 12.89 283.674 78.71 324.064-351.49 22.08-235.55-17.68-398.24-210.83-427.71-115.589-17.66-97.691-103.81-97.691-103.81"></path></g><path fill="#363254" d="M112.09313573 2.32071584C97.5352836 7.7103706 75.23534908 22.8635779 74.29043367 23.50780658c-1.28972694.88005394-1.59177025 2.59799052-.66930288 3.83242952.91941208 1.23576302 2.71626396 1.52296847 4.00705483.6416004.22473935-.14887415 22.65603283-15.39429903 36.53621811-20.53495742.43419723-.15809293 10.64974638-3.8258489 20.45472781 1.99856141 10.20757968 6.06681618 16.67082841 20.58501359 18.70038614 41.99474858 3.23162437 34.21657643-4.42306171 50.17869585-25.59411632 53.38666818-6.00194532.90639617-10.37068506 3.190839-12.99025332 6.79667194-3.4394983 4.72039798-2.40279839 9.91506486-2.35405505 10.13508082.31187566 1.47684486 1.80707972 2.42935476 3.35542029 2.14611152 1.55033293-.28193898 2.56776663-1.72189879 2.28338568-3.20665818-.0069733-.02638176-.57844482-3.22509576 1.47355696-5.99172203 1.70028867-2.29102345 4.77080003-3.79027799 9.12957792-4.45294427 31.47586194-4.76387353 32.79215116-34.199453 30.4212307-59.30988656-2.23012964-23.52818025-9.43188025-39.06212473-21.39141075-46.16707789-12.00695888-7.13394345-24.20504583-2.95633778-25.55971806-2.45571676"></path><g clip-path="url(#w)" transform="matrix(.13282 0 0 -.13174 8.1e-7 355.17885836)"><path fill="url(#x)" d="M747.344 2531.75c194.211 121.45 302.026 59.35 302.026 59.35-84.444 77.21-179.436 51.62-200.444 43.74-107.969-40.42-316.485-189.8-316.485-189.8s-28.195-50.01 27.989-39.16c0 0 122.211 85.38 186.914 125.87"></path></g><path fill="#363254" d="M89.95710454 97.13958854c-.22420839 12.98996247-4.56013678 24.81926592-11.32330396 30.85314936-3.068515 2.74159818-6.49127441 4.0985592-9.90739225 3.93256163-1.05383032-.05661703-1.95185829.71932283-2.01255883 1.72980343-.05033723 1.01442304.76002246 1.87340121 1.81744004 1.92609556 4.4755268.22396828 8.87069532-1.47290242 12.71796206-4.90747131 7.49582744-6.6925974 12.29929935-19.51920046 12.5379853-33.48013017.02072064-1.0065184-.8208565-1.84309678-1.88039894-1.85890607-1.05940995-.01452479-1.93060667.79310282-1.94973342 1.80489757"></path><path fill="#363254" d="M98.2549277 87.8634859c-1.44287446 3.28174244-3.9644181 5.37252143-6.9240182 5.72164002-2.88521695.3372715-5.81679037-1.00125192-7.84435872-3.58475718-.63144884-.80758808-1.83670029-.97358566-2.6819962-.36492788-.8451634.6060196-1.01796864 1.75483152-.38133964 2.5624196 2.861442 3.65063253 7.11648016 5.52798607 11.37789391 5.02735517 4.35983783-.52170667 7.99591533-3.41612143 9.98774753-7.94416972.40830637-.93406243-.05389361-1.99987555-1.02527368-2.39642203-.97745679-.39128-2.09557092.04742788-2.508655.97886202"></path></svg>