<svg width="140" height="45" viewBox="0 0 140 45" fill="none" xmlns="http://www.w3.org/2000/svg">
<path d="M60.1376 23.8619L55.3547 39.944H48.9058L59.372 4.72302H65.8227L65.768 20.8945L70.5783 4.72302H77.0272L66.5609 39.944H60.0829L60.1376 23.8619Z" fill="#111111"/>
<path d="M85.472 24.5766H83.5307L85.1986 18.9625H94.4946L88.2881 39.8293H80.9351L81.5913 37.5983C80.8578 38.3087 80.0192 38.902 79.1051 39.3572C78.1001 39.8929 76.989 40.1992 75.8515 40.254C74.7449 40.3145 73.641 40.0951 72.6416 39.6161C72.1706 39.4148 71.7609 39.0931 71.4537 38.6832C71.1465 38.2733 70.9527 37.7897 70.8918 37.2811C70.7362 36.2081 71.0054 34.5974 71.6993 32.449L78.2849 10.2898C78.5765 9.33835 79.1592 8.40268 80.0329 7.48279C80.9577 6.55345 82.0657 5.82659 83.2865 5.34835C84.4291 4.86642 85.6538 4.60898 86.8937 4.59009H91.5126C92.5283 4.62729 93.5237 4.88608 94.429 5.34835C95.3376 5.77917 96.0429 6.54661 96.3957 7.48826C96.7049 8.39329 96.743 9.36896 96.5051 10.2953L95.8507 12.4826H89.0519L89.7354 10.2279C89.8932 9.75766 89.9762 9.2656 89.9814 8.76966C89.9918 8.45274 89.906 8.14012 89.7354 7.87286C89.6078 7.64198 89.1977 7.52046 88.505 7.50831C87.8124 7.49616 87.3208 7.61768 87.0304 7.87286C86.7154 8.12285 86.447 8.42643 86.2375 8.76966C86.0607 9.08497 85.9142 9.41638 85.8001 9.75941L78.859 33.1089C78.7045 33.5809 78.6126 34.0711 78.5856 34.5671C78.5758 34.8839 78.6616 35.1964 78.8317 35.4638C78.9775 35.6935 79.387 35.815 80.0602 35.8284C80.7529 35.8284 81.245 35.7044 81.5366 35.4638C81.8508 35.213 82.119 34.9095 82.3295 34.5671C82.5978 34.1118 82.8003 33.6209 82.9311 33.1089L85.472 24.5766Z" fill="#111111"/>
<path d="M119.032 4.745L117.501 9.82865H112.033L103.102 39.9441H95.7487L104.693 9.82865H99.2739L100.803 4.745H119.032Z" fill="#111111"/>
<path d="M124.087 25.497L133.653 4.71765H139.283L123.05 39.9441H116.517L121.218 4.72312H126.848L124.087 25.497Z" fill="#111111"/>
<path d="M45.767 27.5166C45.6194 28.1327 45.4426 28.7615 45.2384 29.3612C43.5577 34.4333 40.1208 38.7384 35.5469 41.5007C31.9361 43.7036 27.7847 44.8609 23.555 44.8437C23.3681 44.8475 23.1812 44.8396 22.9954 44.82C21.0414 42.4668 19.7673 38.5424 19.4483 36.3041C19.3335 35.5057 19.5632 34.731 20.3196 34.4285C26.6573 31.8912 33.252 27.9777 38.2208 23.7198C38.9773 23.0709 39.6954 22.4074 40.3699 21.7549C42.5152 19.6405 44.2213 17.4878 45.2621 15.4026C46.5545 19.3149 46.7294 23.5103 45.767 27.5166Z" fill="#CE1618"/>
<path d="M18.1304 44.2056C13.6591 43.1359 9.61442 40.7423 6.52497 37.3375C6.17682 36.9492 5.84144 36.5482 5.52246 36.1491C5.03578 35.522 4.56734 34.8731 4.13899 34.1896C1.97421 30.7539 0.796181 26.7889 0.733813 22.7285C0.671445 18.6681 1.72714 14.6689 3.78538 11.1683C6.15495 10.6907 10.134 11.3505 12.1044 12.1416C12.9429 12.477 13.5845 13.1204 13.5006 14.0081C12.8937 20.3604 13.1999 27.409 14.392 33.5006C14.5682 34.4363 14.7741 35.3477 15.0099 36.2347C15.7973 39.3225 16.8363 42.0748 18.1304 44.2056Z" fill="#CE1618"/>
<path d="M17.9682 13.6345C23.338 15.8437 29.2693 19.0171 34.1798 22.1869C29.4406 25.4769 23.5294 28.7105 18.2362 31.0236C17.6579 25.2451 17.5682 19.4281 17.9682 13.6345Z" fill="#111111"/>
<path d="M43.4576 11.3962L43.0347 10.6671C37.8107 2.3189 27.9314 -1.46877 18.7301 0.519847C18.071 0.657979 17.4199 0.832007 16.7798 1.04115C12.8021 2.26324 9.23442 4.55007 6.46301 7.65409C8.78884 7.52103 11.4865 7.84731 14.3829 8.53631C15.3088 8.75504 16.2439 9.01569 17.2063 9.30551C23.3271 11.1756 29.9656 14.4092 35.4994 18.1367C36.0081 18.4701 36.616 18.6183 37.221 18.5566C37.826 18.4948 38.3914 18.2269 38.8223 17.7977C41.0716 15.8455 43.0146 13.3137 43.4576 11.3944V11.3962Z" fill="#CE1618"/>
</svg>
