<svg xmlns="http://www.w3.org/2000/svg" version="1.1" xmlns:xlink="http://www.w3.org/1999/xlink" xmlns:svgjs="http://svgjs.com/svgjs" width="1440" height="100" preserveAspectRatio="none" viewBox="0 0 1440 100"><g mask="url(&quot;#SvgjsMask1005&quot;)" fill="none"><path d="M43.33 0C46.71 0.18 46.7 1.3 50 1.3C52.04 1.3 51.91 0.11 54 0C64.41 -0.54 64.5 0 75 0C87.5 0 87.5 0 100 0C112.5 0 112.5 0 125 0C137.5 0 137.5 0 150 0C162.5 0 162.5 0 175 0C187.5 0 187.5 0 200 0C212.5 0 212.5 0 225 0C237.5 0 237.5 0 250 0C262.5 0 262.5 0 275 0C285.31 0 285.91 -1.56 295.61 0C298.41 0.45 297.27 4.01 300 4.01C308.49 4.01 308.97 1.46 318.06 0C321.47 -0.55 321.53 0 325 0C337.5 0 337.5 0 350 0C362.5 0 362.5 0 375 0C387.5 0 387.5 0 400 0C412.5 0 412.5 0 425 0C437.5 0 437.5 0 450 0C462.5 0 462.5 0 475 0C484.07 0 485.68 -3.04 493.13 0C498.18 2.06 497.17 10.19 500 10.19C502.51 10.19 499.58 1.73 503.82 0C512.08 -3.37 514.41 0 525 0C537.5 0 537.5 0 550 0C562.5 0 562.5 0 575 0C583.44 0 584.85 -2.9 591.88 0C597.35 2.26 594.97 10.32 600 10.32C607.81 10.32 608.41 3.78 617.57 0C620.91 -1.38 621.29 0 625 0C637.5 0 637.5 0 650 0C662.5 0 662.5 0 675 0C679.03 0 679.18 -0.91 683.06 0C691.68 2.04 692.11 5.9 700 5.9C703.91 5.9 702.57 0.96 706.65 0C715.07 -1.99 715.83 0 725 0C737.5 0 737.5 0 750 0C762.5 0 762.5 0 775 0C779.16 0 779.54 -1.43 783.33 0C792.04 3.29 792.75 9.43 800 9.43C804.33 9.43 801.71 1.8 806.49 0C814.21 -2.91 815.74 0 825 0C835.63 0 836.2 -1.42 846.27 0C848.7 0.34 847.98 3.52 850 3.52C852.51 3.52 852.26 0.43 855.32 0C864.76 -1.33 865.16 0 875 0C885.76 0 892.12 -5.77 896.51 0C901.64 6.73 892.75 13.29 894.03 25C894.5 29.29 896.7 32 900 32C903.99 32 907.98 29.87 908.61 25C910.06 13.87 899.67 6.87 904.17 0C907.86 -5.63 914.59 0 925 0C935.71 0 936.41 -1.57 946.43 0C948.91 0.39 948.47 3.91 950 3.91C951.27 3.91 950.01 0.31 952.02 0C962.51 -1.64 963.51 0 975 0C987.5 0 987.5 0 1000 0C1012.5 0 1012.5 0 1025 0C1037.5 0 1037.5 0 1050 0C1061.76 0 1072.39 -5.4 1073.53 0C1075.02 7.1 1054.82 16.16 1055.26 25C1055.55 30.76 1065.09 27.33 1075 29.21C1087.46 31.57 1089.02 34.97 1100 33.47C1104.46 32.86 1105.88 29.69 1105.88 25C1105.88 15.84 1106.23 12.1 1100 5.77C1093.92 -0.4 1081.25 1.48 1081.25 0C1081.25 -1.41 1090.63 0 1100 0C1103.13 0 1103.22 -0.66 1106.25 0C1115.72 2.05 1115.92 5.42 1125 5.42C1130.29 5.42 1129.61 1.17 1135 0C1142.11 -1.54 1142.5 0 1150 0C1162.5 0 1162.5 0 1175 0C1182.95 0 1187.1 -4.83 1190.91 0C1196.96 7.67 1191.42 13.04 1194.72 25C1195.96 29.5 1197.33 32.92 1200 32.92C1202.7 32.92 1202.19 28.5 1205.46 25C1214.69 15.1 1214.96 15.24 1225 6.11C1228.71 2.74 1228.33 1.13 1232.97 0C1240.83 -1.92 1241.49 0 1250 0C1262.5 0 1262.5 0 1275 0C1282.07 0 1282.35 -1.33 1289.13 0C1294.85 1.12 1294.64 2.29 1300 4.9C1312.58 11.04 1315.89 18.98 1325 17.5C1330.93 16.53 1324.1 4.18 1330.07 0C1336.6 -4.57 1340.03 0 1350 0C1362.5 0 1362.5 0 1375 0C1387.5 0 1387.5 0 1400 0C1412.5 0 1412.5 0 1425 0C1437.5 0 1443.75 -6.25 1450 0C1456.25 6.25 1450 12.5 1450 25C1450 37.5 1450 37.5 1450 50C1450 58.63 1452.79 59.96 1450 67.26C1448.01 72.46 1440.44 71.01 1440.44 75C1440.44 79.16 1447.91 78.07 1450 83.55C1452.69 90.57 1454.96 96.74 1450 100C1442.46 104.96 1437.5 100 1425 100C1412.5 100 1412.5 100 1400 100C1393.59 100 1393.08 101.78 1387.18 100C1380.58 98.01 1380.49 92.46 1375 92.46C1371.23 92.46 1372.99 98.7 1368.67 100C1360.49 102.47 1359.34 100 1350 100C1337.5 100 1337.5 100 1325 100C1312.5 100 1312.5 100 1300 100C1287.5 100 1287.5 100 1275 100C1262.5 100 1262.5 100 1250 100C1240.16 100 1230.32 104.27 1230.32 100C1230.32 93.76 1240.56 89.78 1250 78.98C1251.49 77.28 1252.19 77.03 1252.19 75C1252.19 72.67 1252.34 70.47 1250 70.27C1238.74 69.33 1237.35 70.86 1225 72.73C1221.73 73.22 1221.55 73.24 1218.75 75C1209.05 81.11 1208.65 80.94 1200 88.46C1194.28 93.44 1196.31 97.09 1190 100C1183.81 102.86 1182.5 100 1175 100C1162.5 100 1162.5 100 1150 100C1137.5 100 1137.5 100 1125 100C1114.74 100 1113.28 102.6 1104.49 100C1100.78 98.9 1102.68 92.59 1100 92.59C1096.8 92.59 1097.35 98.63 1092.73 100C1084.85 102.34 1083.86 100 1075 100C1062.5 100 1062.5 100 1050 100C1037.5 100 1037.5 100 1025 100C1012.5 100 1012.5 100 1000 100C990.72 100 989.53 102.53 981.44 100C977.03 98.62 979.01 92.19 975 92.19C968.35 92.19 967.92 97.56 960.12 100C955.42 101.47 955.06 100 950 100C937.5 100 937.5 100 925 100C912.5 100 912.5 100 900 100C887.5 100 887.5 100 875 100C874.38 100 873.75 100.23 873.75 100C873.75 99.69 874.3 99.36 875 98.91C887.43 90.91 888.67 92.16 900 83.11C903.63 80.21 904.92 78.71 904.92 75C904.92 72.38 902.96 71.96 900 70.45C888 64.32 886.08 58.43 875 59.72C866.53 60.71 867.95 67.36 860.9 75C855.45 80.91 855.01 80.55 850 86.81C845 93.05 847.15 96.68 840.87 100C834.65 103.28 832.93 100 825 100C812.5 100 812.5 100 800 100C787.5 100 787.5 100 775 100C762.5 100 762.5 100 750 100C738.97 100 738.59 101.05 727.94 100C726.09 99.82 726.6 97.53 725 97.53C722.81 97.53 722.92 99.75 720.35 100C710.42 100.98 710.17 100 700 100C688.17 100 688.1 100.32 676.35 100C675.6 99.98 675.65 99.31 675 99.31C674.49 99.31 674.63 99.98 674.04 100C662.13 100.33 662.02 100 650 100C637.5 100 637.5 100 625 100C612.5 100 612.5 100 600 100C589.94 100 589.43 101.47 579.88 100C576.93 99.55 577.93 96.15 575 96.15C564.38 96.15 563.91 98.29 552.78 100C551.41 100.21 551.39 100 550 100C537.5 100 537.5 100 525 100C512.5 100 512.5 100 500 100C487.5 100 487.5 100 475 100C462.5 100 462.5 100 450 100C439.22 100 436.69 103.49 428.44 100C424.19 98.2 426.97 89.42 425 89.42C422.96 89.42 424.93 98.09 420.42 100C412.43 103.38 410.21 100 400 100C387.5 100 387.5 100 375 100C368.06 100 367.71 101.47 361.11 100C355.21 98.69 355.12 94.44 350 94.44C346.71 94.44 347.94 99.19 344.29 100C335.44 101.97 334.64 100 325 100C312.5 100 312.5 100 300 100C287.5 100 287.5 100 275 100C262.5 100 262.5 100 250 100C237.5 100 237.5 100 225 100C213.69 100 208.09 105.93 202.38 100C196.06 93.43 202.05 87.34 200.93 75C200.86 74.27 200.51 73.86 200 73.86C199.39 73.86 199.46 74.62 198.68 75C186.96 80.68 185.94 85.98 175 85.98C168.33 85.98 169.39 80.31 163.46 75C156.89 69.12 157.56 63.7 150 63.59C138.33 63.42 137.97 72.59 125 74.43C112.97 76.14 112.08 70.48 100 70.69C96.01 70.76 96 72.28 92.86 75C83.5 83.12 84.76 84.82 75 92.36C68.59 97.32 68.14 97.68 60.53 100C55.64 101.5 55.27 100 50 100C44.12 100 41.68 103.76 38.24 100C30.22 91.26 30.83 87.99 27.08 75C24.21 65.07 26.1 54.17 25 54.17C23.9 54.17 27.8 66.64 22.69 75C15.3 87.09 6.82 95.08 0 95.08C-4.52 95.08 0 85.04 0 75C0 62.5 0 62.5 0 50C0 37.5 0 37.5 0 25C0 12.5 -6.25 6.25 0 0C6.25 -6.25 12.5 0 25 0C34.16 0 34.21 -0.47 43.33 0" stroke="rgba(168, 85, 247, 1)" stroke-width="2"></path><path d="M75 15.91C71.06 17.91 71.54 20.24 71.47 25C71.28 37.29 72.79 37.56 74.48 50C74.55 50.54 74.74 50.96 75 50.96C75.26 50.96 75.07 50.32 75.51 50C87.57 41.27 86.55 38.17 100 32.86C111.3 28.4 112.71 32.71 125 30.45C134.04 28.78 142.65 27.75 142.65 25C142.65 22.25 133.76 22.41 125 19.44C112.44 15.18 112.73 11.43 100 10.53C87.73 9.66 85.33 10.67 75 15.91" stroke="rgba(168, 85, 247, 1)" stroke-width="2"></path><path d="M275 21.79C273.38 21.79 271.64 23.29 271.64 25C271.64 26.98 273.39 29.17 275 29.17C276.53 29.17 277.92 26.99 277.92 25C277.92 23.3 276.52 21.79 275 21.79" stroke="rgba(168, 85, 247, 1)" stroke-width="2"></path><path d="M350 10.98C341.41 14.75 339.2 16.37 335.98 25C331.91 35.88 331.35 39.64 335.42 50C338.36 57.49 343.39 60.71 350 60.71C355.05 60.71 353.98 54.99 358.75 50C366.48 41.9 367.39 42.71 375 34.52C379 30.21 381.98 30.19 381.98 25C381.98 16.86 381.77 10.83 375 7.86C365.78 3.82 360.92 6.18 350 10.98" stroke="rgba(168, 85, 247, 1)" stroke-width="2"></path><path d="M525 20.07C519.46 20.07 515.09 19.86 512.9 25C508.71 34.83 508.49 39.58 512.23 50C514.54 56.43 518.85 58.7 525 58.7C530.32 58.7 534.34 55.79 535.17 50C536.75 38.94 533.82 36.79 529.81 25C528.73 21.82 527.92 20.07 525 20.07" stroke="rgba(168, 85, 247, 1)" stroke-width="2"></path><path d="M650 24.14C649.47 24.14 649.32 24.58 649.32 25C649.32 25.4 649.5 25.79 650 25.79C654.84 25.79 660 25.41 660 25C660 24.59 654.81 24.14 650 24.14" stroke="rgba(168, 85, 247, 1)" stroke-width="2"></path><path d="M725 23.77C724.36 23.77 723.94 24.38 723.94 25C723.94 25.62 724.36 26.25 725 26.25C725.99 26.25 727.21 25.62 727.21 25C727.21 24.38 726 23.77 725 23.77" stroke="rgba(168, 85, 247, 1)" stroke-width="2"></path><path d="M975 19.79C970.79 19.79 966.07 21.61 966.07 25C966.07 29.57 971.06 35.71 975 35.71C978.45 35.71 980.86 29.85 980.86 25C980.86 21.89 978.19 19.79 975 19.79" stroke="rgba(168, 85, 247, 1)" stroke-width="2"></path><path d="M1025 20.24C1023.01 20.24 1023.11 22.74 1023.11 25C1023.11 26.4 1023.56 27.56 1025 27.56C1030.76 27.56 1037.5 26.79 1037.5 25C1037.5 23.13 1030.2 20.24 1025 20.24" stroke="rgba(168, 85, 247, 1)" stroke-width="2"></path><path d="M1350 17.19C1339.54 19.42 1329.84 20.65 1329.84 25C1329.84 29.52 1339.54 30.93 1350 34.92C1362.12 39.55 1365.74 45.14 1375 42.24C1381.57 40.18 1381.67 33.22 1381.67 25C1381.67 19.79 1380.04 16.62 1375 15.38C1364.21 12.72 1362.12 14.61 1350 17.19" stroke="rgba(168, 85, 247, 1)" stroke-width="2"></path><path d="M250 48.02C249.08 48.02 248.36 48.98 248.36 50C248.36 51.11 249.06 52.27 250 52.27C251.13 52.27 252.5 51.09 252.5 50C252.5 48.97 251.15 48.02 250 48.02" stroke="rgba(168, 85, 247, 1)" stroke-width="2"></path><path d="M600 44.68C595.54 44.68 591.38 47.76 591.38 50C591.38 52.04 595.62 53.25 600 53.25C605.61 53.25 611.36 52.08 611.36 50C611.36 47.79 605.53 44.68 600 44.68" stroke="rgba(168, 85, 247, 1)" stroke-width="2"></path><path d="M675 28C670.21 28 668.37 39.92 668.37 50C668.37 53.91 671.2 55.98 675 55.98C681.39 55.98 688.75 55.12 688.75 50C688.75 41.13 680.4 28 675 28" stroke="rgba(168, 85, 247, 1)" stroke-width="2"></path><path d="M825 48.81C824.31 48.88 824.22 49.43 824.22 50C824.22 50.47 824.43 50.73 825 50.89C837.32 54.38 838.34 57.6 850 57.29C855 57.16 858.33 52.76 858.33 50C858.33 47.83 854.3 47.58 850 47.43C837.64 46.99 837.2 47.59 825 48.81" stroke="rgba(168, 85, 247, 1)" stroke-width="2"></path><path d="M325 65.63C322.91 65.63 322.12 70.41 322.12 75C322.12 78.22 323.02 81.25 325 81.25C327.5 81.25 331.08 78.42 331.08 75C331.08 70.61 327.39 65.63 325 65.63" stroke="rgba(168, 85, 247, 1)" stroke-width="2"></path><path d="M400 67.5C398.71 67.5 398.68 71.44 398.68 75C398.68 75.91 399.16 76.44 400 76.44C401.9 76.44 404.17 76.52 404.17 75C404.17 72.05 401.45 67.5 400 67.5" stroke="rgba(168, 85, 247, 1)" stroke-width="2"></path><path d="M475 65.48C471.62 65.48 468.55 70.7 468.55 75C468.55 78.13 471.69 80.33 475 80.33C478.62 80.33 482.41 78.2 482.41 75C482.41 70.77 478.55 65.48 475 65.48" stroke="rgba(168, 85, 247, 1)" stroke-width="2"></path><path d="M550 67.86C547.02 67.86 544.07 70.76 544.07 75C544.07 86 547.01 98.33 550 98.33C552.99 98.33 556.03 85.98 556.03 75C556.03 70.74 553 67.86 550 67.86" stroke="rgba(168, 85, 247, 1)" stroke-width="2"></path><path d="M625 61.54C620.07 61.74 620.68 68.83 620.68 75C620.68 77.59 622.2 78.93 625 79.07C636.86 79.64 637.83 78.32 650 76.42C650.85 76.29 651.03 75.69 651.03 75C651.03 74.39 650.69 74.19 650 73.83C637.67 67.46 634.73 61.15 625 61.54" stroke="rgba(168, 85, 247, 1)" stroke-width="2"></path><path d="M775 66.95C770.58 66.95 767.46 71.34 767.46 75C767.46 78.09 770.85 80.46 775 80.46C782.04 80.46 789.84 78.27 789.84 75C789.84 71.51 781.77 66.95 775 66.95" stroke="rgba(168, 85, 247, 1)" stroke-width="2"></path><path d="M950 65.96C946.87 65.96 943.56 70.25 943.56 75C943.56 81.02 946.89 87.5 950 87.5C953.06 87.5 955.9 81.05 955.9 75C955.9 70.28 953.04 65.96 950 65.96" stroke="rgba(168, 85, 247, 1)" stroke-width="2"></path><path d="M1000 72.13C998.32 72.13 997.18 73.65 997.18 75C997.18 76.2 998.4 77.22 1000 77.22C1003.05 77.22 1006.48 76.25 1006.48 75C1006.48 73.71 1002.97 72.13 1000 72.13" stroke="rgba(168, 85, 247, 1)" stroke-width="2"></path><path d="M1175 72.44C1171.03 72.44 1167 73.09 1167 75C1167 77.23 1171.1 80.71 1175 80.71C1178.55 80.71 1181.9 77.27 1181.9 75C1181.9 73.13 1178.48 72.44 1175 72.44" stroke="rgba(168, 85, 247, 1)" stroke-width="2"></path><path d="M110.53 100C110.53 92.53 118.13 77.08 125 77.08C131.62 77.08 137.5 92.25 137.5 100C137.5 103.71 131.25 100 125 100C117.76 100 110.53 103.99 110.53 100" stroke="rgba(168, 85, 247, 1)" stroke-width="2"></path><path d="M0 7.92C6.25 7.92 20.06 15.29 20.5 25C21.02 36.33 4.45 36.52 1.92 50C-0.24 61.52 11.73 63.81 11.11 75C10.77 81.23 3.34 84.84 0 84.84C-2.21 84.84 0 79.92 0 75C0 62.5 0 62.5 0 50C0 37.5 0 37.5 0 25C0 16.46 -4 7.92 0 7.92" stroke="rgba(168, 85, 247, 1)" stroke-width="2"></path><path d="M28.95 25C31.92 14.93 40.25 9.42 50 9.42C57.83 9.42 61.51 15.76 64.12 25C67.24 36.05 58.91 38.27 61.46 50C64.35 63.27 77.8 64.98 75 75C72.07 85.46 61.14 90.96 50 90.96C42.39 90.96 40.18 84.17 37.5 75C34.2 63.69 40.11 62.11 38.04 50C35.84 37.11 25.94 35.22 28.95 25" stroke="rgba(168, 85, 247, 1)" stroke-width="2"></path><path d="M125 7.87C116.4 5.21 108.65 2.07 108.65 0C108.65 -1.87 116.82 0 125 0C137.5 0 137.5 0 150 0C162.5 0 162.5 0 175 0C184.72 0 194.44 -3.47 194.44 0C194.44 4.48 186.09 12.71 175 15.91C163.87 19.11 162.43 14.8 150 12.8C137.43 10.78 137.08 11.61 125 7.87" stroke="rgba(168, 85, 247, 1)" stroke-width="2"></path><path d="M206.67 25C209.98 12.28 208.36 9.06 215 0C217.52 -3.44 220 0 225 0C237.5 0 237.5 0 250 0C262.5 0 262.5 0 275 0C281.08 0 282.02 -2.41 287.16 0C294.52 3.45 293 6.63 300 11.73C310.17 19.13 321.5 17.81 321.5 25C321.5 32.72 310.98 33.6 300 41.54C293.68 46.1 286.9 45.79 286.9 50C286.9 54.19 294.35 53.14 300 58.33C307.95 65.64 308.39 65.81 314.1 75C320.89 85.95 319.27 87 325 98.61C325.44 99.5 326.43 99.6 326.43 100C326.43 100.29 325.72 100 325 100C322.22 100 322.19 100.38 319.44 100C309.69 98.66 309.51 96.57 300 96.57C295.98 96.57 296.44 99.44 292.39 100C283.94 101.16 283.69 100 275 100C262.5 100 262.5 100 250 100C242.19 100 239.38 104.29 234.38 100C226.88 93.58 229.45 89.37 225 78.57C224.3 76.87 225.22 76.42 224.07 75C213.72 62.14 206.94 64.18 202 50C198.24 39.18 203.48 37.28 206.67 25" stroke="rgba(168, 85, 247, 1)" stroke-width="2"></path><path d="M275 12.86C268.87 12.86 268.49 18.76 262.31 25C255.99 31.38 255.96 31.38 250 38.1C244.87 43.88 240.13 43.89 240.13 50C240.13 56.66 244.36 63.64 250 63.64C256.79 63.64 257.52 56.85 265 50C270.02 45.4 270.64 45.93 275 40.74C281.16 33.43 286.04 32.52 286.04 25C286.04 18.58 280.73 12.86 275 12.86" stroke="rgba(168, 85, 247, 1)" stroke-width="2"></path><path d="M389.24 25C389.24 17.07 392.47 14.24 400 9.32C410.35 2.55 412.35 4.75 425 1.61C431.1 0.09 431.22 0.4 437.5 0C443.72 -0.4 443.75 0 450 0C462.5 0 462.5 0 475 0C476.25 0 477 -1.07 477.5 0C482.88 11.43 485.26 12.16 486.76 25C488.18 37.16 487.75 40.38 483.33 50C481.87 53.18 477.74 47.84 475 50.6C465.31 60.34 458.47 63.98 458.47 75C458.47 83.02 466.51 88.67 475 88.67C484.26 88.67 487.61 84.01 493.98 75C500.11 66.34 493.21 54.92 500 53.33C508.72 51.29 512.93 59.93 525 67.75C529.66 70.77 531.52 70.08 533.47 75C537.9 86.2 540.58 91.68 537.76 100C536.34 104.18 531.38 100 525 100C512.5 100 512.5 100 500 100C487.5 100 487.5 100 475 100C462.5 100 462.5 100 450 100C443.13 100 439.24 104.41 436.25 100C430.77 91.91 433.97 87.55 433.06 75C432.15 62.55 435.4 61.46 432.61 50C431.37 44.89 430.03 43.12 425 41.86C413.72 39.03 409.94 46.51 400 41.82C392.06 38.08 389.24 33.32 389.24 25" stroke="rgba(168, 85, 247, 1)" stroke-width="2"></path><path d="M525 11.84C518.88 5.79 512.5 3.43 512.5 0C512.5 -2.49 518.75 0 525 0C537.5 0 537.5 0 550 0C562.5 0 562.5 0 575 0C579.53 0 584.06 -3.1 584.06 0C584.06 8.59 579.77 11.83 575 23.39C574.61 24.33 574.09 24.04 573.75 25C569.4 37.35 572.94 40.74 565.63 50C561.06 55.79 557.08 55.1 550 55.1C547.14 55.1 546.99 53.04 545.76 50C540.9 37.99 543.92 36.22 537.82 25C533.54 17.14 531.54 18.29 525 11.84" stroke="rgba(168, 85, 247, 1)" stroke-width="2"></path><path d="M725 13.52C719.05 13.52 715.14 19.24 715.14 25C715.14 30.82 719.03 36.67 725 36.67C734.25 36.67 745.59 30.8 745.59 25C745.59 19.22 734.27 13.52 725 13.52" stroke="rgba(168, 85, 247, 1)" stroke-width="2"></path><path d="M918.85 25C917.86 12.76 918.83 10.98 921.53 0C921.9 -1.52 923.26 0 925 0C926.79 0 927.31 -1.18 928.57 0C939.81 10.54 939.35 11.67 950 23.44C950.66 24.17 950.77 24.11 951.19 25C957.02 37.39 962.91 40.56 962.5 50C962.31 54.39 956.24 52.66 950 52.66C944.31 52.66 944.03 52.11 938.64 50C931.53 47.21 929.44 48.47 925 42.86C919.55 35.97 919.59 34.19 918.85 25" stroke="rgba(168, 85, 247, 1)" stroke-width="2"></path><path d="M975 11.11C968.6 5.5 962.1 3.16 962.1 0C962.1 -2.39 968.55 0 975 0C987.5 0 987.5 0 1000 0C1000 0 1000 0 1000 0C1005.66 12.5 1004.53 13.16 1011.32 25C1017.03 34.96 1016.54 36.37 1025 43.59C1031.19 48.87 1032.73 47.04 1040.63 50C1045.23 51.72 1045.7 52.94 1050 52.94C1051.75 52.94 1051.07 51.11 1052.73 50C1063.57 42.76 1063.19 37.72 1075 36.24C1086.82 34.76 1087.9 39.27 1100 44.07C1105.26 46.15 1105.23 46.53 1109.72 50C1117.73 56.2 1118.44 63.41 1125 63.41C1130.01 63.41 1132.86 56.32 1132.86 50C1132.86 45.18 1128.65 45.79 1125 41.13C1118.84 33.29 1113.24 32.64 1113.24 25C1113.24 18.55 1118.18 17.73 1125 12.95C1136.01 5.23 1136.88 6.22 1148.89 0C1149.38 -0.25 1149.45 0 1150 0C1162.5 0 1162.5 0 1175 0C1178.22 0 1180.16 -2.5 1181.44 0C1186.55 10 1182.78 13.32 1187.78 25C1192.06 34.98 1193.82 43.33 1200 43.33C1206.25 43.33 1205.59 33.54 1212.64 25C1218.09 18.41 1218.47 18.62 1225 13.06C1233.16 6.12 1232.92 4.76 1242.03 0C1245.42 -1.77 1246.01 0 1250 0C1258.09 0 1258.51 -1.56 1266.18 0C1271.01 0.98 1270.46 2.78 1275 5.08C1287.37 11.36 1287.85 10.52 1300 17.16C1306.07 20.48 1305.53 21.37 1311.43 25C1318.03 29.06 1318.1 28.99 1325 32.54C1337.38 38.91 1337.45 38.79 1350 44.84C1355.56 47.52 1356.11 46.62 1361.21 50C1368.61 54.91 1369.22 61.43 1375 61.43C1379.19 61.43 1378.69 55.99 1381.15 50C1386.19 37.77 1391.54 36.7 1390 25C1388.47 13.39 1385.12 7.32 1375 3.37C1365.12 -0.49 1361.51 10.45 1350 9.37C1343.58 8.77 1339.13 2.67 1339.13 0C1339.13 -2.02 1344.57 0 1350 0C1362.5 0 1362.5 0 1375 0C1387.5 0 1387.5 0 1400 0C1412.5 0 1412.5 0 1425 0C1437.5 0 1443.75 -6.25 1450 0C1456.25 6.25 1450 12.5 1450 25C1450 37.5 1450 37.5 1450 50C1450 51.19 1450.85 51.59 1450 52.38C1438.35 63.13 1438.14 63.99 1425 73.08C1421.79 75.3 1420.45 72.74 1417.31 75C1407.95 81.73 1409.99 89.29 1400 91.07C1388.83 93.06 1387.4 87.07 1375 82.54C1365.4 79.03 1364.42 80.2 1356 75C1351.92 72.48 1352.65 67.11 1350 67.11C1347.63 67.11 1345.95 71.37 1345.95 75C1345.95 77.34 1348.58 76.59 1350 79.05C1355.77 89.09 1360.33 92.74 1360.33 100C1360.33 103.21 1355.16 100 1350 100C1342.09 100 1341.05 102.52 1334.18 100C1328.55 97.93 1329.61 90.82 1325 90.82C1320.34 90.82 1321.33 97.91 1315.63 100C1308.83 102.5 1307.82 100 1300 100C1292.93 100 1292.24 102.07 1285.85 100C1279.74 98.02 1280.8 91.9 1275 91.9C1267.16 91.9 1267.09 97.24 1258.57 100C1254.59 101.29 1254.28 100 1250 100C1246.81 100 1243.62 101.38 1243.62 100C1243.62 97.97 1247.46 97.06 1250 93.18C1255.65 84.56 1260 84.26 1260 75C1260 64.36 1258.14 55.8 1250 53.38C1240.64 50.6 1237.93 60.31 1225 64.61C1212.93 68.62 1212.49 70.05 1200 70C1187.49 69.95 1187.42 64.06 1175 64.42C1162.42 64.78 1162.31 67.41 1150 71.43C1146.1 72.7 1143.62 71.47 1142.59 75C1139.46 85.75 1146.95 92.5 1141.67 100C1138.15 105 1133.34 100 1125 100C1118.26 100 1116.24 103.59 1111.52 100C1103.74 94.1 1107.39 88.71 1100 81.02C1095.38 76.21 1093.82 77.85 1087.5 75C1081.32 72.22 1080.78 69.76 1075 69.76C1071.73 69.76 1069.4 71.84 1069.4 75C1069.4 80.48 1072.13 81.05 1075 87.04C1078.11 93.55 1081.36 95.5 1081.36 100C1081.36 101.98 1078.18 100 1075 100C1067.71 100 1067.44 101.28 1060.42 100C1054.94 99 1054.9 95.45 1050 95.45C1046.91 95.45 1047.81 99.39 1044.44 100C1035.31 101.66 1034.72 100 1025 100C1012.5 100 1012.5 100 1000 100C993.94 100 987.89 102.88 987.89 100C987.89 95.44 992.12 89.78 1000 85.13C1010.67 78.84 1013.09 82.52 1025 78.13C1026.84 77.45 1027.5 76.81 1027.5 75C1027.5 71.08 1028.5 68.34 1025 66.67C1014.75 61.78 1011 59.47 1000 61.89C992.05 63.64 993.92 68.86 987.1 75C981.42 80.11 980.88 84.38 975 84.38C969.62 84.38 964.58 80.71 964.58 75C964.58 65.3 969.2 63.86 975 53.57C976.25 51.36 977.46 52.23 978.68 50C985.27 37.95 991.68 36.08 990.63 25C989.84 16.64 982.86 18 975 11.11" stroke="rgba(168, 85, 247, 1)" stroke-width="2"></path><path d="M1050 6.25C1044.78 6.25 1038.33 1.66 1038.33 0C1038.33 -1.46 1044.16 0 1050 0C1052.57 0 1055.15 -1.21 1055.15 0C1055.15 1.91 1053.19 6.25 1050 6.25" stroke="rgba(168, 85, 247, 1)" stroke-width="2"></path><path d="M88.27 50C88.27 45.63 93.31 43.28 100 41.79C111.68 39.19 112.82 39.82 125 41.82C137.82 43.92 150 45.46 150 50C150 54.66 137.98 57.66 125 60.23C112.98 62.61 111.38 63.08 100 59.91C93.01 57.96 88.27 54.69 88.27 50" stroke="rgba(168, 85, 247, 1)" stroke-width="2"></path><path d="M150 50C150 39.89 162.71 30.36 175 30.36C186.67 30.36 197.92 39.91 197.92 50C197.92 60.52 186.69 71.57 175 71.57C162.73 71.57 150 60.5 150 50" stroke="rgba(168, 85, 247, 1)" stroke-width="2"></path><path d="M369.17 50C371.8 46.95 371.68 44.44 375 44.44C380.06 44.44 383.85 44.98 385.94 50C390.21 60.26 383.65 63.86 387.72 75C390.68 83.09 393.94 81.66 400 88.46C405.08 94.16 410 96.51 410 100C410 102.28 405 100 400 100C392.31 100 391.43 102.32 384.62 100C378.93 98.06 380.33 95.01 375 91.48C363.02 83.55 362.28 84.57 350 77.08C348.76 76.33 347.97 75.96 347.97 75C347.97 74.16 349.18 74.44 350 73.47C359.78 61.94 359.3 61.47 369.17 50" stroke="rgba(168, 85, 247, 1)" stroke-width="2"></path><path d="M1275 48.5C1270.44 49.78 1265.63 49.26 1265.63 50C1265.63 50.74 1270.35 50.53 1275 51.47C1287.54 54 1288.83 57.49 1300 56.94C1303.64 56.76 1304.63 53.63 1304.63 50C1304.63 45.35 1304.28 40.6 1300 40.38C1289.46 39.85 1287.63 44.97 1275 48.5" stroke="rgba(168, 85, 247, 1)" stroke-width="2"></path><path d="M1173.08 100C1173.08 99.6 1174.14 98.57 1175 98.57C1175.65 98.57 1176.11 99.56 1176.11 100C1176.11 100.27 1175.55 100 1175 100C1174.04 100 1173.08 100.32 1173.08 100" stroke="rgba(168, 85, 247, 1)" stroke-width="2"></path><path d="M0 18.33C2.44 18.33 8 21.24 8 25C8 29.7 2.24 35.26 0 35.26C-1.76 35.26 0 30.13 0 25C0 21.66 -1.56 18.33 0 18.33" stroke="rgba(168, 85, 247, 1)" stroke-width="2"></path><path d="M39.91 25C39.91 19.96 45.33 17.53 50 17.53C53.75 17.53 56.76 20.51 56.76 25C56.76 35.31 54.11 47.12 50 47.12C45.68 47.12 39.91 34.76 39.91 25" stroke="rgba(168, 85, 247, 1)" stroke-width="2"></path><path d="M240.91 25C236.5 14.81 234.74 8.42 237.8 0C239.28 -4.08 243.9 0 250 0C262.5 0 262.5 0 275 0C276.86 0 278.72 -0.8 278.72 0C278.72 1.16 276.94 2.04 275 3.93C264.08 14.54 263.93 14.4 252.99 25C251.43 26.52 251.88 28.17 250 28.17C245.84 28.17 242.6 28.89 240.91 25" stroke="rgba(168, 85, 247, 1)" stroke-width="2"></path><path d="M294.16 25C294.16 22.06 296.79 19.44 300 19.44C304.21 19.44 309 21.99 309 25C309 28.23 304.13 31.92 300 31.92C296.71 31.92 294.16 28.3 294.16 25" stroke="rgba(168, 85, 247, 1)" stroke-width="2"></path><path d="M396.51 25C396.51 22.43 397.19 20.24 400 19.92C411.43 18.62 413.03 19.63 425 21.77C427.26 22.17 428.45 23.52 428.45 25C428.45 26.3 427.02 26.94 425 27.33C412.79 29.67 411.33 31.38 400 30.45C397.09 30.21 396.51 27.7 396.51 25" stroke="rgba(168, 85, 247, 1)" stroke-width="2"></path><path d="M525 3.62C523.15 1.75 521.18 1.05 521.18 0C521.18 -0.76 523.09 0 525 0C537.5 0 537.5 0 550 0C562.5 0 562.5 0 575 0C575.63 0 576.25 -0.43 576.25 0C576.25 1.19 576.01 1.83 575 3.23C566.95 14.33 566.38 13.98 558.13 25C553.88 30.67 553.29 36.61 550 36.61C547.14 36.61 549.49 29.82 545.83 25C536.99 13.33 535.48 14.25 525 3.62" stroke="rgba(168, 85, 247, 1)" stroke-width="2"></path><path d="M609.56 25C609.56 20.6 618.09 16.25 625 16.25C629.41 16.25 632.19 20.61 632.19 25C632.19 29.44 629.42 33.9 625 33.9C618.11 33.9 609.56 29.42 609.56 25" stroke="rgba(168, 85, 247, 1)" stroke-width="2"></path><path d="M650 2.59C648.34 2.59 646.67 0.72 646.67 0C646.67 -0.57 648.34 0 650 0C651.63 0 653.26 -0.57 653.26 0C653.26 0.73 651.64 2.59 650 2.59" stroke="rgba(168, 85, 247, 1)" stroke-width="2"></path><path d="M693.08 25C693.08 21.98 696.59 19.94 700 19.94C703.22 19.94 706.34 22.02 706.34 25C706.34 29.05 703.26 34 700 34C696.63 34 693.08 29.01 693.08 25" stroke="rgba(168, 85, 247, 1)" stroke-width="2"></path><path d="M725 3.28C723.09 3.28 722.47 1.02 722.47 0C722.47 -0.62 723.74 0 725 0C735 0 745 -0.81 745 0C745 0.83 734.35 3.28 725 3.28" stroke="rgba(168, 85, 247, 1)" stroke-width="2"></path><path d="M825 10.29C823.78 10.29 822.73 4.23 822.73 0C822.73 -0.91 823.87 0 825 0C826.31 0 827.61 -1.02 827.61 0C827.61 4.13 826.22 10.29 825 10.29" stroke="rgba(168, 85, 247, 1)" stroke-width="2"></path><path d="M836.9 25C836.9 23.03 843.61 23.51 850 21.13C862.66 16.42 865.4 9.58 875 10.83C880.32 11.52 879.83 18.17 879.83 25C879.83 29.27 879.03 32.47 875 33.02C864.11 34.49 862.36 31.64 850 29.04C843.31 27.63 836.9 26.98 836.9 25" stroke="rgba(168, 85, 247, 1)" stroke-width="2"></path><path d="M975 2.43C973.41 2.43 972.18 0.69 972.18 0C972.18 -0.52 973.59 0 975 0C977.74 0 980.47 -0.58 980.47 0C980.47 0.63 977.56 2.43 975 2.43" stroke="rgba(168, 85, 247, 1)" stroke-width="2"></path><path d="M1120.59 25C1120.59 22.58 1122.14 21.67 1125 20.48C1136.85 15.56 1137.39 16.21 1150 12.78C1162.39 9.42 1166.14 3.39 1175 6.9C1181.56 9.5 1177.3 16.19 1180.83 25C1185.92 37.74 1193.99 40.59 1192.24 50C1191.07 56.3 1183.89 54.25 1175 56.41C1162.77 59.38 1160.93 62.38 1150 60.27C1144.32 59.17 1146.06 54.99 1141.79 50C1133.56 40.38 1133.18 40.7 1125 31.05C1122.58 28.2 1120.59 27.87 1120.59 25" stroke="rgba(168, 85, 247, 1)" stroke-width="2"></path><path d="M1219.83 25C1221.6 21.91 1221.96 20 1225 20C1230.32 20 1234.45 19.98 1236.54 25C1240.7 34.98 1241.19 39.93 1237.5 50C1235.42 55.67 1231.44 56.49 1225 56.49C1216.57 56.49 1208.79 56.28 1207.76 50C1206.21 40.54 1212.98 36.91 1219.83 25" stroke="rgba(168, 85, 247, 1)" stroke-width="2"></path><path d="M1262.21 25C1262.21 20.08 1268.26 15.68 1275 15.68C1283.53 15.68 1292.74 20.02 1292.74 25C1292.74 30.18 1283.44 36 1275 36C1268.18 36 1262.21 30.24 1262.21 25" stroke="rgba(168, 85, 247, 1)" stroke-width="2"></path><path d="M1350 1.56C1348.92 1.56 1348.19 0.44 1348.19 0C1348.19 -0.34 1349.1 0 1350 0C1352.72 0 1355.43 -0.38 1355.43 0C1355.43 0.4 1352.54 1.56 1350 1.56" stroke="rgba(168, 85, 247, 1)" stroke-width="2"></path><path d="M1398.33 25C1397.24 12.15 1385.98 8.41 1386.54 0C1386.81 -4.09 1393.27 0 1400 0C1411.93 0 1421.24 -5.76 1423.86 0C1426.92 6.74 1410.99 15.09 1411.36 25C1411.56 30.17 1418.74 30.17 1425 30.17C1428.14 30.17 1427.18 27.08 1430.17 25C1439.68 18.38 1443.5 12.77 1450 12.77C1453.41 12.77 1450 18.88 1450 25C1450 31.53 1452.6 32.61 1450 38.07C1446.64 45.11 1444.27 44.29 1438.07 50C1431.77 55.79 1432.68 58.03 1425 61.06C1413.65 65.53 1410.09 68.26 1400 65C1392.98 62.73 1391.11 58.05 1390.77 50C1390.27 38.05 1399.36 37.15 1398.33 25" stroke="rgba(168, 85, 247, 1)" stroke-width="2"></path><path d="M164.2 50C164.2 45.64 169.69 41.52 175 41.52C180.04 41.52 184.9 45.65 184.9 50C184.9 54.54 180.05 59.31 175 59.31C169.7 59.31 164.2 54.53 164.2 50" stroke="rgba(168, 85, 247, 1)" stroke-width="2"></path><path d="M214.5 50C214.5 42.82 220.42 35 225 35C229.13 35 231.91 42.68 231.91 50C231.91 56.01 229.03 61.67 225 61.67C220.33 61.67 214.5 56.16 214.5 50" stroke="rgba(168, 85, 247, 1)" stroke-width="2"></path><path d="M446.2 50C446.2 46.91 447.83 44.53 450 44.53C452.56 44.53 455.65 46.6 455.65 50C455.65 57.29 452.4 65.91 450 65.91C447.67 65.91 446.2 57.6 446.2 50" stroke="rgba(168, 85, 247, 1)" stroke-width="2"></path><path d="M644.39 50C644.39 47.83 647.48 45.63 650 45.63C651.94 45.63 653.31 47.82 653.31 50C653.31 52.16 651.94 54.3 650 54.3C647.48 54.3 644.39 52.16 644.39 50" stroke="rgba(168, 85, 247, 1)" stroke-width="2"></path><path d="M720.51 50C722.66 48.4 722.69 47.08 725 47.08C727.67 47.08 728.72 47.53 730.47 50C738.63 61.49 746.41 65.73 744.83 75C743.68 81.78 735.05 78.97 725 82.1C712.63 85.95 712.49 89.01 700 88.97C687.49 88.93 686.58 87.02 675 81.94C670.65 80.03 668.15 78.26 668.15 75C668.15 72.08 670.91 70.77 675 69.57C686.84 66.11 688.74 70.53 700 65.69C711.49 60.75 710.16 57.71 720.51 50" stroke="rgba(168, 85, 247, 1)" stroke-width="2"></path><path d="M786.36 50C786.36 45.61 794.49 39.66 800 39.66C803.66 39.66 804.69 45.1 804.69 50C804.69 53.33 803.12 56.12 800 56.12C793.95 56.12 786.36 53.84 786.36 50" stroke="rgba(168, 85, 247, 1)" stroke-width="2"></path><path d="M897.5 50C897.5 49.3 898.73 48.67 900 48.67C901.41 48.67 902.86 49.3 902.86 50C902.86 50.72 901.41 51.52 900 51.52C898.73 51.52 897.5 50.72 897.5 50" stroke="rgba(168, 85, 247, 1)" stroke-width="2"></path><path d="M997.06 50C997.06 40.72 997.97 30 1000 30C1002.07 30 1005.26 41.46 1005.26 50C1005.26 52.28 1002.54 51.64 1000 51.64C998.44 51.64 997.06 51.54 997.06 50" stroke="rgba(168, 85, 247, 1)" stroke-width="2"></path><path d="M1064.09 50C1064.09 46.16 1069.24 43.26 1075 43.26C1083.27 43.26 1092.14 46.03 1092.14 50C1092.14 54.24 1083.06 59.68 1075 59.68C1069.03 59.68 1064.09 54.37 1064.09 50" stroke="rgba(168, 85, 247, 1)" stroke-width="2"></path><path d="M1316.2 50C1319.75 45.48 1320.12 42.46 1325 42.46C1332.18 42.46 1339.54 43.76 1340.32 50C1341.57 60.03 1335.51 63.16 1329.05 75C1327.85 77.19 1326.84 76.32 1325 78.06C1313.62 88.82 1314.14 89.87 1302.6 100C1301.64 100.84 1301.3 100 1300 100C1298.82 100 1298.6 100.65 1297.64 100C1286.1 92.2 1285.78 92.14 1275 83.1C1270.87 79.64 1267.81 79.33 1267.81 75C1267.81 69.65 1269.69 63.84 1275 63.73C1285.78 63.5 1290.08 77.62 1300 74.31C1310.68 70.75 1307.25 61.4 1316.2 50" stroke="rgba(168, 85, 247, 1)" stroke-width="2"></path><path d="M47.92 75C47.92 67.47 48.46 59.38 50 59.38C51.58 59.38 54.17 68 54.17 75C54.17 77.14 51.86 77.66 50 77.66C48.73 77.66 47.92 76.61 47.92 75" stroke="rgba(168, 85, 247, 1)" stroke-width="2"></path><path d="M250 75C250 65.56 261.69 57.13 275 55.21C286.69 53.53 288.37 60.4 300 67.8C303.92 70.29 306.09 71.21 306.09 75C306.09 79.47 304.64 81.78 300 84.31C289.1 90.26 286.6 94.12 275 91.96C261.6 89.46 250 83.94 250 75" stroke="rgba(168, 85, 247, 1)" stroke-width="2"></path><path d="M371.15 75C371.15 72.17 373.52 68.33 375 68.33C376.32 68.33 376.75 71.84 376.75 75C376.75 76.31 376.09 77.27 375 77.27C373.29 77.27 371.15 76.64 371.15 75" stroke="rgba(168, 85, 247, 1)" stroke-width="2"></path><path d="M581.52 75C581.52 70.82 591.49 69.48 600 69.48C603.36 69.48 605.25 71.76 605.25 75C605.25 80.77 604.48 87.5 600 87.5C592.62 87.5 581.52 79.83 581.52 75" stroke="rgba(168, 85, 247, 1)" stroke-width="2"></path><path d="M822.56 75C822.56 73.82 823.76 73.21 825 73.21C826.33 73.21 827.7 73.78 827.7 75C827.7 77.06 826.3 79.76 825 79.76C823.73 79.76 822.56 77.09 822.56 75" stroke="rgba(168, 85, 247, 1)" stroke-width="2"></path><path d="M973.26 75C973.26 73.39 974.08 71.43 975 71.43C975.96 71.43 977.02 73.42 977.02 75C977.02 75.98 975.98 76.56 975 76.56C974.1 76.56 973.26 75.95 973.26 75" stroke="rgba(168, 85, 247, 1)" stroke-width="2"></path><path d="M1040 75C1040 70.19 1045.18 65.2 1050 65.2C1054.49 65.2 1058.62 70.18 1058.62 75C1058.62 79.63 1054.48 84.09 1050 84.09C1045.17 84.09 1040 79.64 1040 75" stroke="rgba(168, 85, 247, 1)" stroke-width="2"></path><path d="M444.06 100C444.06 91.91 443.62 79.97 450 79.35C459.09 78.47 461.66 94.83 475 97C486.66 98.9 487.78 86.77 500 87.5C512.78 88.27 525 96.7 525 100C525 102.95 512.5 100 500 100C487.5 100 487.5 100 475 100C462.5 100 462.5 100 450 100C447.03 100 444.06 102.24 444.06 100" stroke="rgba(168, 85, 247, 1)" stroke-width="2"></path><path d="M610.9 100C610.9 98.33 617.67 93.6 625 93.6C637.22 93.6 650 98.37 650 100C650 101.57 637.5 100 625 100C617.95 100 610.9 101.53 610.9 100" stroke="rgba(168, 85, 247, 1)" stroke-width="2"></path><path d="M746.32 100C746.32 93.65 744.67 85.34 750 84.38C759.01 82.76 762.8 89.04 775 94.83C779.25 96.85 782.89 98.59 782.89 100C782.89 101.18 778.94 100 775 100C762.5 100 762.5 100 750 100C748.16 100 746.32 101.46 746.32 100" stroke="rgba(168, 85, 247, 1)" stroke-width="2"></path><path d="M916.89 100C916.89 91.33 921.27 76.92 925 76.92C928.66 76.92 931.67 90.97 931.67 100C931.67 102.51 928.34 100 925 100C920.94 100 916.89 102.87 916.89 100" stroke="rgba(168, 85, 247, 1)" stroke-width="2"></path><path d="M994.33 100C994.33 97.87 995.95 93.87 1000 93.04C1011.28 90.74 1013.55 91.14 1025 93.75C1028.83 94.62 1030.56 98.12 1030.56 100C1030.56 101.25 1027.78 100 1025 100C1012.5 100 1012.5 100 1000 100C997.16 100 994.33 101.35 994.33 100" stroke="rgba(168, 85, 247, 1)" stroke-width="2"></path><path d="M1118.54 100C1118.54 92.43 1121.43 80.17 1125 80.17C1128.66 80.17 1132.99 92.78 1132.99 100C1132.99 102.7 1128.99 100 1125 100C1121.77 100 1118.54 102.34 1118.54 100" stroke="rgba(168, 85, 247, 1)" stroke-width="2"></path><path d="M1346.94 100C1346.94 98.74 1348.66 95.95 1350 95.95C1351.19 95.95 1352 98.6 1352 100C1352 100.62 1351 100 1350 100C1348.47 100 1346.94 100.76 1346.94 100" stroke="rgba(168, 85, 247, 1)" stroke-width="2"></path></g><defs><mask id="SvgjsMask1005"><rect width="1440" height="100" fill="#ffffff"></rect></mask></defs></svg>