<svg xmlns="http://www.w3.org/2000/svg" version="1.1" xmlns:xlink="http://www.w3.org/1999/xlink" xmlns:svgjs="http://svgjs.com/svgjs" width="1440" height="560" preserveAspectRatio="none" viewBox="0 0 1440 560"><g mask="url(&quot;#SvgjsMask1012&quot;)" fill="none"><path d="M-51.32 377.26L-51.32 377.26" stroke="rgba(168, 85, 247, 1)" stroke-width="1.5"></path><path d="M-51.32 377.26L-48.06 547.05" stroke="rgba(168, 85, 247, 1)" stroke-width="1.5"></path><path d="M-48.06 547.05L-48.06 547.05" stroke="rgba(168, 85, 247, 1)" stroke-width="1.5"></path><path d="M-48.06 547.05L-89.37 686.71" stroke="rgba(168, 85, 247, 1)" stroke-width="1.5"></path><path d="M-48.06 547.05L97.3 499.41" stroke="rgba(168, 85, 247, 1)" stroke-width="1.5"></path><path d="M-48.06 547.05L104.05 658.43" stroke="rgba(168, 85, 247, 1)" stroke-width="1.5"></path><path d="M-48.06 547.05L229.34 523.48" stroke="rgba(168, 85, 247, 1)" stroke-width="1.5"></path><path d="M-89.37 686.71L-89.37 686.71" stroke="rgba(168, 85, 247, 1)" stroke-width="1.5"></path><path d="M97.3 499.41L97.3 499.41" stroke="rgba(168, 85, 247, 1)" stroke-width="1.5"></path><path d="M97.3 499.41L229.34 523.48" stroke="rgba(168, 85, 247, 1)" stroke-width="1.5"></path><path d="M104.05 658.43L104.05 658.43" stroke="rgba(168, 85, 247, 1)" stroke-width="1.5"></path><path d="M104.05 658.43L244.23 705.76" stroke="rgba(168, 85, 247, 1)" stroke-width="1.5"></path><path d="M104.05 658.43L97.3 499.41" stroke="rgba(168, 85, 247, 1)" stroke-width="1.5"></path><path d="M104.05 658.43L229.34 523.48" stroke="rgba(168, 85, 247, 1)" stroke-width="1.5"></path><path d="M104.05 658.43L-89.37 686.71" stroke="rgba(168, 85, 247, 1)" stroke-width="1.5"></path><path d="M239.65 374.7L239.65 374.7" stroke="rgba(168, 85, 247, 1)" stroke-width="1.5"></path><path d="M239.65 374.7L338.67 338.15" stroke="rgba(168, 85, 247, 1)" stroke-width="1.5"></path><path d="M239.65 374.7L229.34 523.48" stroke="rgba(168, 85, 247, 1)" stroke-width="1.5"></path><path d="M239.65 374.7L358.53 489.38" stroke="rgba(168, 85, 247, 1)" stroke-width="1.5"></path><path d="M229.34 523.48L229.34 523.48" stroke="rgba(168, 85, 247, 1)" stroke-width="1.5"></path><path d="M229.34 523.48L358.53 489.38" stroke="rgba(168, 85, 247, 1)" stroke-width="1.5"></path><path d="M229.34 523.48L244.23 705.76" stroke="rgba(168, 85, 247, 1)" stroke-width="1.5"></path><path d="M229.34 523.48L361.33 681.29" stroke="rgba(168, 85, 247, 1)" stroke-width="1.5"></path><path d="M244.23 705.76L244.23 705.76" stroke="rgba(168, 85, 247, 1)" stroke-width="1.5"></path><path d="M244.23 705.76L361.33 681.29" stroke="rgba(168, 85, 247, 1)" stroke-width="1.5"></path><path d="M244.23 705.76L358.53 489.38" stroke="rgba(168, 85, 247, 1)" stroke-width="1.5"></path><path d="M338.67 338.15L338.67 338.15" stroke="rgba(168, 85, 247, 1)" stroke-width="1.5"></path><path d="M338.67 338.15L358.53 489.38" stroke="rgba(168, 85, 247, 1)" stroke-width="1.5"></path><path d="M338.67 338.15L537.02 338.71" stroke="rgba(168, 85, 247, 1)" stroke-width="1.5"></path><path d="M338.67 338.15L229.34 523.48" stroke="rgba(168, 85, 247, 1)" stroke-width="1.5"></path><path d="M358.53 489.38L358.53 489.38" stroke="rgba(168, 85, 247, 1)" stroke-width="1.5"></path><path d="M361.33 681.29L361.33 681.29" stroke="rgba(168, 85, 247, 1)" stroke-width="1.5"></path><path d="M361.33 681.29L513.61 673.37" stroke="rgba(168, 85, 247, 1)" stroke-width="1.5"></path><path d="M361.33 681.29L358.53 489.38" stroke="rgba(168, 85, 247, 1)" stroke-width="1.5"></path><path d="M361.33 681.29L510.71 557.87" stroke="rgba(168, 85, 247, 1)" stroke-width="1.5"></path><path d="M361.33 681.29L104.05 658.43" stroke="rgba(168, 85, 247, 1)" stroke-width="1.5"></path><path d="M537.02 338.71L537.02 338.71" stroke="rgba(168, 85, 247, 1)" stroke-width="1.5"></path><path d="M537.02 338.71L649.44 404.88" stroke="rgba(168, 85, 247, 1)" stroke-width="1.5"></path><path d="M537.02 338.71L691.27 240.04" stroke="rgba(168, 85, 247, 1)" stroke-width="1.5"></path><path d="M510.71 557.87L510.71 557.87" stroke="rgba(168, 85, 247, 1)" stroke-width="1.5"></path><path d="M510.71 557.87L513.61 673.37" stroke="rgba(168, 85, 247, 1)" stroke-width="1.5"></path><path d="M510.71 557.87L358.53 489.38" stroke="rgba(168, 85, 247, 1)" stroke-width="1.5"></path><path d="M510.71 557.87L651.23 653.8" stroke="rgba(168, 85, 247, 1)" stroke-width="1.5"></path><path d="M513.61 673.37L513.61 673.37" stroke="rgba(168, 85, 247, 1)" stroke-width="1.5"></path><path d="M513.61 673.37L651.23 653.8" stroke="rgba(168, 85, 247, 1)" stroke-width="1.5"></path><path d="M513.61 673.37L358.53 489.38" stroke="rgba(168, 85, 247, 1)" stroke-width="1.5"></path><path d="M691.27 240.04L691.27 240.04" stroke="rgba(168, 85, 247, 1)" stroke-width="1.5"></path><path d="M691.27 240.04L790.53 207.22" stroke="rgba(168, 85, 247, 1)" stroke-width="1.5"></path><path d="M691.27 240.04L804.27 337.97" stroke="rgba(168, 85, 247, 1)" stroke-width="1.5"></path><path d="M691.27 240.04L649.44 404.88" stroke="rgba(168, 85, 247, 1)" stroke-width="1.5"></path><path d="M691.27 240.04L951.76 242.63" stroke="rgba(168, 85, 247, 1)" stroke-width="1.5"></path><path d="M691.27 240.04L949.76 45.88" stroke="rgba(168, 85, 247, 1)" stroke-width="1.5"></path><path d="M649.44 404.88L649.44 404.88" stroke="rgba(168, 85, 247, 1)" stroke-width="1.5"></path><path d="M649.44 404.88L804.27 337.97" stroke="rgba(168, 85, 247, 1)" stroke-width="1.5"></path><path d="M651.23 653.8L651.23 653.8" stroke="rgba(168, 85, 247, 1)" stroke-width="1.5"></path><path d="M651.23 653.8L813.88 662.29" stroke="rgba(168, 85, 247, 1)" stroke-width="1.5"></path><path d="M790.53 207.22L790.53 207.22" stroke="rgba(168, 85, 247, 1)" stroke-width="1.5"></path><path d="M790.53 207.22L804.27 337.97" stroke="rgba(168, 85, 247, 1)" stroke-width="1.5"></path><path d="M790.53 207.22L951.76 242.63" stroke="rgba(168, 85, 247, 1)" stroke-width="1.5"></path><path d="M790.53 207.22L949.76 45.88" stroke="rgba(168, 85, 247, 1)" stroke-width="1.5"></path><path d="M804.27 337.97L804.27 337.97" stroke="rgba(168, 85, 247, 1)" stroke-width="1.5"></path><path d="M791.51 551.76L791.51 551.76" stroke="rgba(168, 85, 247, 1)" stroke-width="1.5"></path><path d="M791.51 551.76L813.88 662.29" stroke="rgba(168, 85, 247, 1)" stroke-width="1.5"></path><path d="M791.51 551.76L651.23 653.8" stroke="rgba(168, 85, 247, 1)" stroke-width="1.5"></path><path d="M813.88 662.29L813.88 662.29" stroke="rgba(168, 85, 247, 1)" stroke-width="1.5"></path><path d="M813.88 662.29L991.21 698.75" stroke="rgba(168, 85, 247, 1)" stroke-width="1.5"></path><path d="M813.88 662.29L513.61 673.37" stroke="rgba(168, 85, 247, 1)" stroke-width="1.5"></path><path d="M813.88 662.29L649.44 404.88" stroke="rgba(168, 85, 247, 1)" stroke-width="1.5"></path><path d="M813.88 662.29L978.97 392.08" stroke="rgba(168, 85, 247, 1)" stroke-width="1.5"></path><path d="M961.78 -110.33L961.78 -110.33" stroke="rgba(168, 85, 247, 1)" stroke-width="1.5"></path><path d="M961.78 -110.33L949.76 45.88" stroke="rgba(168, 85, 247, 1)" stroke-width="1.5"></path><path d="M961.78 -110.33L1156.82 -94.64" stroke="rgba(168, 85, 247, 1)" stroke-width="1.5"></path><path d="M961.78 -110.33L1133.49 108.83" stroke="rgba(168, 85, 247, 1)" stroke-width="1.5"></path><path d="M961.78 -110.33L1100.92 197.78" stroke="rgba(168, 85, 247, 1)" stroke-width="1.5"></path><path d="M949.76 45.88L949.76 45.88" stroke="rgba(168, 85, 247, 1)" stroke-width="1.5"></path><path d="M949.76 45.88L1133.49 108.83" stroke="rgba(168, 85, 247, 1)" stroke-width="1.5"></path><path d="M949.76 45.88L951.76 242.63" stroke="rgba(168, 85, 247, 1)" stroke-width="1.5"></path><path d="M949.76 45.88L1100.92 197.78" stroke="rgba(168, 85, 247, 1)" stroke-width="1.5"></path><path d="M951.76 242.63L951.76 242.63" stroke="rgba(168, 85, 247, 1)" stroke-width="1.5"></path><path d="M951.76 242.63L978.97 392.08" stroke="rgba(168, 85, 247, 1)" stroke-width="1.5"></path><path d="M951.76 242.63L1100.92 197.78" stroke="rgba(168, 85, 247, 1)" stroke-width="1.5"></path><path d="M951.76 242.63L804.27 337.97" stroke="rgba(168, 85, 247, 1)" stroke-width="1.5"></path><path d="M978.97 392.08L978.97 392.08" stroke="rgba(168, 85, 247, 1)" stroke-width="1.5"></path><path d="M978.97 392.08L1152.06 380.62" stroke="rgba(168, 85, 247, 1)" stroke-width="1.5"></path><path d="M991.21 698.75L991.21 698.75" stroke="rgba(168, 85, 247, 1)" stroke-width="1.5"></path><path d="M991.21 698.75L1156.17 681.64" stroke="rgba(168, 85, 247, 1)" stroke-width="1.5"></path><path d="M991.21 698.75L1121.93 549.35" stroke="rgba(168, 85, 247, 1)" stroke-width="1.5"></path><path d="M991.21 698.75L791.51 551.76" stroke="rgba(168, 85, 247, 1)" stroke-width="1.5"></path><path d="M1156.82 -94.64L1156.82 -94.64" stroke="rgba(168, 85, 247, 1)" stroke-width="1.5"></path><path d="M1156.82 -94.64L1304.5 -104.57" stroke="rgba(168, 85, 247, 1)" stroke-width="1.5"></path><path d="M1156.82 -94.64L1133.49 108.83" stroke="rgba(168, 85, 247, 1)" stroke-width="1.5"></path><path d="M1156.82 -94.64L1287.44 68.73" stroke="rgba(168, 85, 247, 1)" stroke-width="1.5"></path><path d="M1133.49 108.83L1133.49 108.83" stroke="rgba(168, 85, 247, 1)" stroke-width="1.5"></path><path d="M1133.49 108.83L1100.92 197.78" stroke="rgba(168, 85, 247, 1)" stroke-width="1.5"></path><path d="M1133.49 108.83L1287.44 68.73" stroke="rgba(168, 85, 247, 1)" stroke-width="1.5"></path><path d="M1133.49 108.83L1306.5 234.77" stroke="rgba(168, 85, 247, 1)" stroke-width="1.5"></path><path d="M1100.92 197.78L1100.92 197.78" stroke="rgba(168, 85, 247, 1)" stroke-width="1.5"></path><path d="M1100.92 197.78L1152.06 380.62" stroke="rgba(168, 85, 247, 1)" stroke-width="1.5"></path><path d="M1100.92 197.78L1306.5 234.77" stroke="rgba(168, 85, 247, 1)" stroke-width="1.5"></path><path d="M1100.92 197.78L1287.44 68.73" stroke="rgba(168, 85, 247, 1)" stroke-width="1.5"></path><path d="M1152.06 380.62L1152.06 380.62" stroke="rgba(168, 85, 247, 1)" stroke-width="1.5"></path><path d="M1152.06 380.62L1121.93 549.35" stroke="rgba(168, 85, 247, 1)" stroke-width="1.5"></path><path d="M1152.06 380.62L1269.61 513.14" stroke="rgba(168, 85, 247, 1)" stroke-width="1.5"></path><path d="M1121.93 549.35L1121.93 549.35" stroke="rgba(168, 85, 247, 1)" stroke-width="1.5"></path><path d="M1121.93 549.35L1156.17 681.64" stroke="rgba(168, 85, 247, 1)" stroke-width="1.5"></path><path d="M1121.93 549.35L1269.61 513.14" stroke="rgba(168, 85, 247, 1)" stroke-width="1.5"></path><path d="M1121.93 549.35L1248.87 681.72" stroke="rgba(168, 85, 247, 1)" stroke-width="1.5"></path><path d="M1156.17 681.64L1156.17 681.64" stroke="rgba(168, 85, 247, 1)" stroke-width="1.5"></path><path d="M1156.17 681.64L1248.87 681.72" stroke="rgba(168, 85, 247, 1)" stroke-width="1.5"></path><path d="M1156.17 681.64L1269.61 513.14" stroke="rgba(168, 85, 247, 1)" stroke-width="1.5"></path><path d="M1156.17 681.64L1392 688.55" stroke="rgba(168, 85, 247, 1)" stroke-width="1.5"></path><path d="M1304.5 -104.57L1304.5 -104.57" stroke="rgba(168, 85, 247, 1)" stroke-width="1.5"></path><path d="M1304.5 -104.57L1420.94 -53.95" stroke="rgba(168, 85, 247, 1)" stroke-width="1.5"></path><path d="M1304.5 -104.57L1287.44 68.73" stroke="rgba(168, 85, 247, 1)" stroke-width="1.5"></path><path d="M1304.5 -104.57L1390.4 91.11" stroke="rgba(168, 85, 247, 1)" stroke-width="1.5"></path><path d="M1304.5 -104.57L1133.49 108.83" stroke="rgba(168, 85, 247, 1)" stroke-width="1.5"></path><path d="M1304.5 -104.57L1538.39 41.87" stroke="rgba(168, 85, 247, 1)" stroke-width="1.5"></path><path d="M1287.44 68.73L1287.44 68.73" stroke="rgba(168, 85, 247, 1)" stroke-width="1.5"></path><path d="M1287.44 68.73L1390.4 91.11" stroke="rgba(168, 85, 247, 1)" stroke-width="1.5"></path><path d="M1287.44 68.73L1306.5 234.77" stroke="rgba(168, 85, 247, 1)" stroke-width="1.5"></path><path d="M1287.44 68.73L1420.94 -53.95" stroke="rgba(168, 85, 247, 1)" stroke-width="1.5"></path><path d="M1306.5 234.77L1306.5 234.77" stroke="rgba(168, 85, 247, 1)" stroke-width="1.5"></path><path d="M1306.5 234.77L1446.6 208.99" stroke="rgba(168, 85, 247, 1)" stroke-width="1.5"></path><path d="M1306.5 234.77L1390.4 91.11" stroke="rgba(168, 85, 247, 1)" stroke-width="1.5"></path><path d="M1306.5 234.77L1458.3 363.32" stroke="rgba(168, 85, 247, 1)" stroke-width="1.5"></path><path d="M1269.61 513.14L1269.61 513.14" stroke="rgba(168, 85, 247, 1)" stroke-width="1.5"></path><path d="M1269.61 513.14L1417.82 494.52" stroke="rgba(168, 85, 247, 1)" stroke-width="1.5"></path><path d="M1269.61 513.14L1248.87 681.72" stroke="rgba(168, 85, 247, 1)" stroke-width="1.5"></path><path d="M1248.87 681.72L1248.87 681.72" stroke="rgba(168, 85, 247, 1)" stroke-width="1.5"></path><path d="M1248.87 681.72L1392 688.55" stroke="rgba(168, 85, 247, 1)" stroke-width="1.5"></path><path d="M1420.94 -53.95L1420.94 -53.95" stroke="rgba(168, 85, 247, 1)" stroke-width="1.5"></path><path d="M1420.94 -53.95L1390.4 91.11" stroke="rgba(168, 85, 247, 1)" stroke-width="1.5"></path><path d="M1420.94 -53.95L1538.39 41.87" stroke="rgba(168, 85, 247, 1)" stroke-width="1.5"></path><path d="M1390.4 91.11L1390.4 91.11" stroke="rgba(168, 85, 247, 1)" stroke-width="1.5"></path><path d="M1390.4 91.11L1446.6 208.99" stroke="rgba(168, 85, 247, 1)" stroke-width="1.5"></path><path d="M1446.6 208.99L1446.6 208.99" stroke="rgba(168, 85, 247, 1)" stroke-width="1.5"></path><path d="M1458.3 363.32L1458.3 363.32" stroke="rgba(168, 85, 247, 1)" stroke-width="1.5"></path><path d="M1458.3 363.32L1417.82 494.52" stroke="rgba(168, 85, 247, 1)" stroke-width="1.5"></path><path d="M1458.3 363.32L1607.87 373.69" stroke="rgba(168, 85, 247, 1)" stroke-width="1.5"></path><path d="M1458.3 363.32L1446.6 208.99" stroke="rgba(168, 85, 247, 1)" stroke-width="1.5"></path><path d="M1458.3 363.32L1607.95 189.11" stroke="rgba(168, 85, 247, 1)" stroke-width="1.5"></path><path d="M1458.3 363.32L1586.65 556.21" stroke="rgba(168, 85, 247, 1)" stroke-width="1.5"></path><path d="M1417.82 494.52L1417.82 494.52" stroke="rgba(168, 85, 247, 1)" stroke-width="1.5"></path><path d="M1417.82 494.52L1586.65 556.21" stroke="rgba(168, 85, 247, 1)" stroke-width="1.5"></path><path d="M1417.82 494.52L1392 688.55" stroke="rgba(168, 85, 247, 1)" stroke-width="1.5"></path><path d="M1417.82 494.52L1607.87 373.69" stroke="rgba(168, 85, 247, 1)" stroke-width="1.5"></path><path d="M1392 688.55L1392 688.55" stroke="rgba(168, 85, 247, 1)" stroke-width="1.5"></path><path d="M1392 688.55L1269.61 513.14" stroke="rgba(168, 85, 247, 1)" stroke-width="1.5"></path><path d="M1392 688.55L1607.67 643.7" stroke="rgba(168, 85, 247, 1)" stroke-width="1.5"></path><path d="M1606.28 -89.4L1606.28 -89.4" stroke="rgba(168, 85, 247, 1)" stroke-width="1.5"></path><path d="M1606.28 -89.4L1538.39 41.87" stroke="rgba(168, 85, 247, 1)" stroke-width="1.5"></path><path d="M1606.28 -89.4L1420.94 -53.95" stroke="rgba(168, 85, 247, 1)" stroke-width="1.5"></path><path d="M1538.39 41.87L1538.39 41.87" stroke="rgba(168, 85, 247, 1)" stroke-width="1.5"></path><path d="M1538.39 41.87L1390.4 91.11" stroke="rgba(168, 85, 247, 1)" stroke-width="1.5"></path><path d="M1538.39 41.87L1607.95 189.11" stroke="rgba(168, 85, 247, 1)" stroke-width="1.5"></path><path d="M1538.39 41.87L1446.6 208.99" stroke="rgba(168, 85, 247, 1)" stroke-width="1.5"></path><path d="M1607.95 189.11L1607.95 189.11" stroke="rgba(168, 85, 247, 1)" stroke-width="1.5"></path><path d="M1607.95 189.11L1446.6 208.99" stroke="rgba(168, 85, 247, 1)" stroke-width="1.5"></path><path d="M1607.95 189.11L1607.87 373.69" stroke="rgba(168, 85, 247, 1)" stroke-width="1.5"></path><path d="M1607.87 373.69L1607.87 373.69" stroke="rgba(168, 85, 247, 1)" stroke-width="1.5"></path><path d="M1607.87 373.69L1586.65 556.21" stroke="rgba(168, 85, 247, 1)" stroke-width="1.5"></path><path d="M1607.87 373.69L1446.6 208.99" stroke="rgba(168, 85, 247, 1)" stroke-width="1.5"></path><path d="M1607.87 373.69L1607.67 643.7" stroke="rgba(168, 85, 247, 1)" stroke-width="1.5"></path><path d="M1586.65 556.21L1586.65 556.21" stroke="rgba(168, 85, 247, 1)" stroke-width="1.5"></path><path d="M1586.65 556.21L1607.67 643.7" stroke="rgba(168, 85, 247, 1)" stroke-width="1.5"></path><path d="M1586.65 556.21L1392 688.55" stroke="rgba(168, 85, 247, 1)" stroke-width="1.5"></path><path d="M1607.67 643.7L1607.67 643.7" stroke="rgba(168, 85, 247, 1)" stroke-width="1.5"></path><path d="M1607.67 643.7L1417.82 494.52" stroke="rgba(168, 85, 247, 1)" stroke-width="1.5"></path><path d="M1607.67 643.7L1458.3 363.32" stroke="rgba(168, 85, 247, 1)" stroke-width="1.5"></path><circle r="5" cx="-51.32" cy="377.26" fill="rgba(168, 85, 247, 1)"></circle><circle r="5" cx="-48.06" cy="547.05" fill="rgba(168, 85, 247, 1)"></circle><circle r="5" cx="-89.37" cy="686.71" fill="rgba(168, 85, 247, 1)"></circle><circle r="5" cx="97.3" cy="499.41" fill="rgba(168, 85, 247, 1)"></circle><circle r="5" cx="104.05" cy="658.43" fill="rgba(168, 85, 247, 1)"></circle><circle r="5" cx="239.65" cy="374.7" fill="rgba(168, 85, 247, 1)"></circle><circle r="5" cx="229.34" cy="523.48" fill="rgba(168, 85, 247, 1)"></circle><circle r="5" cx="244.23" cy="705.76" fill="rgba(168, 85, 247, 1)"></circle><circle r="5" cx="338.67" cy="338.15" fill="rgba(168, 85, 247, 1)"></circle><circle r="5" cx="358.53" cy="489.38" fill="rgba(168, 85, 247, 1)"></circle><circle r="5" cx="361.33" cy="681.29" fill="rgba(168, 85, 247, 1)"></circle><circle r="5" cx="537.02" cy="338.71" fill="rgba(168, 85, 247, 1)"></circle><circle r="5" cx="510.71" cy="557.87" fill="rgba(168, 85, 247, 1)"></circle><circle r="5" cx="513.61" cy="673.37" fill="rgba(168, 85, 247, 1)"></circle><circle r="5" cx="691.27" cy="240.04" fill="rgba(168, 85, 247, 1)"></circle><circle r="5" cx="649.44" cy="404.88" fill="rgba(168, 85, 247, 1)"></circle><circle r="5" cx="651.23" cy="653.8" fill="rgba(168, 85, 247, 1)"></circle><circle r="5" cx="790.53" cy="207.22" fill="rgba(168, 85, 247, 1)"></circle><circle r="5" cx="804.27" cy="337.97" fill="rgba(168, 85, 247, 1)"></circle><circle r="5" cx="791.51" cy="551.76" fill="rgba(168, 85, 247, 1)"></circle><circle r="5" cx="813.88" cy="662.29" fill="rgba(168, 85, 247, 1)"></circle><circle r="5" cx="961.78" cy="-110.33" fill="rgba(168, 85, 247, 1)"></circle><circle r="5" cx="949.76" cy="45.88" fill="rgba(168, 85, 247, 1)"></circle><circle r="5" cx="951.76" cy="242.63" fill="rgba(168, 85, 247, 1)"></circle><circle r="5" cx="978.97" cy="392.08" fill="rgba(168, 85, 247, 1)"></circle><circle r="5" cx="991.21" cy="698.75" fill="rgba(168, 85, 247, 1)"></circle><circle r="5" cx="1156.82" cy="-94.64" fill="rgba(168, 85, 247, 1)"></circle><circle r="5" cx="1133.49" cy="108.83" fill="rgba(168, 85, 247, 1)"></circle><circle r="5" cx="1100.92" cy="197.78" fill="rgba(168, 85, 247, 1)"></circle><circle r="5" cx="1152.06" cy="380.62" fill="rgba(168, 85, 247, 1)"></circle><circle r="5" cx="1121.93" cy="549.35" fill="rgba(168, 85, 247, 1)"></circle><circle r="5" cx="1156.17" cy="681.64" fill="rgba(168, 85, 247, 1)"></circle><circle r="5" cx="1304.5" cy="-104.57" fill="rgba(168, 85, 247, 1)"></circle><circle r="5" cx="1287.44" cy="68.73" fill="rgba(168, 85, 247, 1)"></circle><circle r="5" cx="1306.5" cy="234.77" fill="rgba(168, 85, 247, 1)"></circle><circle r="5" cx="1269.61" cy="513.14" fill="rgba(168, 85, 247, 1)"></circle><circle r="5" cx="1248.87" cy="681.72" fill="rgba(168, 85, 247, 1)"></circle><circle r="5" cx="1420.94" cy="-53.95" fill="rgba(168, 85, 247, 1)"></circle><circle r="5" cx="1390.4" cy="91.11" fill="rgba(168, 85, 247, 1)"></circle><circle r="5" cx="1446.6" cy="208.99" fill="rgba(168, 85, 247, 1)"></circle><circle r="5" cx="1458.3" cy="363.32" fill="rgba(168, 85, 247, 1)"></circle><circle r="5" cx="1417.82" cy="494.52" fill="rgba(168, 85, 247, 1)"></circle><circle r="5" cx="1392" cy="688.55" fill="rgba(168, 85, 247, 1)"></circle><circle r="5" cx="1606.28" cy="-89.4" fill="rgba(168, 85, 247, 1)"></circle><circle r="5" cx="1538.39" cy="41.87" fill="rgba(168, 85, 247, 1)"></circle><circle r="5" cx="1607.95" cy="189.11" fill="rgba(168, 85, 247, 1)"></circle><circle r="5" cx="1607.87" cy="373.69" fill="rgba(168, 85, 247, 1)"></circle><circle r="5" cx="1586.65" cy="556.21" fill="rgba(168, 85, 247, 1)"></circle><circle r="5" cx="1607.67" cy="643.7" fill="rgba(168, 85, 247, 1)"></circle><path d="M650.56 656.07L650.56 656.07" stroke="hsl(270.70000000000005, 91%, 84.6%)" stroke-width="1.5"></path><path d="M650.56 656.07L706.22 512.5" stroke="hsl(270.70000000000005, 91%, 84.6%)" stroke-width="1.5"></path><path d="M650.56 656.07L807.38 688.56" stroke="hsl(270.70000000000005, 91%, 84.6%)" stroke-width="1.5"></path><path d="M650.56 656.07L528.38 489.06" stroke="hsl(270.70000000000005, 91%, 84.6%)" stroke-width="1.5"></path><path d="M650.56 656.07L852.96 540.94" stroke="hsl(270.70000000000005, 91%, 84.6%)" stroke-width="1.5"></path><path d="M650.56 656.07L411.21 658.61" stroke="hsl(270.70000000000005, 91%, 84.6%)" stroke-width="1.5"></path><path d="M1150.62 83.5L1150.62 83.5" stroke="hsl(270.70000000000005, 91%, 84.6%)" stroke-width="1.5"></path><path d="M1150.62 83.5L1296 51.36" stroke="hsl(270.70000000000005, 91%, 84.6%)" stroke-width="1.5"></path><path d="M1150.62 83.5L1096.99 250.94" stroke="hsl(270.70000000000005, 91%, 84.6%)" stroke-width="1.5"></path><path d="M1150.62 83.5L1259.94 259.03" stroke="hsl(270.70000000000005, 91%, 84.6%)" stroke-width="1.5"></path><path d="M1096.99 250.94L1096.99 250.94" stroke="hsl(270.70000000000005, 91%, 84.6%)" stroke-width="1.5"></path><path d="M1096.99 250.94L1128.84 372.51" stroke="hsl(270.70000000000005, 91%, 84.6%)" stroke-width="1.5"></path><path d="M1096.99 250.94L1259.94 259.03" stroke="hsl(270.70000000000005, 91%, 84.6%)" stroke-width="1.5"></path><path d="M1096.99 250.94L944.99 346.88" stroke="hsl(270.70000000000005, 91%, 84.6%)" stroke-width="1.5"></path><path d="M1296 51.36L1296 51.36" stroke="hsl(270.70000000000005, 91%, 84.6%)" stroke-width="1.5"></path><path d="M1296 51.36L1437.79 67.72" stroke="hsl(270.70000000000005, 91%, 84.6%)" stroke-width="1.5"></path><path d="M1296 51.36L1289.11 -91.6" stroke="hsl(270.70000000000005, 91%, 84.6%)" stroke-width="1.5"></path><path d="M1296 51.36L1405.44 197.37" stroke="hsl(270.70000000000005, 91%, 84.6%)" stroke-width="1.5"></path><path d="M1296 51.36L1460.65 -77.98" stroke="hsl(270.70000000000005, 91%, 84.6%)" stroke-width="1.5"></path><path d="M1286.77 535.42L1286.77 535.42" stroke="hsl(270.70000000000005, 91%, 84.6%)" stroke-width="1.5"></path><path d="M1286.77 535.42L1436.54 558.48" stroke="hsl(270.70000000000005, 91%, 84.6%)" stroke-width="1.5"></path><path d="M1286.77 535.42L1133.74 496.9" stroke="hsl(270.70000000000005, 91%, 84.6%)" stroke-width="1.5"></path><path d="M1556.71 -50.06L1556.71 -50.06" stroke="hsl(270.70000000000005, 91%, 84.6%)" stroke-width="1.5"></path><path d="M1556.71 -50.06L1460.65 -77.98" stroke="hsl(270.70000000000005, 91%, 84.6%)" stroke-width="1.5"></path><path d="M1556.71 -50.06L1609.99 66.97" stroke="hsl(270.70000000000005, 91%, 84.6%)" stroke-width="1.5"></path><path d="M1556.71 -50.06L1437.79 67.72" stroke="hsl(270.70000000000005, 91%, 84.6%)" stroke-width="1.5"></path><path d="M1556.71 -50.06L1289.11 -91.6" stroke="hsl(270.70000000000005, 91%, 84.6%)" stroke-width="1.5"></path><path d="M1556.71 -50.06L1296 51.36" stroke="hsl(270.70000000000005, 91%, 84.6%)" stroke-width="1.5"></path><path d="M1556.71 -50.06L1405.44 197.37" stroke="hsl(270.70000000000005, 91%, 84.6%)" stroke-width="1.5"></path><path d="M1543.33 402.91L1543.33 402.91" stroke="hsl(270.70000000000005, 91%, 84.6%)" stroke-width="1.5"></path><path d="M1543.33 402.91L1587.77 547.12" stroke="hsl(270.70000000000005, 91%, 84.6%)" stroke-width="1.5"></path><path d="M1543.33 402.91L1587.98 256.43" stroke="hsl(270.70000000000005, 91%, 84.6%)" stroke-width="1.5"></path><path d="M1543.33 402.91L1436.54 558.48" stroke="hsl(270.70000000000005, 91%, 84.6%)" stroke-width="1.5"></path><path d="M-89.4 493.94L-89.4 493.94" stroke="hsl(270.70000000000005, 91%, 84.6%)" stroke-width="1.5"></path><path d="M-89.4 493.94L58.67 544.84" stroke="hsl(270.70000000000005, 91%, 84.6%)" stroke-width="1.5"></path><path d="M-89.4 493.94L-40.02 704.17" stroke="hsl(270.70000000000005, 91%, 84.6%)" stroke-width="1.5"></path><path d="M-40.02 704.17L-40.02 704.17" stroke="hsl(270.70000000000005, 91%, 84.6%)" stroke-width="1.5"></path><path d="M-40.02 704.17L91.85 662.66" stroke="hsl(270.70000000000005, 91%, 84.6%)" stroke-width="1.5"></path><path d="M-40.02 704.17L58.67 544.84" stroke="hsl(270.70000000000005, 91%, 84.6%)" stroke-width="1.5"></path><path d="M-40.02 704.17L253 675.26" stroke="hsl(270.70000000000005, 91%, 84.6%)" stroke-width="1.5"></path><path d="M-40.02 704.17L228.75 534.91" stroke="hsl(270.70000000000005, 91%, 84.6%)" stroke-width="1.5"></path><path d="M-40.02 704.17L411.21 658.61" stroke="hsl(270.70000000000005, 91%, 84.6%)" stroke-width="1.5"></path><path d="M58.67 544.84L58.67 544.84" stroke="hsl(270.70000000000005, 91%, 84.6%)" stroke-width="1.5"></path><path d="M58.67 544.84L91.85 662.66" stroke="hsl(270.70000000000005, 91%, 84.6%)" stroke-width="1.5"></path><path d="M58.67 544.84L228.75 534.91" stroke="hsl(270.70000000000005, 91%, 84.6%)" stroke-width="1.5"></path><path d="M91.85 662.66L91.85 662.66" stroke="hsl(270.70000000000005, 91%, 84.6%)" stroke-width="1.5"></path><path d="M91.85 662.66L253 675.26" stroke="hsl(270.70000000000005, 91%, 84.6%)" stroke-width="1.5"></path><path d="M91.85 662.66L228.75 534.91" stroke="hsl(270.70000000000005, 91%, 84.6%)" stroke-width="1.5"></path><path d="M91.85 662.66L-89.4 493.94" stroke="hsl(270.70000000000005, 91%, 84.6%)" stroke-width="1.5"></path><path d="M91.85 662.66L411.21 658.61" stroke="hsl(270.70000000000005, 91%, 84.6%)" stroke-width="1.5"></path><path d="M228.75 534.91L228.75 534.91" stroke="hsl(270.70000000000005, 91%, 84.6%)" stroke-width="1.5"></path><path d="M228.75 534.91L253 675.26" stroke="hsl(270.70000000000005, 91%, 84.6%)" stroke-width="1.5"></path><path d="M228.75 534.91L385.26 520.81" stroke="hsl(270.70000000000005, 91%, 84.6%)" stroke-width="1.5"></path><path d="M253 675.26L253 675.26" stroke="hsl(270.70000000000005, 91%, 84.6%)" stroke-width="1.5"></path><path d="M253 675.26L411.21 658.61" stroke="hsl(270.70000000000005, 91%, 84.6%)" stroke-width="1.5"></path><path d="M385.26 520.81L385.26 520.81" stroke="hsl(270.70000000000005, 91%, 84.6%)" stroke-width="1.5"></path><path d="M385.26 520.81L411.21 658.61" stroke="hsl(270.70000000000005, 91%, 84.6%)" stroke-width="1.5"></path><path d="M385.26 520.81L528.38 489.06" stroke="hsl(270.70000000000005, 91%, 84.6%)" stroke-width="1.5"></path><path d="M385.26 520.81L253 675.26" stroke="hsl(270.70000000000005, 91%, 84.6%)" stroke-width="1.5"></path><path d="M411.21 658.61L411.21 658.61" stroke="hsl(270.70000000000005, 91%, 84.6%)" stroke-width="1.5"></path><path d="M411.21 658.61L528.38 489.06" stroke="hsl(270.70000000000005, 91%, 84.6%)" stroke-width="1.5"></path><path d="M411.21 658.61L228.75 534.91" stroke="hsl(270.70000000000005, 91%, 84.6%)" stroke-width="1.5"></path><path d="M528.38 489.06L528.38 489.06" stroke="hsl(270.70000000000005, 91%, 84.6%)" stroke-width="1.5"></path><path d="M528.38 489.06L662.02 410.1" stroke="hsl(270.70000000000005, 91%, 84.6%)" stroke-width="1.5"></path><path d="M528.38 489.06L706.22 512.5" stroke="hsl(270.70000000000005, 91%, 84.6%)" stroke-width="1.5"></path><path d="M662.02 410.1L662.02 410.1" stroke="hsl(270.70000000000005, 91%, 84.6%)" stroke-width="1.5"></path><path d="M662.02 410.1L706.22 512.5" stroke="hsl(270.70000000000005, 91%, 84.6%)" stroke-width="1.5"></path><path d="M662.02 410.1L837.63 399.65" stroke="hsl(270.70000000000005, 91%, 84.6%)" stroke-width="1.5"></path><path d="M662.02 410.1L852.96 540.94" stroke="hsl(270.70000000000005, 91%, 84.6%)" stroke-width="1.5"></path><path d="M706.22 512.5L706.22 512.5" stroke="hsl(270.70000000000005, 91%, 84.6%)" stroke-width="1.5"></path><path d="M706.22 512.5L852.96 540.94" stroke="hsl(270.70000000000005, 91%, 84.6%)" stroke-width="1.5"></path><path d="M706.22 512.5L837.63 399.65" stroke="hsl(270.70000000000005, 91%, 84.6%)" stroke-width="1.5"></path><path d="M837.63 399.65L837.63 399.65" stroke="hsl(270.70000000000005, 91%, 84.6%)" stroke-width="1.5"></path><path d="M837.63 399.65L944.99 346.88" stroke="hsl(270.70000000000005, 91%, 84.6%)" stroke-width="1.5"></path><path d="M837.63 399.65L852.96 540.94" stroke="hsl(270.70000000000005, 91%, 84.6%)" stroke-width="1.5"></path><path d="M837.63 399.65L1002.01 523.55" stroke="hsl(270.70000000000005, 91%, 84.6%)" stroke-width="1.5"></path><path d="M852.96 540.94L852.96 540.94" stroke="hsl(270.70000000000005, 91%, 84.6%)" stroke-width="1.5"></path><path d="M852.96 540.94L1002.01 523.55" stroke="hsl(270.70000000000005, 91%, 84.6%)" stroke-width="1.5"></path><path d="M852.96 540.94L807.38 688.56" stroke="hsl(270.70000000000005, 91%, 84.6%)" stroke-width="1.5"></path><path d="M807.38 688.56L807.38 688.56" stroke="hsl(270.70000000000005, 91%, 84.6%)" stroke-width="1.5"></path><path d="M807.38 688.56L965.44 672.87" stroke="hsl(270.70000000000005, 91%, 84.6%)" stroke-width="1.5"></path><path d="M807.38 688.56L706.22 512.5" stroke="hsl(270.70000000000005, 91%, 84.6%)" stroke-width="1.5"></path><path d="M807.38 688.56L1002.01 523.55" stroke="hsl(270.70000000000005, 91%, 84.6%)" stroke-width="1.5"></path><path d="M807.38 688.56L1095.84 678.29" stroke="hsl(270.70000000000005, 91%, 84.6%)" stroke-width="1.5"></path><path d="M944.99 346.88L944.99 346.88" stroke="hsl(270.70000000000005, 91%, 84.6%)" stroke-width="1.5"></path><path d="M944.99 346.88L1128.84 372.51" stroke="hsl(270.70000000000005, 91%, 84.6%)" stroke-width="1.5"></path><path d="M944.99 346.88L1002.01 523.55" stroke="hsl(270.70000000000005, 91%, 84.6%)" stroke-width="1.5"></path><path d="M944.99 346.88L852.96 540.94" stroke="hsl(270.70000000000005, 91%, 84.6%)" stroke-width="1.5"></path><path d="M1002.01 523.55L1002.01 523.55" stroke="hsl(270.70000000000005, 91%, 84.6%)" stroke-width="1.5"></path><path d="M1002.01 523.55L1133.74 496.9" stroke="hsl(270.70000000000005, 91%, 84.6%)" stroke-width="1.5"></path><path d="M965.44 672.87L965.44 672.87" stroke="hsl(270.70000000000005, 91%, 84.6%)" stroke-width="1.5"></path><path d="M965.44 672.87L1095.84 678.29" stroke="hsl(270.70000000000005, 91%, 84.6%)" stroke-width="1.5"></path><path d="M965.44 672.87L1002.01 523.55" stroke="hsl(270.70000000000005, 91%, 84.6%)" stroke-width="1.5"></path><path d="M965.44 672.87L852.96 540.94" stroke="hsl(270.70000000000005, 91%, 84.6%)" stroke-width="1.5"></path><path d="M965.44 672.87L1133.74 496.9" stroke="hsl(270.70000000000005, 91%, 84.6%)" stroke-width="1.5"></path><path d="M1128.84 372.51L1128.84 372.51" stroke="hsl(270.70000000000005, 91%, 84.6%)" stroke-width="1.5"></path><path d="M1128.84 372.51L1246.32 352.7" stroke="hsl(270.70000000000005, 91%, 84.6%)" stroke-width="1.5"></path><path d="M1128.84 372.51L1133.74 496.9" stroke="hsl(270.70000000000005, 91%, 84.6%)" stroke-width="1.5"></path><path d="M1128.84 372.51L1259.94 259.03" stroke="hsl(270.70000000000005, 91%, 84.6%)" stroke-width="1.5"></path><path d="M1133.74 496.9L1133.74 496.9" stroke="hsl(270.70000000000005, 91%, 84.6%)" stroke-width="1.5"></path><path d="M1095.84 678.29L1095.84 678.29" stroke="hsl(270.70000000000005, 91%, 84.6%)" stroke-width="1.5"></path><path d="M1095.84 678.29L1002.01 523.55" stroke="hsl(270.70000000000005, 91%, 84.6%)" stroke-width="1.5"></path><path d="M1095.84 678.29L1133.74 496.9" stroke="hsl(270.70000000000005, 91%, 84.6%)" stroke-width="1.5"></path><path d="M1289.11 -91.6L1289.11 -91.6" stroke="hsl(270.70000000000005, 91%, 84.6%)" stroke-width="1.5"></path><path d="M1289.11 -91.6L1460.65 -77.98" stroke="hsl(270.70000000000005, 91%, 84.6%)" stroke-width="1.5"></path><path d="M1259.94 259.03L1259.94 259.03" stroke="hsl(270.70000000000005, 91%, 84.6%)" stroke-width="1.5"></path><path d="M1259.94 259.03L1246.32 352.7" stroke="hsl(270.70000000000005, 91%, 84.6%)" stroke-width="1.5"></path><path d="M1259.94 259.03L1405.44 197.37" stroke="hsl(270.70000000000005, 91%, 84.6%)" stroke-width="1.5"></path><path d="M1246.32 352.7L1246.32 352.7" stroke="hsl(270.70000000000005, 91%, 84.6%)" stroke-width="1.5"></path><path d="M1246.32 352.7L1096.99 250.94" stroke="hsl(270.70000000000005, 91%, 84.6%)" stroke-width="1.5"></path><path d="M1296.55 701.17L1296.55 701.17" stroke="hsl(270.70000000000005, 91%, 84.6%)" stroke-width="1.5"></path><path d="M1296.55 701.17L1411.4 710.83" stroke="hsl(270.70000000000005, 91%, 84.6%)" stroke-width="1.5"></path><path d="M1296.55 701.17L1286.77 535.42" stroke="hsl(270.70000000000005, 91%, 84.6%)" stroke-width="1.5"></path><path d="M1296.55 701.17L1436.54 558.48" stroke="hsl(270.70000000000005, 91%, 84.6%)" stroke-width="1.5"></path><path d="M1296.55 701.17L1095.84 678.29" stroke="hsl(270.70000000000005, 91%, 84.6%)" stroke-width="1.5"></path><path d="M1296.55 701.17L1540.39 639.53" stroke="hsl(270.70000000000005, 91%, 84.6%)" stroke-width="1.5"></path><path d="M1460.65 -77.98L1460.65 -77.98" stroke="hsl(270.70000000000005, 91%, 84.6%)" stroke-width="1.5"></path><path d="M1460.65 -77.98L1437.79 67.72" stroke="hsl(270.70000000000005, 91%, 84.6%)" stroke-width="1.5"></path><path d="M1437.79 67.72L1437.79 67.72" stroke="hsl(270.70000000000005, 91%, 84.6%)" stroke-width="1.5"></path><path d="M1437.79 67.72L1405.44 197.37" stroke="hsl(270.70000000000005, 91%, 84.6%)" stroke-width="1.5"></path><path d="M1405.44 197.37L1405.44 197.37" stroke="hsl(270.70000000000005, 91%, 84.6%)" stroke-width="1.5"></path><path d="M1405.44 197.37L1587.98 256.43" stroke="hsl(270.70000000000005, 91%, 84.6%)" stroke-width="1.5"></path><path d="M1405.44 197.37L1246.32 352.7" stroke="hsl(270.70000000000005, 91%, 84.6%)" stroke-width="1.5"></path><path d="M1436.54 558.48L1436.54 558.48" stroke="hsl(270.70000000000005, 91%, 84.6%)" stroke-width="1.5"></path><path d="M1436.54 558.48L1540.39 639.53" stroke="hsl(270.70000000000005, 91%, 84.6%)" stroke-width="1.5"></path><path d="M1436.54 558.48L1587.77 547.12" stroke="hsl(270.70000000000005, 91%, 84.6%)" stroke-width="1.5"></path><path d="M1436.54 558.48L1411.4 710.83" stroke="hsl(270.70000000000005, 91%, 84.6%)" stroke-width="1.5"></path><path d="M1411.4 710.83L1411.4 710.83" stroke="hsl(270.70000000000005, 91%, 84.6%)" stroke-width="1.5"></path><path d="M1411.4 710.83L1540.39 639.53" stroke="hsl(270.70000000000005, 91%, 84.6%)" stroke-width="1.5"></path><path d="M1609.99 66.97L1609.99 66.97" stroke="hsl(270.70000000000005, 91%, 84.6%)" stroke-width="1.5"></path><path d="M1609.99 66.97L1437.79 67.72" stroke="hsl(270.70000000000005, 91%, 84.6%)" stroke-width="1.5"></path><path d="M1609.99 66.97L1587.98 256.43" stroke="hsl(270.70000000000005, 91%, 84.6%)" stroke-width="1.5"></path><path d="M1609.99 66.97L1460.65 -77.98" stroke="hsl(270.70000000000005, 91%, 84.6%)" stroke-width="1.5"></path><path d="M1609.99 66.97L1405.44 197.37" stroke="hsl(270.70000000000005, 91%, 84.6%)" stroke-width="1.5"></path><path d="M1587.98 256.43L1587.98 256.43" stroke="hsl(270.70000000000005, 91%, 84.6%)" stroke-width="1.5"></path><path d="M1587.98 256.43L1437.79 67.72" stroke="hsl(270.70000000000005, 91%, 84.6%)" stroke-width="1.5"></path><path d="M1587.98 256.43L1587.77 547.12" stroke="hsl(270.70000000000005, 91%, 84.6%)" stroke-width="1.5"></path><path d="M1587.77 547.12L1587.77 547.12" stroke="hsl(270.70000000000005, 91%, 84.6%)" stroke-width="1.5"></path><path d="M1587.77 547.12L1540.39 639.53" stroke="hsl(270.70000000000005, 91%, 84.6%)" stroke-width="1.5"></path><path d="M1540.39 639.53L1540.39 639.53" stroke="hsl(270.70000000000005, 91%, 84.6%)" stroke-width="1.5"></path><circle r="25" cx="650.56" cy="656.07" fill="url(#SvgjsRadialGradient1013)"></circle><circle r="25" cx="1150.62" cy="83.5" fill="url(#SvgjsRadialGradient1013)"></circle><circle r="25" cx="1096.99" cy="250.94" fill="url(#SvgjsRadialGradient1013)"></circle><circle r="25" cx="1296" cy="51.36" fill="url(#SvgjsRadialGradient1013)"></circle><circle r="25" cx="1286.77" cy="535.42" fill="url(#SvgjsRadialGradient1013)"></circle><circle r="25" cx="1556.71" cy="-50.06" fill="url(#SvgjsRadialGradient1013)"></circle><circle r="25" cx="1543.33" cy="402.91" fill="url(#SvgjsRadialGradient1013)"></circle><circle r="5" cx="-89.4" cy="493.94" fill="#d4aafb"></circle><circle r="5" cx="-40.02" cy="704.17" fill="#d4aafb"></circle><circle r="5" cx="58.67" cy="544.84" fill="#d4aafb"></circle><circle r="5" cx="91.85" cy="662.66" fill="#d4aafb"></circle><circle r="5" cx="228.75" cy="534.91" fill="#d4aafb"></circle><circle r="5" cx="253" cy="675.26" fill="#d4aafb"></circle><circle r="5" cx="385.26" cy="520.81" fill="#d4aafb"></circle><circle r="5" cx="411.21" cy="658.61" fill="#d4aafb"></circle><circle r="5" cx="528.38" cy="489.06" fill="#d4aafb"></circle><circle r="5" cx="662.02" cy="410.1" fill="#d4aafb"></circle><circle r="5" cx="706.22" cy="512.5" fill="#d4aafb"></circle><circle r="5" cx="837.63" cy="399.65" fill="#d4aafb"></circle><circle r="5" cx="852.96" cy="540.94" fill="#d4aafb"></circle><circle r="5" cx="807.38" cy="688.56" fill="#d4aafb"></circle><circle r="5" cx="944.99" cy="346.88" fill="#d4aafb"></circle><circle r="5" cx="1002.01" cy="523.55" fill="#d4aafb"></circle><circle r="5" cx="965.44" cy="672.87" fill="#d4aafb"></circle><circle r="5" cx="1128.84" cy="372.51" fill="#d4aafb"></circle><circle r="5" cx="1133.74" cy="496.9" fill="#d4aafb"></circle><circle r="5" cx="1095.84" cy="678.29" fill="#d4aafb"></circle><circle r="5" cx="1289.11" cy="-91.6" fill="#d4aafb"></circle><circle r="5" cx="1259.94" cy="259.03" fill="#d4aafb"></circle><circle r="5" cx="1246.32" cy="352.7" fill="#d4aafb"></circle><circle r="5" cx="1296.55" cy="701.17" fill="#d4aafb"></circle><circle r="5" cx="1460.65" cy="-77.98" fill="#d4aafb"></circle><circle r="5" cx="1437.79" cy="67.72" fill="#d4aafb"></circle><circle r="5" cx="1405.44" cy="197.37" fill="#d4aafb"></circle><circle r="5" cx="1436.54" cy="558.48" fill="#d4aafb"></circle><circle r="5" cx="1411.4" cy="710.83" fill="#d4aafb"></circle><circle r="5" cx="1609.99" cy="66.97" fill="#d4aafb"></circle><circle r="5" cx="1587.98" cy="256.43" fill="#d4aafb"></circle><circle r="5" cx="1587.77" cy="547.12" fill="#d4aafb"></circle><circle r="5" cx="1540.39" cy="639.53" fill="#d4aafb"></circle></g><defs><mask id="SvgjsMask1012"><rect width="1440" height="560" fill="#ffffff"></rect></mask><radialGradient id="SvgjsRadialGradient1013"><stop stop-color="#ffffff" offset="0.1"></stop><stop stop-color="rgba(168, 85, 247, 1)" offset="0.2"></stop><stop stop-color="rgba(168, 85, 247, 0)" offset="1"></stop></radialGradient></defs></svg>