<svg xmlns="http://www.w3.org/2000/svg" version="1.1" xmlns:xlink="http://www.w3.org/1999/xlink" xmlns:svgjs="http://svgjs.com/svgjs" width="1440" height="250" preserveAspectRatio="none" viewBox="0 0 1440 250"><g mask="url(&quot;#SvgjsMask1003&quot;)" fill="none"><path d="M37 250L287 0L393.5 0L143.5 250z" fill="url(#SvgjsLinearGradient1004)"></path><path d="M255.60000000000002 250L505.6 0L586.6 0L336.6 250z" fill="url(#SvgjsLinearGradient1004)"></path><path d="M508.20000000000005 250L758.2 0L1076.2 0L826.2 250z" fill="url(#SvgjsLinearGradient1004)"></path><path d="M727.8000000000001 250L977.8000000000001 0L1165.3000000000002 0L915.3000000000001 250z" fill="url(#SvgjsLinearGradient1004)"></path><path d="M1418 250L1168 0L1120 0L1370 250z" fill="url(#SvgjsLinearGradient1005)"></path><path d="M1172.4 250L922.4000000000001 0L589.4000000000001 0L839.4000000000001 250z" fill="url(#SvgjsLinearGradient1005)"></path><path d="M959.8 250L709.8 0L640.8 0L890.8 250z" fill="url(#SvgjsLinearGradient1005)"></path><path d="M689.1999999999999 250L439.19999999999993 0L149.69999999999993 0L399.69999999999993 250z" fill="url(#SvgjsLinearGradient1005)"></path><path d="M1206.1967446230371 250L1440 16.19674462303712L1440 250z" fill="url(#SvgjsLinearGradient1004)"></path><path d="M0 250L233.80325537696288 250L 0 16.19674462303712z" fill="url(#SvgjsLinearGradient1005)"></path></g><defs><mask id="SvgjsMask1003"><rect width="1440" height="250" fill="#ffffff"></rect></mask><linearGradient x1="0%" y1="100%" x2="100%" y2="0%" id="SvgjsLinearGradient1004"><stop stop-color="rgba(185, 15, 181, 0.2)" offset="0"></stop><stop stop-opacity="0" stop-color="rgba(185, 15, 181, 0.2)" offset="0.66"></stop></linearGradient><linearGradient x1="100%" y1="100%" x2="0%" y2="0%" id="SvgjsLinearGradient1005"><stop stop-color="rgba(185, 15, 181, 0.2)" offset="0"></stop><stop stop-opacity="0" stop-color="rgba(185, 15, 181, 0.2)" offset="0.66"></stop></linearGradient></defs></svg>