<svg xmlns="http://www.w3.org/2000/svg" version="1.1" xmlns:xlink="http://www.w3.org/1999/xlink" xmlns:svgjs="http://svgjs.com/svgjs" width="1440" height="560" preserveAspectRatio="none" viewBox="0 0 1440 560"><g mask="url(&quot;#SvgjsMask1001&quot;)" fill="none"><rect width="1440" height="560" x="0" y="0" fill="rgba(168, 85, 247, 1)"></rect><path d="M0,403.308C94.985,406.71,191.596,472.267,277.85,432.343C365.005,392.002,389.778,283.006,438.592,200.298C493.65,107.01,605.439,22.113,582.441,-83.742C559.12,-191.084,424.362,-227.894,332.483,-288.098C263.998,-332.973,186.824,-351.723,114.601,-390.296C18.363,-441.695,-54.784,-571.594,-162.164,-552.278C-266.516,-533.506,-305.636,-400.842,-353.291,-306.128C-392.075,-229.044,-396.746,-144.211,-410.354,-59C-424.206,27.742,-459.619,114.152,-433.817,198.118C-406.538,286.889,-349.298,373.18,-265.347,412.888C-183.685,451.513,-90.278,400.075,0,403.308" fill="#8816f4"></path><path d="M1440 1042.603C1554.791 1062.346 1676.516 1142.7440000000001 1779.327 1088.0030000000002 1881.26 1033.729 1910.482 896.98 1927.907 782.8199999999999 1942.821 685.112 1883.814 596.045 1869.344 498.27 1854.9569999999999 401.05600000000004 1884.307 299.879 1843.222 210.606 1794.555 104.858 1729.2640000000001-12.047000000000025 1618.298-47.226999999999975 1507.211-82.44600000000003 1385.757-25.605999999999995 1285.489 33.783000000000015 1198.674 85.20400000000001 1165.4270000000001 188.692 1096.144 262.047 1022.557 339.959 895.256 374.32 866.38 477.526 837.282 581.528 894.819 690.968 950.1949999999999 783.686 1001.717 869.95 1079.388 935.943 1168.219 982.9 1251.916 1027.143 1346.699 1026.556 1440 1042.603" fill="#c994fa"></path></g><defs><mask id="SvgjsMask1001"><rect width="1440" height="560" fill="#ffffff"></rect></mask></defs></svg>