<svg width="300" height="84" viewBox="0 0 300 84" fill="none" xmlns="http://www.w3.org/2000/svg">
<circle cx="6" cy="78" r="6" transform="rotate(-180 6 78)" fill="#A1D8B1"/>
<circle cx="30" cy="78" r="6" transform="rotate(-180 30 78)" fill="#A1D8B1"/>
<circle cx="54" cy="78" r="6" transform="rotate(-180 54 78)" fill="#A1D8B1"/>
<circle cx="78" cy="78" r="6" transform="rotate(-180 78 78)" fill="#A1D8B1"/>
<circle cx="102" cy="78" r="6" transform="rotate(-180 102 78)" fill="#A1D8B1"/>
<circle cx="126" cy="78" r="6" transform="rotate(-180 126 78)" fill="#A1D8B1"/>
<circle cx="150" cy="78" r="6" transform="rotate(-180 150 78)" fill="#A1D8B1"/>
<circle cx="174" cy="78" r="6" transform="rotate(-180 174 78)" fill="#A1D8B1"/>
<circle cx="198" cy="78" r="6" transform="rotate(-180 198 78)" fill="#A1D8B1"/>
<circle cx="222" cy="78" r="6" transform="rotate(-180 222 78)" fill="#A1D8B1"/>
<circle cx="246" cy="78" r="6" transform="rotate(-180 246 78)" fill="#A1D8B1"/>
<circle cx="270" cy="78" r="6" transform="rotate(-180 270 78)" fill="#A1D8B1"/>
<circle cx="294" cy="78" r="6" transform="rotate(-180 294 78)" fill="#A1D8B1"/>
<circle cx="6" cy="54" r="6" transform="rotate(-180 6 54)" fill="#A1D8B1"/>
<circle cx="30" cy="54" r="6" transform="rotate(-180 30 54)" fill="#A1D8B1"/>
<circle cx="54" cy="54" r="6" transform="rotate(-180 54 54)" fill="#A1D8B1"/>
<circle cx="78" cy="54" r="6" transform="rotate(-180 78 54)" fill="#A1D8B1"/>
<circle cx="102" cy="54" r="6" transform="rotate(-180 102 54)" fill="#A1D8B1"/>
<circle cx="126" cy="54" r="6" transform="rotate(-180 126 54)" fill="#A1D8B1"/>
<circle cx="150" cy="54" r="6" transform="rotate(-180 150 54)" fill="#A1D8B1"/>
<circle cx="174" cy="54" r="6" transform="rotate(-180 174 54)" fill="#A1D8B1"/>
<circle cx="198" cy="54" r="6" transform="rotate(-180 198 54)" fill="#A1D8B1"/>
<circle cx="222" cy="54" r="6" transform="rotate(-180 222 54)" fill="#A1D8B1"/>
<circle cx="246" cy="54" r="6" transform="rotate(-180 246 54)" fill="#A1D8B1"/>
<circle cx="270" cy="54" r="6" transform="rotate(-180 270 54)" fill="#A1D8B1"/>
<circle cx="294" cy="54" r="6" transform="rotate(-180 294 54)" fill="#A1D8B1"/>
<circle cx="6" cy="30" r="6" transform="rotate(-180 6 30)" fill="#A1D8B1"/>
<circle cx="30" cy="30" r="6" transform="rotate(-180 30 30)" fill="#A1D8B1"/>
<circle cx="54" cy="30" r="6" transform="rotate(-180 54 30)" fill="#A1D8B1"/>
<circle cx="78" cy="30" r="6" transform="rotate(-180 78 30)" fill="#A1D8B1"/>
<circle cx="102" cy="30" r="6" transform="rotate(-180 102 30)" fill="#A1D8B1"/>
<circle cx="126" cy="30" r="6" transform="rotate(-180 126 30)" fill="#A1D8B1"/>
<circle cx="150" cy="30" r="6" transform="rotate(-180 150 30)" fill="#A1D8B1"/>
<circle cx="174" cy="30" r="6" transform="rotate(-180 174 30)" fill="#A1D8B1"/>
<circle cx="198" cy="30" r="6" transform="rotate(-180 198 30)" fill="#A1D8B1"/>
<circle cx="222" cy="30" r="6" transform="rotate(-180 222 30)" fill="#A1D8B1"/>
<circle cx="246" cy="30" r="6" transform="rotate(-180 246 30)" fill="#A1D8B1"/>
<circle cx="270" cy="30" r="6" transform="rotate(-180 270 30)" fill="#A1D8B1"/>
<circle cx="294" cy="30" r="6" transform="rotate(-180 294 30)" fill="#A1D8B1"/>
<circle cx="6" cy="5.99998" r="6" transform="rotate(-180 6 5.99998)" fill="#A1D8B1"/>
<circle cx="30" cy="5.99998" r="6" transform="rotate(-180 30 5.99998)" fill="#A1D8B1"/>
<circle cx="54" cy="5.99998" r="6" transform="rotate(-180 54 5.99998)" fill="#A1D8B1"/>
<circle cx="78" cy="5.99998" r="6" transform="rotate(-180 78 5.99998)" fill="#A1D8B1"/>
<circle cx="102" cy="5.99998" r="6" transform="rotate(-180 102 5.99998)" fill="#A1D8B1"/>
<circle cx="126" cy="5.99998" r="6" transform="rotate(-180 126 5.99998)" fill="#A1D8B1"/>
<circle cx="150" cy="5.99998" r="6" transform="rotate(-180 150 5.99998)" fill="#A1D8B1"/>
<circle cx="174" cy="5.99999" r="6" transform="rotate(-180 174 5.99999)" fill="#A1D8B1"/>
<circle cx="198" cy="5.99999" r="6" transform="rotate(-180 198 5.99999)" fill="#A1D8B1"/>
<circle cx="222" cy="5.99999" r="6" transform="rotate(-180 222 5.99999)" fill="#A1D8B1"/>
<circle cx="246" cy="5.99999" r="6" transform="rotate(-180 246 5.99999)" fill="#A1D8B1"/>
<circle cx="270" cy="6" r="6" transform="rotate(-180 270 6)" fill="#A1D8B1"/>
<circle cx="294" cy="6" r="6" transform="rotate(-180 294 6)" fill="#A1D8B1"/>
</svg>
